{
.appVersion = "3343";
.formatVersion = 3;
customParameters = (
{
name = panose;
value = (
0,
0,
0,
0,
0,
0,
0,
0,
0,
0
);
},
{
name = unicodeRanges;
value = (
0,
1,
2,
3,
4,
5,
6,
7,
9,
29,
31,
32,
33,
35,
36,
37,
38,
42,
45,
47,
60,
62
);
},
{
name = fsType;
value = (
);
},
{
name = glyphOrder;
value = (
.notdef,
CR,
space,
A,
Aacute,
Abreve,
uni01CD,
Acircumflex,
Adieresis,
Agrave,
Amacron,
Aogonek,
Aring,
Atilde,
AE,
AEacute,
B,
C,
Cacute,
Ccaron,
Ccedilla,
Cdotaccent,
D,
Dcaron,
Dcroat,
Eth,
E,
Eacute,
Ebreve,
Ecaron,
Ecircumflex,
Edieresis,
Edotaccent,
Egrave,
Emacron,
Eogonek,
uni018E,
uni1EBC,
uni018F,
F,
G,
Gbreve,
uni0122,
Gdotaccent,
H,
Hbar,
I,
IJ,
Iacute,
Ibreve,
Icircumflex,
Idieresis,
Idotaccent,
Igrave,
Imacron,
Iogonek,
Itilde,
J,
uni004A0301,
K,
uni0136,
L,
Lacute,
Lcaron,
uni013B,
Ldot,
Lslash,
M,
N,
Nacute,
Ncaron,
uni0145,
Ntilde,
Eng,
O,
Oacute,
Obreve,
Ocircumflex,
Odieresis,
Ograve,
Ohungarumlaut,
Omacron,
Oslash,
Otilde,
OE,
P,
Thorn,
Q,
R,
Racute,
Rcaron,
uni0156,
S,
Sacute,
Scaron,
Scedilla,
uni0218,
uni1E9E,
T,
Tcaron,
uni0162,
uni021A,
U,
Uacute,
Ubreve,
Ucircumflex,
Udieresis,
Ugrave,
Uhungarumlaut,
Umacron,
Uogonek,
Uring,
Utilde,
V,
W,
Wacute,
Wcircumflex,
Wdieresis,
Wgrave,
X,
Y,
Yacute,
Ycircumflex,
Ydieresis,
Ygrave,
uni1EF8,
Z,
Zacute,
Zcaron,
Zdotaccent,
uniA78B,
a,
aacute,
abreve,
uni01CE,
acircumflex,
adieresis,
agrave,
amacron,
aogonek,
aring,
atilde,
ae,
aeacute,
b,
c,
cacute,
ccaron,
ccedilla,
cdotaccent,
d,
dcaron,
dcroat,
eth,
e,
eacute,
ebreve,
ecaron,
ecircumflex,
edieresis,
edotaccent,
egrave,
emacron,
eogonek,
uni1EBD,
uni0259,
f,
g,
gbreve,
uni0123,
gdotaccent,
h,
hbar,
i,
dotlessi,
iacute,
ibreve,
icircumflex,
idieresis,
i.loclTRK,
igrave,
imacron,
iogonek,
itilde,
ij,
j,
uni0237,
uni006A0301,
k,
uni0137,
l,
lacute,
lcaron,
uni013C,
ldot,
lslash,
m,
n,
nacute,
ncaron,
uni0146,
ntilde,
eng,
o,
oacute,
obreve,
ocircumflex,
odieresis,
ograve,
ohungarumlaut,
omacron,
oslash,
otilde,
oe,
p,
thorn,
q,
r,
racute,
rcaron,

glyphs = (
{
glyphname = .notdef;
layers = (
{
layerId = m01;
shapes = (
{
closed = 1;
nodes = (
(465,0,l),
(465,700,l),
(64,700,l),
(64,0,l)
);
},
{
closed = 1;
nodes = (
(134,643,l),
(395,643,l),
(395,57,l),
(134,57,l)
);
}
);
userData = {
assembly = "NPUSHB[ ]	/* 38 values pushed */
0 0 0 2 3 0 2 103 4 1 3 1 1 3 87 4 1 3 3 1 95 0 1 3 1 79 4 4 4 7 4 7 18 17 16 5 6 25
CALL[ ]	/* CallFunction */";
};
width = 529;
}
);
note = .notdef;
},
{
glyphname = A;
kernLeft = A;
kernRight = A;
layers = (
{
anchors = (
{
name = bottom;
pos = (347,0);
},
{
name = ogonek;
pos = (675,0);
},
{
name = top;
pos = (347,700);
}
);
layerId = m01;
shapes = (
{
closed = 1;
nodes = (
(153,0,l),
(209,159,l),
(484,159,l),
(539,0,l),
(675,0,l),
(419,700,l),
(275,700,l),
(19,0,l)
);
},
{
closed = 1;
nodes = (
(346,553,l),
(448,262,l),
(245,262,l)
);
}
);
userData = {
assembly = "NPUSHB[ ]	/* 40 values pushed */
9 1 4 0 1 76 5 1 4 0 2 1 4 2 104 0 0 0 33 77 3 1 1 1 34 1 78 8 8 8 10 8 10 17 17 17 16 6 8 26
CALL[ ]	/* CallFunction */";
};
width = 694;
}
);
note = A;
unicode = 65;
},
{
glyphname = Aogonek;
kernLeft = A;
layers = (
{
anchors = (
{
name = bottom;
pos = (347,0);
},
{
name = ogonek;
pos = (675,0);
},
{
name = top;
pos = (347,700);
}
);
layerId = m01;
shapes = (
{
closed = 1;
nodes = (
(153,0,l),
(209,159,l),
(484,159,l),
(537,7,l),
(496,-19,o),
(460,-74,o),
(460,-106,qs),
(460,-157,o),
(535,-210,o),
(593,-210,qs),
(636,-210,o),
(680,-196,q),
(680,-120,l),
(641,-135,o),
(609,-135,qs),
(585,-135,o),
(557,-113,o),
(557,-94,qs),
(557,-76,o),
(588,-44,o),
(623,-26,qs),
(675,0,l),
(419,700,l),
(275,700,l),
(19,0,l)
);
},
{
closed = 1;
nodes = (
(346,553,l),
(448,262,l),
(245,262,l)
);
}
);
userData = {
assembly = "NPUSHB[ ]	/* 23 values pushed */
26 1 5 0 20 1 4 3 11 1 1 4 12 1 2 1 4 76 2 1 4 1 75
MPPEM[ ]	/* MeasurePixelPerEm */
PUSHB[ ]	/* 1 value pushed */
50
LT[ ]	/* LessThan */
IF[ ]	/* If */
NPUSHB[ ]	/* 30 values pushed */
6 1 5 0 3 4 5 3 104 0 0 0 33 77 0 4 4 34 77 0 1 1 2 97 0 2 2 38 2 78
ELSE[ ]	/* Else */
NPUSHB[ ]	/* 27 values pushed */
6 1 5 0 3 4 5 3 104 0 1 0 2 1 2 101 0 0 0 33 77 0 4 4 34 4 78
EIF[ ]	/* EndIf */
NPUSHB[ ]	/* 14 values pushed */
25 25 25 27 25 27 17 22 35 39 16 7 8 27
CALL[ ]	/* CallFunction */";
};
width = 694;
}
);
note = Aogonek;
unicode = 260;
},
{
glyphname = AE;
kernLeft = AE;
layers = (
{
anchors = (
{
name = bottom;
pos = (466,0);
},
{
name = top;
pos = (546,700);
}
);
layerId = m01;
shapes = (
{
closed = 1;
nodes = (
(158,0,l),
(232,136,l),
(482,136,l),
(482,0,l),
(881,0,l),
(881,109,l),
(610,109,l),
(610,315,l),
(837,315,l),
(837,424,l),
(610,424,l),
(610,591,l),
(881,591,l),
(881,700,l),
(398,700,l),
(19,0,l)
);
},
{
closed = 1;
nodes = (
(482,602,l),
(482,237,l),
(286,237,l)
);
}
);
userData = {
assembly = "NPUSHB[ ]	/* 62 values pushed */
17 1 1 0 1 76 0 2 0 3 8 2 3 103 9 1 8 0 6 4 8 6 103 0 1 1 0 95 0 0 0 33 77 0 4 4 5 95 7 1 5 5 34 5 78 16 16 16 18 16 18 17 17 17 17 17 17 17 16 10 8 30
CALL[ ]	/* CallFunction */";
};
width = 931;
}
);
note = AE;
unicode = 198;
},
{
glyphname = B;
kernRight = B;
layers = (
{
layerId = m01;
shapes = (
{
closed = 1;
nodes = (
(355,0,ls),
(427,0,o),
(531,51,o),
(585,141,o),
(585,197,qs),
(585,257,o),
(510,355,o),
(455,375,q),
(500,394,o),
(553,469,o),
(553,524,qs),
(553,604,o),
(436,700,o),
(329,700,qs),
(64,700,l),
(64,0,l)
);
},
{
closed = 1;
nodes = (
(192,109,l),
(192,311,l),
(341,311,ls),
(397,311,o),
(455,259,o),
(455,210,qs),
(455,109,o),
(343,109,qs)
);
},
{
closed = 1;
nodes = (
(192,420,l),
(192,591,l),
(316,591,ls),
(372,591,o),
(422,548,o),
(422,506,qs),
(422,462,o),
(372,420,o),
(318,420,qs)
);
}
);
userData = {
assembly = "NPUSHB[ ]	/* 57 values pushed */
7 1 2 5 1 76 7 1 5 0 2 3 5 2 103 0 4 4 0 95 0 0 0 33 77 6 1 3 3 1 95 0 1 1 34 1 78 24 24 16 16 24 32 24 31 30 28 16 23 16 22 36 43 32 8 8 25
CALL[ ]	/* CallFunction */";
};
width = 623;
}
);
note = B;
unicode = 66;
},
{
glyphname = C;
kernLeft = C;
kernRight = C;
layers = (
{
anchors = (
{
name = bottom;
pos = (381,0);
},
{
name = top;
pos = (379,700);
}
);
layerId = m01;
shapes = (
{
closed = 1;
nodes = (
(506,-12,o),
(668,110,o),
(688,218,q),
(547,218,l),
(534,163,o),
(448,103,o),
(379,103,qs),
(282,103,o),
(172,234,o),
(172,349,qs),
(172,464,o),
(282,596,o),
(379,596,qs),
(448,596,o),
(534,532,o),
(547,474,q),
(688,474,l),
(668,587,o),
(507,712,o),
(381,712,qs),
(274,712,o),
(120,618,o),
(41,454,o),
(41,349,qs),
(41,244,o),
(122,81,o),
(275,-12,o),
(381,-12,qs)
);
}
);
userData = {
assembly = "NPUSHB[ ]	/* 51 values pushed */
0 1 2 4 2 1 4 128 0 4 3 2 4 3 126 0 2 2 0 97 0 0 0 39 77 0 3 3 5 97 6 1 5 5 40 5 78 0 0 0 27 0 26 18 36 34 18 38 7 8 27
CALL[ ]	/* CallFunction */";
};
width = 729;
}
);
note = C;
unicode = 67;
},
{
glyphname = Ccedilla;
kernLeft = C;
kernRight = C;
layers = (
{
anchors = (
{
name = bottom;
pos = (381,-263);
},
{
name = top;
pos = (379,700);
}
);
layerId = m01;
shapes = (
{
closed = 1;
nodes = (
(420,-263,ls),
(475,-263,o),
(550,-207,o),
(550,-155,qs),
(550,-103,o),
(476,-48,o),
(420,-50,q),
(420,-10,l),
(529,-1,o),
(669,118,o),
(688,218,q),
(547,218,l),
(534,163,o),
(448,103,o),
(379,103,qs),
(282,103,o),
(172,234,o),
(172,349,qs),
(172,464,o),
(282,596,o),
(379,596,qs),
(448,596,o),
(534,532,o),
(547,474,q),
(688,474,l),
(668,587,o),
(507,712,o),
(381,712,qs),
(274,712,o),
(120,618,o),
(41,454,o),
(41,349,qs),
(41,252,o),
(111,95,o),
(246,-1,o),
(340,-10,q),
(340,-118,l),
(401,-118,ls),
(454,-118,o),
(454,-153,qs),
(454,-189,o),
(401,-189,qs),
(289,-189,l),
(289,-263,l)
);
}
);
userData = {
assembly = "PUSHB[ ]	/* 7 values pushed */
35 7 2 7 5 1 76
MPPEM[ ]	/* MeasurePixelPerEm */
PUSHB[ ]	/* 1 value pushed */
9
LT[ ]	/* LessThan */
IF[ ]	/* If */
NPUSHB[ ]	/* 47 values pushed */
0 3 4 6 4 3 6 128 0 6 5 4 6 5 126 0 5 7 7 5 112 0 7 0 1 0 7 1 106 0 0 0 8 0 8 99 0 4 4 2 97 0 2 2 39 4 78
ELSE[ ]	/* Else */
NPUSHB[ ]	/* 48 values pushed */
0 3 4 6 4 3 6 128 0 6 5 4 6 5 126 0 5 7 4 5 7 126 0 7 0 1 0 7 1 106 0 0 0 8 0 8 99 0 4 4 2 97 0 2 2 39 4 78
EIF[ ]	/* EndIf */
NPUSHB[ ]	/* 12 values pushed */
36 20 18 36 34 18 40 34 32 9 8 31
CALL[ ]	/* CallFunction */";
};
width = 729;
}
);
note = Ccedilla;
unicode = 199;
},
{
glyphname = D;
kernRight = D;
layers = (
{
anchors = (
{
name = bottom;
pos = (346,0);
},
{
name = top;
pos = (346,700);
}
);
layerId = m01;
shapes = (
{
closed = 1;
nodes = (
(303,0,ls),
(477,0,o),
(662,181,o),
(662,350,qs),
(662,513,o),
(484,700,o),
(303,700,qs),
(64,700,l),
(64,0,l)
);
},
{
closed = 1;
nodes = (
(192,110,l),
(192,591,l),
(297,591,ls),
(417,591,o),
(531,475,o),
(531,350,qs),
(531,232,o),
(424,110,o),
(297,110,qs)
);
}
);
userData = {
assembly = "NPUSHB[ ]	/* 34 values pushed */
0 2 2 0 95 0 0 0 33 77 4 1 3 3 1 95 0 1 1 34 1 78 9 9 9 17 9 16 37 36 32 5 8 25
CALL[ ]	/* CallFunction */";
};
width = 703;
}
);
note = D;
unicode = 68;
},
{
glyphname = Dcroat;
kernRight = D;
layers = (
{
layerId = m01;
shapes = (
{
closed = 1;
nodes = (
(316,0,ls),
(490,0,o),
(675,181,o),
(675,350,qs),
(675,513,o),
(497,700,o),
(316,700,qs),
(77,700,l),
(77,405,l),
(2,405,l),
(2,295,l),
(77,295,l),
(77,0,l)
);
},
{
closed = 1;
nodes = (
(205,110,l),
(205,295,l),
(382,295,l),
(382,405,l),
(205,405,l),
(205,591,l),
(310,591,ls),
(430,591,o),
(544,475,o),
(544,350,qs),
(544,232,o),
(437,110,o),
(310,110,qs)
);
}
);
userData = {
assembly = "NPUSHB[ ]	/* 48 values pushed */
5 1 1 6 1 0 7 1 0 103 0 4 4 2 95 0 2 2 33 77 8 1 7 7 3 95 0 3 3 34 3 78 13 13 13 25 13 24 17 17 37 36 33 17 16 9 8 29
CALL[ ]	/* CallFunction */";
};
width = 716;
}
);
note = Dcroat;
unicode = 272;
},
{
glyphname = Eth;
kernRight = D;
layers = (
{
layerId = m01;
shapes = (
{
closed = 1;
nodes = (
(316,0,ls),
(490,0,o),
(675,181,o),
(675,350,qs),
(675,513,o),
(497,700,o),
(316,700,qs),
(77,700,l),
(77,405,l),
(2,405,l),
(2,295,l),
(77,295,l),
(77,0,l)
);
},
{
closed = 1;
nodes = (
(205,110,l),
(205,295,l),
(382,295,l),
(382,405,l),
(205,405,l),
(205,591,l),
(310,591,ls),
(430,591,o),
(544,475,o),
(544,350,qs),
(544,232,o),
(437,110,o),
(310,110,qs)
);
}
);
userData = {
assembly = "NPUSHB[ ]	/* 48 values pushed */
5 1 1 6 1 0 7 1 0 103 0 4 4 2 95 0 2 2 33 77 8 1 7 7 3 95 0 3 3 34 3 78 13 13 13 25 13 24 17 17 37 36 33 17 16 9 8 29
CALL[ ]	/* CallFunction */";
};
width = 716;
}
);
note = Eth;
unicode = 208;
},
{
glyphname = E;
kernRight = E;
layers = (
{
anchors = (
{
name = bottom;
pos = (281,0);
},
{
name = ogonek;
pos = (513,0);
},
{
name = top;
pos = (281,700);
}
);
layerId = m01;
shapes = (
{
closed = 1;
nodes = (
(513,0,l),
(513,109,l),
(192,109,l),
(192,315,l),
(467,315,l),
(467,424,l),
(192,424,l),
(192,591,l),
(513,591,l),
(513,700,l),
(64,700,l),
(64,0,l)
);
}
);
userData = {
assembly = "NPUSHB[ ]	/* 38 values pushed */
0 2 0 3 4 2 3 103 0 1 1 0 95 0 0 0 33 77 0 4 4 5 95 0 5 5 34 5 78 17 17 17 17 17 16 6 8 28
CALL[ ]	/* CallFunction */";
};
width = 562;
}
);
note = E;
unicode = 69;
},
{
glyphname = Eogonek;
layers = (
{
anchors = (
{
name = bottom;
pos = (281,0);
},
{
name = ogonek;
pos = (513,0);
},
{
name = top;
pos = (281,700);
}
);
layerId = m01;
shapes = (
{
closed = 1;
nodes = (
(364,0,l),
(298,-44,o),
(298,-106,qs),
(298,-157,o),
(373,-210,o),
(431,-210,qs),
(474,-210,o),
(518,-196,q),
(518,-120,l),
(479,-135,o),
(447,-135,qs),
(423,-135,o),
(395,-113,o),
(395,-94,qs),
(395,-76,o),
(426,-44,o),
(461,-26,qs),
(513,0,l),
(513,109,l),
(192,109,l),
(192,315,l),
(467,315,l),
(467,424,l),
(192,424,l),
(192,591,l),
(513,591,l),
(513,700,l),
(64,700,l),
(64,0,l)
);
}
);
userData = {
assembly = "NPUSHB[ ]	/* 15 values pushed */
19 1 5 7 20 1 6 5 2 76 10 1 7 1 75
MPPEM[ ]	/* MeasurePixelPerEm */
PUSHB[ ]	/* 1 value pushed */
50
LT[ ]	/* LessThan */
IF[ ]	/* If */
NPUSHB[ ]	/* 39 values pushed */
0 2 0 3 4 2 3 103 0 1 1 0 95 0 0 0 33 77 0 4 4 7 95 0 7 7 34 77 0 5 5 6 97 0 6 6 38 6 78
ELSE[ ]	/* Else */
NPUSHB[ ]	/* 36 values pushed */
0 2 0 3 4 2 3 103 0 5 0 6 5 6 101 0 1 1 0 95 0 0 0 33 77 0 4 4 7 95 0 7 7 34 7 78
EIF[ ]	/* EndIf */
NPUSHB[ ]	/* 11 values pushed */
20 35 39 17 17 17 17 16 8 8 30
CALL[ ]	/* CallFunction */";
};
width = 562;
}
);
note = Eogonek;
unicode = 280;
},
{
glyphname = uni018E;
kernRight = uni018E;
layers = (
{
layerId = m01;
shapes = (
{
closed = 1;
nodes = (
(494,0,l),
(494,700,l),
(45,700,l),
(45,591,l),
(366,591,l),
(366,424,l),
(91,424,l),
(91,315,l),
(366,315,l),
(366,109,l),
(45,109,l),
(45,0,l)
);
}
);
userData = {
assembly = "NPUSHB[ ]	/* 38 values pushed */
0 2 0 1 0 2 1 103 0 3 3 4 95 0 4 4 33 77 0 0 0 5 95 0 5 5 34 5 78 17 17 17 17 17 16 6 8 28
CALL[ ]	/* CallFunction */";
};
width = 554;
}
);
note = uni018E;
unicode = (398,477);
},
{
glyphname = uni018F;
kernLeft = uni018F;
kernRight = D;
layers = (
{
layerId = m01;
shapes = (
{
closed = 1;
nodes = (
(479,-12,o),
(555,33,qs),
(632,78,o),
(717,241,o),
(717,348,qs),
(717,458,o),
(674,540,qs),
(631,622,o),
(477,712,o),
(376,712,qs),
(295,712,o),
(227,682,qs),
(161,652,o),
(69,544,o),
(49,474,q),
(190,474,l),
(209,531,o),
(311,596,o),
(378,596,qs),
(435,596,o),
(479,571,qs),
(525,546,o),
(579,451,o),
(582,386,q),
(45,386,l),
(41,359,o),
(41,326,qs),
(41,218,o),
(84,144,qs),
(126,68,o),
(276,-12,o),
(376,-12,qs)
);
},
{
closed = 1;
nodes = (
(315,105,o),
(270,129,qs),
(224,153,o),
(174,236,o),
(173,292,q),
(582,292,l),
(577,231,o),
(549,191,qs),
(521,149,o),
(429,105,o),
(374,105,qs)
);
}
);
userData = {
assembly = "NPUSHB[ ]	/* 60 values pushed */
0 2 1 0 1 2 0 128 0 0 0 5 6 0 5 103 0 1 1 3 97 0 3 3 39 77 8 1 6 6 4 97 7 1 4 4 40 4 78 32 32 0 0 32 42 32 41 37 36 0 31 0 30 36 18 36 22 9 8 26
CALL[ ]	/* CallFunction */";
};
width = 758;
}
);
note = uni018F;
unicode = 399;
},
{
glyphname = F;
kernRight = F;
layers = (
{
layerId = m01;
shapes = (
{
closed = 1;
nodes = (
(192,0,l),
(192,307,l),
(466,307,l),
(466,416,l),
(192,416,l),
(192,591,l),
(505,591,l),
(505,700,l),
(64,700,l),
(64,0,l)
);
}
);
userData = {
assembly = "NPUSHB[ ]	/* 32 values pushed */
0 2 0 3 4 2 3 103 0 1 1 0 95 0 0 0 33 77 0 4 4 34 4 78 17 17 17 17 16 5 8 27
CALL[ ]	/* CallFunction */";
};
width = 532;
}
);
note = F;
unicode = 70;
},
{
glyphname = G;
kernLeft = C;
kernRight = G;
layers = (
{
anchors = (
{
name = bottom;
pos = (383,0);
},
{
name = top;
pos = (383,700);
}
);
layerId = m01;
shapes = (
{
closed = 1;
nodes = (
(447,-12,o),
(550,40,o),
(585,92,q),
(595,0,l),
(713,0,l),
(713,378,l),
(358,378,l),
(358,270,l),
(581,270,l),
(567,190,o),
(469,102,o),
(382,102,qs),
(284,102,o),
(172,230,o),
(172,345,qs),
(172,462,o),
(287,594,o),
(391,594,qs),
(456,594,o),
(541,540,o),
(557,490,q),
(700,490,l),
(676,595,o),
(514,712,o),
(391,712,qs),
(281,712,o),
(123,616,o),
(41,450,o),
(41,346,qs),
(41,240,o),
(123,78,o),
(272,-12,o),
(370,-12,qs)
);
}
);
userData = {
assembly = "PUSHB[ ]	/* 6 values pushed */
29 1 6 3 1 76
MPPEM[ ]	/* MeasurePixelPerEm */
PUSHB[ ]	/* 1 value pushed */
21
LT[ ]	/* LessThan */
IF[ ]	/* If */
NPUSHB[ ]	/* 39 values pushed */
0 1 2 5 2 1 5 128 0 5 0 4 3 5 4 103 0 2 2 0 97 0 0 0 39 77 0 3 3 6 97 8 7 2 6 6 34 6 78
ELSE[ ]	/* Else */
NPUSHB[ ]	/* 43 values pushed */
0 1 2 5 2 1 5 128 0 5 0 4 3 5 4 103 0 2 2 0 97 0 0 0 39 77 0 6 6 34 77 0 3 3 7 97 8 1 7 7 40 7 78
EIF[ ]	/* EndIf */
NPUSHB[ ]	/* 16 values pushed */
0 0 0 32 0 31 17 17 18 36 34 18 38 9 8 29
CALL[ ]	/* CallFunction */";
};
width = 765;
}
);
note = G;
unicode = 71;
},
{
glyphname = H;
kernRight = H;
layers = (
{
layerId = m01;
shapes = (
{
closed = 1;
nodes = (
(192,0,l),
(192,316,l),
(506,316,l),
(506,0,l),
(634,0,l),
(634,700,l),
(506,700,l),
(506,425,l),
(192,425,l),
(192,700,l),
(64,700,l),
(64,0,l)
);
}
);
userData = {
assembly = "NPUSHB[ ]	/* 30 values pushed */
0 1 0 4 3 1 4 103 2 1 0 0 33 77 5 1 3 3 34 3 78 17 17 17 17 17 16 6 8 28
CALL[ ]	/* CallFunction */";
};
width = 698;
}
);
note = H;
unicode = 72;
},
{
glyphname = Hbar;
layers = (
{
layerId = m01;
shapes = (
{
closed = 1;
nodes = (
(193,0,l),
(193,316,l),
(507,316,l),
(507,0,l),
(635,0,l),
(635,493,l),
(675,493,l),
(675,602,l),
(635,602,l),
(635,700,l),
(507,700,l),
(507,602,l),
(193,602,l),
(193,700,l),
(65,700,l),
(65,602,l),
(24,602,l),
(24,493,l),
(65,493,l),
(65,0,l)
);
},
{
closed = 1;
nodes = (
(193,493,l),
(507,493,l),
(507,425,l),
(193,425,l)
);
}
);
userData = {
assembly = "NPUSHB[ ]	/* 56 values pushed */
5 3 2 1 10 6 2 0 11 1 0 103 12 1 11 0 8 7 11 8 103 4 1 2 2 33 77 9 1 7 7 34 7 78 20 20 20 23 20 23 22 21 19 18 17 17 17 17 17 17 17 17 16 13 8 31
CALL[ ]	/* CallFunction */";
};
width = 699;
}
);
note = Hbar;
unicode = 294;
},
{
glyphname = I;
kernRight = I;
layers = (
{
anchors = (
{
name = bottom;
pos = (128,0);
},
{
name = ogonek;
pos = (192,0);
},
{
name = top;
pos = (128,700);
}
);
layerId = m01;
shapes = (
{
closed = 1;
nodes = (
(192,0,l),
(192,700,l),
(64,700,l),
(64,0,l)
);
}
);
userData = {
assembly = "NPUSHB[ ]	/* 16 values pushed */
0 0 0 33 77 0 1 1 34 1 78 17 16 2 8 24
CALL[ ]	/* CallFunction */";
};
width = 256;
}
);
note = I;
unicode = 73;
},
{
glyphname = Iogonek;
layers = (
{
anchors = (
{
name = bottom;
pos = (128,0);
},
{
name = ogonek;
pos = (192,0);
},
{
name = top;
pos = (128,700);
}
);
layerId = m01;
shapes = (
{
closed = 1;
nodes = (
(153,-210,o),
(197,-196,q),
(197,-120,l),
(158,-135,o),
(126,-135,qs),
(102,-135,o),
(74,-113,o),
(74,-94,qs),
(74,-76,o),
(105,-44,o),
(140,-26,qs),
(192,0,l),
(192,700,l),
(64,700,l),
(64,14,l),
(17,-13,o),
(-23,-72,o),
(-23,-106,qs),
(-23,-157,o),
(52,-210,o),
(110,-210,qs)
);
}
);
userData = {
assembly = "NPUSHB[ ]	/* 12 values pushed */
17 8 5 3 1 0 18 1 2 1 2 76
MPPEM[ ]	/* MeasurePixelPerEm */
PUSHB[ ]	/* 1 value pushed */
50
LT[ ]	/* LessThan */
IF[ ]	/* If */
NPUSHB[ ]	/* 17 values pushed */
0 0 0 33 77 0 1 1 2 98 3 1 2 2 38 2 78
ELSE[ ]	/* Else */
NPUSHB[ ]	/* 14 values pushed */
0 1 3 1 2 1 2 102 0 0 0 33 0 78
EIF[ ]	/* EndIf */
NPUSHB[ ]	/* 11 values pushed */
0 0 0 20 0 19 39 22 4 8 24
CALL[ ]	/* CallFunction */";
};
width = 256;
}
);
note = Iogonek;
unicode = 302;
},
{
glyphname = J;
kernLeft = J;
kernRight = J;
layers = (
{
anchors = (
{
name = bottom;
pos = (262,0);
},
{
name = top;
pos = (397,700);
}
);
layerId = m01;
shapes = (
{
closed = 1;
nodes = (
(346,-12,o),
(460,100,o),
(460,202,qs),
(460,700,l),
(332,700,l),
(332,202,ls),
(332,155,o),
(288,102,o),
(244,102,qs),
(197,102,o),
(151,158,o),
(150,209,q),
(22,209,l),
(22,105,o),
(144,-12,o),
(247,-12,qs)
);
}
);
userData = {
assembly = "MPPEM[ ]	/* MeasurePixelPerEm */
PUSHB[ ]	/* 1 value pushed */
11
LT[ ]	/* LessThan */
IF[ ]	/* If */
NPUSHB[ ]	/* 24 values pushed */
0 0 2 1 1 0 114 0 2 2 33 77 0 1 1 3 98 4 1 3 3 40 3 78
ELSE[ ]	/* Else */
NPUSHB[ ]	/* 25 values pushed */
0 0 2 1 2 0 1 128 0 2 2 33 77 0 1 1 3 98 4 1 3 3 40 3 78
EIF[ ]	/* EndIf */
NPUSHB[ ]	/* 12 values pushed */
0 0 0 15 0 14 19 34 18 5 8 25
CALL[ ]	/* CallFunction */";
};
width = 524;
}
);
note = J;
unicode = 74;
},
{
glyphname = K;
kernRight = K;
layers = (
{
anchors = (
{
name = bottom;
pos = (316,0);
},
{
name = top;
pos = (316,700);
}
);
layerId = m01;
shapes = (
{
closed = 1;
nodes = (
(195,0,l),
(195,324,l),
(451,0,l),
(626,0,l),
(325,360,l),
(610,700,l),
(446,700,l),
(195,379,l),
(195,700,l),
(67,700,l),
(67,0,l)
);
}
);
userData = {
assembly = "NPUSHB[ ]	/* 28 values pushed */
8 5 2 3 2 0 1 76 1 1 0 0 33 77 3 1 2 2 34 2 78 18 18 18 16 4 8 26
CALL[ ]	/* CallFunction */";
};
width = 633;
}
);
note = K;
unicode = 75;
},
{
glyphname = L;
kernRight = L;
layers = (
{
anchors = (
{
name = bottom;
pos = (268,0);
},
{
name = top;
pos = (175,700);
},
{
name = topright;
pos = (281,700);
}
);
layerId = m01;
shapes = (
{
closed = 1;
nodes = (
(494,0,l),
(494,109,l),
(192,109,l),
(192,700,l),
(64,700,l),
(64,0,l)
);
}
);
userData = {
assembly = "NPUSHB[ ]	/* 22 values pushed */
0 0 0 33 77 0 1 1 2 96 0 2 2 34 2 78 17 17 16 3 8 25
CALL[ ]	/* CallFunction */";
};
width = 535;
}
);
note = L;
unicode = 76;
},
{
glyphname = Ldot;
kernRight = L;
layers = (
{
layerId = m01;
shapes = (
{
closed = 1;
nodes = (
(494,0,l),
(494,109,l),
(192,109,l),
(192,700,l),
(64,700,l),
(64,0,l)
);
},
{
closed = 1;
nodes = (
(404,267,o),
(452,316,o),
(452,350,qs),
(452,385,o),
(404,433,o),
(369,433,qs),
(334,433,o),
(286,385,o),
(286,350,qs),
(286,315,o),
(334,267,o),
(369,267,qs)
);
}
);
userData = {
assembly = "NPUSHB[ ]	/* 38 values pushed */
0 3 5 1 4 1 3 4 105 0 0 0 33 77 0 1 1 2 96 0 2 2 34 2 78 6 6 6 17 6 16 37 17 17 16 6 8 26
CALL[ ]	/* CallFunction */";
};
width = 535;
}
);
note = Ldot;
unicode = 319;
},
{
glyphname = Lslash;
kernRight = L;
layers = (
{
layerId = m01;
shapes = (
{
closed = 1;
nodes = (
(518,0,l),
(518,109,l),
(216,109,l),
(216,335,l),
(319,370,l),
(319,476,l),
(216,441,l),
(216,700,l),
(88,700,l),
(88,399,l),
(16,374,l),
(16,268,l),
(88,293,l),
(88,0,l)
);
}
);
userData = {
assembly = "NPUSHB[ ]	/* 35 values pushed */
9 8 7 6 3 2 1 0 8 1 0 1 76 0 0 0 33 77 0 1 1 2 96 0 2 2 34 2 78 17 21 20 3 8 25
CALL[ ]	/* CallFunction */";
};
width = 559;
}
);
note = Lslash;
unicode = 321;
},
{
glyphname = M;
kernRight = M;
layers = (
{
layerId = m01;
shapes = (
{
closed = 1;
nodes = (
(192,0,l),
(192,472,l),
(363,89,l),
(464,89,l),
(635,472,l),
(635,0,l),
(763,0,l),
(763,700,l),
(611,700,l),
(415,248,l),
(216,700,l),
(64,700,l),
(64,0,l)
);
}
);
userData = {
assembly = "NPUSHB[ ]	/* 37 values pushed */
10 7 2 3 3 0 1 76 0 3 0 2 0 3 2 128 1 1 0 0 33 77 4 1 2 2 34 2 78 18 18 17 18 16 5 8 27
CALL[ ]	/* CallFunction */";
};
width = 827;
}
);
note = M;
unicode = 77;
},
{
glyphname = N;
kernLeft = N;
kernRight = N;
layers = (
{
anchors = (
{
name = bottom;
pos = (357,0);
},
{
name = top;
pos = (357,700);
}
);
layerId = m01;
shapes = (
{
closed = 1;
nodes = (
(192,0,l),
(192,488,l),
(521,0,l),
(649,0,l),
(649,700,l),
(521,700,l),
(521,211,l),
(192,700,l),
(64,700,l),
(64,0,l)
);
}
);
userData = {
assembly = "NPUSHB[ ]	/* 27 values pushed */
7 2 2 2 0 1 76 1 1 0 0 33 77 3 1 2 2 34 2 78 18 17 18 16 4 8 26
CALL[ ]	/* CallFunction */";
};
width = 713;
}
);
note = N;
unicode = 78;
},
{
glyphname = Eng;
layers = (
{
layerId = m01;
shapes = (
{
closed = 1;
nodes = (
(192,0,l),
(192,488,l),
(521,0,l),
(521,-54,ls),
(521,-85,o),
(492,-111,o),
(460,-111,qs),
(433,-111,l),
(433,-220,l),
(480,-220,ls),
(649,-220,o),
(649,-54,qs),
(649,700,l),
(521,700,l),
(521,211,l),
(192,700,l),
(64,700,l),
(64,0,l)
);
}
);
userData = {
assembly = "NPUSHB[ ]	/* 42 values pushed */
15 2 2 4 0 1 76 14 1 4 1 75 1 1 0 0 33 77 0 4 4 34 77 0 3 3 2 98 0 2 2 38 2 78 21 33 34 18 16 5 8 27
CALL[ ]	/* CallFunction */";
};
width = 713;
}
);
note = Eng;
unicode = 330;
},
{
glyphname = O;
kernLeft = C;
kernRight = D;
layers = (
{
anchors = (
{
name = bottom;
pos = (399,0);
},
{
name = ogonek;
pos = (483,10);
},
{
name = top;
pos = (399,700);
},
{
name = topright;
pos = (777,700);
}
);
layerId = m01;
shapes = (
{
closed = 1;
nodes = (
(493,-12,o),
(658,77,o),
(756,242,o),
(756,350,qs),
(756,458,o),
(658,623,o),
(493,712,o),
(398,712,qs),
(303,712,o),
(139,623,o),
(41,458,o),
(41,350,qs),
(41,242,o),
(139,77,o),
(303,-12,o),
(398,-12,qs)
);
},
{
closed = 1;
nodes = (
(340,104,o),
(237,159,o),
(173,270,o),
(173,350,qs),
(173,430,o),
(237,542,o),
(340,597,o),
(398,597,qs),
(456,597,o),
(560,542,o),
(624,430,o),
(624,350,qs),
(624,270,o),
(560,159,o),
(456,104,o),
(398,104,qs)
);
}
);
userData = {
assembly = "NPUSHB[ ]	/* 41 values pushed */
0 2 2 0 97 0 0 0 39 77 5 1 3 3 1 97 4 1 1 1 40 1 78 16 16 0 0 16 31 16 30 24 22 0 15 0 14 38 6 8 23
CALL[ ]	/* CallFunction */";
};
width = 797;
}
);
note = O;
unicode = 79;
},
{
glyphname = Oslash;
kernLeft = Oslash;
kernRight = Oslash;
layers = (
{
layerId = m01;
shapes = (
{
closed = 1;
nodes = (
(496,-12,o),
(655,81,o),
(741,245,o),
(741,350,qs),
(741,498,o),
(659,595,q),
(750,700,l),
(628,700,l),
(590,656,l),
(504,712,o),
(391,712,qs),
(286,712,o),
(127,619,o),
(41,455,o),
(41,350,qs),
(41,278,o),
(82,155,o),
(120,109,q),
(27,0,l),
(149,0,l),
(189,46,l),
(275,-12,o),
(391,-12,qs)
);
},
{
closed = 1;
nodes = (
(320,103,o),
(267,138,q),
(575,497,l),
(611,436,o),
(611,350,qs),
(611,274,o),
(557,163,o),
(457,103,o),
(391,103,qs)
);
},
{
closed = 1;
nodes = (
(204,207,l),
(171,267,o),
(171,350,qs),
(171,426,o),
(225,537,o),
(325,597,o),
(391,597,qs),
(460,597,o),
(511,564,q)
);
}
);
userData = {
assembly = "MPPEM[ ]	/* MeasurePixelPerEm */
PUSHB[ ]	/* 1 value pushed */
21
LT[ ]	/* LessThan */
IF[ ]	/* If */
NPUSHB[ ]	/* 19 values pushed */
13 1 5 1 40 39 29 28 16 4 6 4 5 1 1 0 4 3 76
ELSE[ ]	/* Else */
NPUSHB[ ]	/* 19 values pushed */
13 1 5 2 40 39 29 28 16 4 6 4 5 1 1 0 4 3 76
EIF[ ]	/* EndIf */
MPPEM[ ]	/* MeasurePixelPerEm */
PUSHB[ ]	/* 1 value pushed */
21
LT[ ]	/* LessThan */
IF[ ]	/* If */
NPUSHB[ ]	/* 25 values pushed */
0 5 5 1 97 2 1 1 1 39 77 7 1 4 4 0 97 6 3 2 0 0 34 0 78
ELSE[ ]	/* Else */
NPUSHB[ ]	/* 33 values pushed */
0 2 2 33 77 0 5 5 1 97 0 1 1 39 77 0 0 0 34 77 7 1 4 4 3 97 6 1 3 3 40 3 78
EIF[ ]	/* EndIf */
NPUSHB[ ]	/* 20 values pushed */
23 23 0 0 34 32 23 31 23 30 0 22 0 21 18 39 18 8 8 25
CALL[ ]	/* CallFunction */";
};
width = 776;
}
);
note = Oslash;
unicode = 216;
},
{
glyphname = OE;
kernLeft = C;
layers = (
{
layerId = m01;
shapes = (
{
closed = 1;
nodes = (
(455,-12,o),
(581,45,o),
(619,96,q),
(619,0,l),
(1046,0,l),
(1046,109,l),
(747,109,l),
(747,315,l),
(1000,315,l),
(1000,424,l),
(747,424,l),
(747,591,l),
(1046,591,l),
(1046,700,l),
(619,700,l),
(619,601,l),
(581,654,o),
(455,712,o),
(385,712,qs),
(286,712,o),
(130,618,o),
(41,453,o),
(41,350,qs),
(41,248,o),
(129,83,o),
(286,-12,o),
(385,-12,qs)
);
},
{
closed = 1;
nodes = (
(334,103,o),
(232,162,o),
(172,274,o),
(172,350,qs),
(172,414,o),
(222,527,o),
(323,597,o),
(395,597,qs),
(457,597,o),
(559,536,o),
(619,424,o),
(619,350,qs),
(619,283,o),
(566,170,o),
(464,103,o),
(395,103,qs)
);
}
);
userData = {
assembly = "MPPEM[ ]	/* MeasurePixelPerEm */
PUSHB[ ]	/* 1 value pushed */
21
LT[ ]	/* LessThan */
IF[ ]	/* If */
NPUSHB[ ]	/* 10 values pushed */
10 1 2 0 23 1 6 5 2 76
ELSE[ ]	/* Else */
MPPEM[ ]	/* MeasurePixelPerEm */
PUSHB[ ]	/* 1 value pushed */
39
LT[ ]	/* LessThan */
IF[ ]	/* If */
NPUSHB[ ]	/* 10 values pushed */
10 1 2 1 23 1 6 5 2 76
ELSE[ ]	/* Else */
NPUSHB[ ]	/* 10 values pushed */
10 1 8 1 23 1 6 9 2 76
EIF[ ]	/* EndIf */
EIF[ ]	/* EndIf */
MPPEM[ ]	/* MeasurePixelPerEm */
PUSHB[ ]	/* 1 value pushed */
21
LT[ ]	/* LessThan */
IF[ ]	/* If */
NPUSHB[ ]	/* 35 values pushed */
0 3 0 4 5 3 4 103 8 1 2 2 0 97 1 1 0 0 39 77 11 9 2 5 5 6 97 10 7 2 6 6 34 6 78
ELSE[ ]	/* Else */
MPPEM[ ]	/* MeasurePixelPerEm */
PUSHB[ ]	/* 1 value pushed */
39
LT[ ]	/* LessThan */
IF[ ]	/* If */
NPUSHB[ ]	/* 56 values pushed */
0 3 0 4 5 3 4 103 8 1 2 2 0 97 0 0 0 39 77 8 1 2 2 1 95 0 1 1 33 77 11 9 2 5 5 6 95 0 6 6 34 77 11 9 2 5 5 7 97 10 1 7 7 40 7 78
ELSE[ ]	/* Else */
NPUSHB[ ]	/* 51 values pushed */
0 3 0 4 5 3 4 103 0 8 8 0 97 0 0 0 39 77 0 2 2 1 95 0 1 1 33 77 0 5 5 6 95 0 6 6 34 77 11 1 9 9 7 97 10 1 7 7 40 7 78
EIF[ ]	/* EndIf */
EIF[ ]	/* EndIf */
NPUSHB[ ]	/* 24 values pushed */
27 27 0 0 27 42 27 41 35 33 0 26 0 25 17 17 17 17 17 19 38 12 8 29
CALL[ ]	/* CallFunction */";
};
width = 1095;
}
);
note = OE;
unicode = 338;
},
{
glyphname = P;
kernRight = P;
layers = (
{
layerId = m01;
shapes = (
{
closed = 1;
nodes = (
(192,0,l),
(192,279,l),
(323,279,ls),
(434,279,o),
(571,391,o),
(571,490,qs),
(571,589,o),
(434,700,o),
(323,700,qs),
(64,700,l),
(64,0,l)
);
},
{
closed = 1;
nodes = (
(192,388,l),
(192,591,l),
(320,591,ls),
(441,591,o),
(441,490,qs),
(441,388,o),
(320,388,qs)
);
}
);
userData = {
assembly = "NPUSHB[ ]	/* 38 values pushed */
5 1 4 0 1 2 4 1 103 0 3 3 0 95 0 0 0 33 77 0 2 2 34 2 78 11 11 11 17 11 16 35 17 36 32 6 8 26
CALL[ ]	/* CallFunction */";
};
width = 599;
}
);
note = P;
unicode = 80;
},
{
glyphname = Thorn;
kernRight = Thorn;
layers = (
{
layerId = m01;
shapes = (
{
closed = 1;
nodes = (
(192,0,l),
(192,136,l),
(323,136,ls),
(409,136,o),
(464,166,qs),
(517,194,o),
(571,290,o),
(571,349,qs),
(571,411,o),
(544,460,qs),
(516,510,o),
(405,565,o),
(323,565,qs),
(192,565,l),
(192,700,l),
(64,700,l),
(64,0,l)
);
},
{
closed = 1;
nodes = (
(192,239,l),
(192,460,l),
(315,460,ls),
(441,460,o),
(441,349,qs),
(441,297,o),
(380,239,o),
(315,239,qs)
);
}
);
userData = {
assembly = "NPUSHB[ ]	/* 42 values pushed */
0 1 0 4 5 1 4 103 6 1 5 0 2 3 5 2 103 0 0 0 33 77 0 3 3 34 3 78 17 17 17 24 17 23 36 17 40 33 16 7 8 27
CALL[ ]	/* CallFunction */";
};
width = 599;
}
);
note = Thorn;
unicode = 222;
},
{
glyphname = Q;
kernLeft = C;
kernRight = Q;
layers = (
{
layerId = m01;
shapes = (
{
closed = 1;
nodes = (
(683,-12,l),
(767,76,l),
(696,143,l),
(756,231,o),
(756,350,qs),
(756,458,o),
(658,623,o),
(493,712,o),
(398,712,qs),
(303,712,o),
(139,623,o),
(41,458,o),
(41,350,qs),
(41,242,o),
(139,77,o),
(303,-12,o),
(398,-12,qs),
(457,-12,o),
(567,23,o),
(613,56,q)
);
},
{
closed = 1;
nodes = (
(173,430,o),
(237,542,o),
(340,597,o),
(398,597,qs),
(456,597,o),
(560,542,o),
(624,430,o),
(624,350,qs),
(624,278,o),
(604,232,q),
(503,331,l),
(419,243,l),
(527,139,l),
(475,104,o),
(398,104,qs),
(340,104,o),
(237,159,o),
(173,270,o),
(173,350,qs)
);
}
);
userData = {
assembly = "NPUSHB[ ]	/* 47 values pushed */
28 27 26 25 16 5 2 3 19 17 2 0 2 2 76 18 1 0 73 0 3 3 1 97 0 1 1 39 77 0 2 2 0 97 0 0 0 40 0 78 41 43 38 33 4 8 26
CALL[ ]	/* CallFunction */";
};
width = 802;
}
);
note = Q;
unicode = 81;
},
{
glyphname = R;
kernRight = R;
layers = (
{
anchors = (
{
name = bottom;
pos = (311,0);
},
{
name = top;
pos = (305,700);
}
);
layerId = m01;
shapes = (
{
closed = 1;
nodes = (
(192,0,l),
(192,295,l),
(270,295,l),
(442,0,l),
(593,0,l),
(398,316,l),
(469,333,o),
(547,425,o),
(547,498,qs),
(547,594,o),
(417,700,o),
(307,700,qs),
(64,700,l),
(64,0,l)
);
},
{
closed = 1;
nodes = (
(192,404,l),
(192,591,l),
(304,591,ls),
(366,591,o),
(417,542,o),
(417,498,qs),
(417,453,o),
(367,404,o),
(304,404,qs)
);
}
);
userData = {
assembly = "NPUSHB[ ]	/* 46 values pushed */
7 1 2 5 1 76 6 1 5 0 2 1 5 2 103 0 4 4 0 95 0 0 0 33 77 3 1 1 1 34 1 78 14 14 14 22 14 21 37 17 17 22 32 7 8 27
CALL[ ]	/* CallFunction */";
};
width = 615;
}
);
note = R;
unicode = 82;
},
{
glyphname = S;
kernLeft = S;
kernRight = S;
layers = (
{
anchors = (
{
name = bottom;
pos = (295,0);
},
{
name = top;
pos = (295,700);
}
);
layerId = m01;
shapes = (
{
closed = 1;
nodes = (
(373,-12,o),
(485,38,o),
(549,131,o),
(549,194,qs),
(549,257,o),
(488,341,o),
(409,384,o),
(359,401,qs),
(298,422,o),
(232,451,o),
(190,492,o),
(190,521,qs),
(190,560,o),
(244,604,o),
(286,604,qs),
(334,604,o),
(393,549,o),
(394,510,q),
(531,510,l),
(530,574,o),
(465,665,o),
(357,712,o),
(291,712,qs),
(224,712,o),
(118,666,o),
(56,576,o),
(56,512,qs),
(56,443,o),
(145,343,o),
(246,310,qs),
(317,287,o),
(387,253,o),
(413,215,o),
(413,185,qs),
(413,144,o),
(353,96,o),
(302,96,qs),
(244,96,o),
(176,161,o),
(174,211,q),
(39,211,l),
(40,139,o),
(110,39,o),
(229,-12,o),
(303,-12,qs)
);
}
);
userData = {
assembly = "NPUSHB[ ]	/* 51 values pushed */
0 3 4 0 4 3 0 128 0 0 1 4 0 1 126 0 4 4 2 97 0 2 2 39 77 0 1 1 5 97 6 1 5 5 40 5 78 0 0 0 44 0 43 34 19 44 34 19 7 8 27
CALL[ ]	/* CallFunction */";
};
width = 589;
}
);
note = S;
unicode = 83;
},
{
glyphname = Scedilla;
kernLeft = S;
kernRight = S;
layers = (
{
anchors = (
{
name = bottom;
pos = (295,-263);
},
{
name = top;
pos = (295,700);
}
);
layerId = m01;
shapes = (
{
closed = 1;
nodes = (
(334,-263,ls),
(389,-263,o),
(464,-207,o),
(464,-155,qs),
(464,-103,o),
(390,-48,o),
(334,-50,q),
(334,-11,l),
(429,-3,o),
(549,107,o),
(549,194,qs),
(549,257,o),
(488,341,o),
(409,384,o),
(359,401,qs),
(298,422,o),
(232,451,o),
(190,492,o),
(190,521,qs),
(190,560,o),
(244,604,o),
(286,604,qs),
(334,604,o),
(393,549,o),
(394,510,q),
(531,510,l),
(530,574,o),
(465,665,o),
(357,712,o),
(291,712,qs),
(224,712,o),
(118,666,o),
(56,576,o),
(56,512,qs),
(56,443,o),
(145,343,o),
(246,310,qs),
(317,287,o),
(387,253,o),
(413,215,o),
(413,185,qs),
(413,144,o),
(353,96,o),
(302,96,qs),
(244,96,o),
(176,161,o),
(174,211,q),
(39,211,l),
(41,116,o),
(159,3,o),
(254,-9,q),
(254,-118,l),
(315,-118,ls),
(368,-118,o),
(368,-153,qs),
(368,-189,o),
(315,-189,qs),
(203,-189,l),
(203,-263,l)
);
}
);
userData = {
assembly = "PUSHB[ ]	/* 7 values pushed */
50 7 2 7 3 1 76
MPPEM[ ]	/* MeasurePixelPerEm */
PUSHB[ ]	/* 1 value pushed */
9
LT[ ]	/* LessThan */
IF[ ]	/* If */
NPUSHB[ ]	/* 47 values pushed */
0 5 6 2 6 5 2 128 0 2 3 6 2 3 126 0 3 7 7 3 112 0 7 0 1 0 7 1 106 0 0 0 8 0 8 99 0 6 6 4 97 0 4 4 39 6 78
ELSE[ ]	/* Else */
NPUSHB[ ]	/* 48 values pushed */
0 5 6 2 6 5 2 128 0 2 3 6 2 3 126 0 3 7 6 3 7 126 0 7 0 1 0 7 1 106 0 0 0 8 0 8 99 0 6 6 4 97 0 4 4 39 6 78
EIF[ ]	/* EndIf */
NPUSHB[ ]	/* 12 values pushed */
36 30 34 19 44 34 20 34 32 9 8 31
CALL[ ]	/* CallFunction */";
};
width = 589;
}
);
note = Scedilla;
unicode = 350;
},
{
glyphname = uni1E9E;
layers = (
{
layerId = m01;
shapes = (
{
closed = 1;
nodes = (
(544,-10,o),
(656,80,o),
(656,159,qs),
(656,222,o),
(584,295,o),
(515,321,qs),
(454,343,o),
(413,369,o),
(413,390,qs),
(413,406,o),
(437,429,o),
(457,442,qs),
(496,468,o),
(538,516,o),
(538,556,qs),
(538,611,o),
(476,690,o),
(369,732,o),
(304,732,qs),
(230,732,o),
(113,680,o),
(46,580,o),
(46,509,qs),
(46,0,l),
(174,0,l),
(174,499,ls),
(174,625,o),
(299,625,qs),
(347,625,o),
(411,584,o),
(411,543,qs),
(411,522,o),
(388,492,o),
(367,476,qs),
(329,450,ls),
(284,419,o),
(284,370,qs),
(284,334,o),
(328,284,o),
(389,255,o),
(438,238,qs),
(486,221,o),
(531,187,o),
(531,151,qs),
(531,118,o),
(488,85,o),
(452,85,qs),
(412,85,o),
(362,133,o),
(357,175,q),
(236,175,l),
(247,84,o),
(365,-10,o),
(454,-10,qs)
);
}
);
userData = {
assembly = "MPPEM[ ]	/* MeasurePixelPerEm */
PUSHB[ ]	/* 1 value pushed */
25
LT[ ]	/* LessThan */
IF[ ]	/* If */
NPUSHB[ ]	/* 31 values pushed */
0 0 2 1 2 0 1 128 0 2 2 4 97 0 4 4 41 77 0 1 1 3 97 6 5 2 3 3 34 3 78
ELSE[ ]	/* Else */
MPPEM[ ]	/* MeasurePixelPerEm */
PUSHB[ ]	/* 1 value pushed */
29
LT[ ]	/* LessThan */
IF[ ]	/* If */
NPUSHB[ ]	/* 35 values pushed */
0 0 2 1 2 0 1 128 0 2 2 4 97 0 4 4 41 77 0 3 3 34 77 0 1 1 5 97 6 1 5 5 40 5 78
ELSE[ ]	/* Else */
NPUSHB[ ]	/* 33 values pushed */
0 0 2 1 2 0 1 128 0 4 0 2 0 4 2 105 0 3 3 34 77 0 1 1 5 97 6 1 5 5 40 5 78
EIF[ ]	/* EndIf */
EIF[ ]	/* EndIf */
NPUSHB[ ]	/* 17 values pushed */
0 0 0 53 0 52 35 33 29 28 26 24 34 18 7 8 24
CALL[ ]	/* CallFunction */";
};
width = 667;
}
);
note = uni1E9E;
unicode = 7838;
},
{
glyphname = T;
kernLeft = T;
kernRight = T;
layers = (
{
anchors = (
{
name = bottom;
pos = (292,0);
},
{
name = top;
pos = (292,700);
}
);
layerId = m01;
shapes = (
{
closed = 1;
nodes = (
(355,0,l),
(355,591,l),
(560,591,l),
(560,700,l),
(23,700,l),
(23,591,l),
(227,591,l),
(227,0,l)
);
}
);
userData = {
assembly = "NPUSHB[ ]	/* 24 values pushed */
2 1 0 0 1 95 0 1 1 33 77 0 3 3 34 3 78 17 17 17 16 4 8 26
CALL[ ]	/* CallFunction */";
};
width = 582;
}
);
note = T;
unicode = 84;
},
{
glyphname = uni0162;
kernLeft = T;
kernRight = T;
layers = (
{
anchors = (
{
name = bottom;
pos = (292,-263);
},
{
name = top;
pos = (292,700);
}
);
layerId = m01;
shapes = (
{
closed = 1;
nodes = (
(251,0,l),
(251,-118,l),
(312,-118,ls),
(365,-118,o),
(365,-153,qs),
(365,-189,o),
(312,-189,qs),
(200,-189,l),
(200,-263,l),
(331,-263,ls),
(386,-263,o),
(461,-207,o),
(461,-155,qs),
(461,-103,o),
(387,-48,o),
(331,-50,q),
(331,0,l),
(355,0,l),
(355,591,l),
(560,591,l),
(560,700,l),
(23,700,l),
(23,591,l),
(227,591,l),
(227,0,l)
);
}
);
userData = {
assembly = "NPUSHB[ ]	/* 45 values pushed */
0 4 0 7 6 4 7 105 0 6 0 5 6 5 99 2 1 0 0 1 95 0 1 1 33 77 8 1 3 3 34 3 78 17 34 33 36 17 17 17 17 16 9 8 31
CALL[ ]	/* CallFunction */";
};
width = 582;
}
);
note = uni0162;
unicode = 354;
},
{
glyphname = U;
kernLeft = U;
kernRight = U;
layers = (
{
anchors = (
{
name = bottom;
pos = (337,0);
},
{
name = ogonek;
pos = (418,10);
},
{
name = top;
pos = (337,700);
},
{
name = topright;
pos = (653,700);
}
);
layerId = m01;
shapes = (
{
closed = 1;
nodes = (
(405,-12,o),
(532,43,o),
(614,169,o),
(614,268,qs),
(614,700,l),
(486,700,l),
(486,267,ls),
(486,187,o),
(408,105,o),
(337,105,qs),
(266,105,o),
(188,187,o),
(188,267,qs),
(188,700,l),
(60,700,l),
(60,268,ls),
(60,190,o),
(119,63,o),
(242,-12,o),
(334,-12,qs)
);
}
);
userData = {
assembly = "NPUSHB[ ]	/* 30 values pushed */
2 1 0 0 33 77 0 1 1 3 97 4 1 3 3 40 3 78 0 0 0 19 0 18 19 35 20 5 8 25
CALL[ ]	/* CallFunction */";
};
width = 673;
}
);
note = U;
unicode = 85;
},
{
glyphname = Uogonek;
kernLeft = U;
kernRight = U;
layers = (
{
anchors = (
{
name = bottom;
pos = (337,0);
},
{
name = ogonek;
pos = (418,10);
},
{
name = top;
pos = (337,700);
},
{
name = topright;
pos = (653,700);
}
);
layerId = m01;
shapes = (
{
closed = 1;
nodes = (
(379,-200,o),
(423,-186,q),
(423,-110,l),
(384,-125,o),
(352,-125,qs),
(328,-125,o),
(300,-103,o),
(300,-84,qs),
(300,-66,o),
(331,-34,o),
(366,-16,qs),
(380,-9,l),
(479,4,o),
(614,139,o),
(614,268,qs),
(614,700,l),
(486,700,l),
(486,267,ls),
(486,187,o),
(408,105,o),
(337,105,qs),
(266,105,o),
(188,187,o),
(188,267,qs),
(188,700,l),
(60,700,l),
(60,268,ls),
(60,167,o),
(157,20,o),
(252,-3,q),
(203,-42,o),
(203,-96,qs),
(203,-147,o),
(278,-200,o),
(336,-200,qs)
);
}
);
userData = {
assembly = "NPUSHB[ ]	/* 11 values pushed */
31 4 2 3 1 32 1 4 3 2 76
MPPEM[ ]	/* MeasurePixelPerEm */
PUSHB[ ]	/* 1 value pushed */
25
LT[ ]	/* LessThan */
IF[ ]	/* If */
NPUSHB[ ]	/* 26 values pushed */
0 1 0 3 0 1 3 128 2 1 0 0 33 77 0 3 3 4 98 5 1 4 4 38 4 78
ELSE[ ]	/* Else */
NPUSHB[ ]	/* 23 values pushed */
0 1 0 3 0 1 3 128 0 3 5 1 4 3 4 102 2 1 0 0 33 0 78
EIF[ ]	/* EndIf */
NPUSHB[ ]	/* 13 values pushed */
0 0 0 34 0 33 42 19 35 24 6 8 26
CALL[ ]	/* CallFunction */";
};
width = 673;
}
);
note = Uogonek;
unicode = 370;
},
{
glyphname = V;
kernLeft = V;
kernRight = V;
layers = (
{
layerId = m01;
shapes = (
{
closed = 1;
nodes = (
(424,0,l),
(680,700,l),
(545,700,l),
(346,131,l),
(148,700,l),
(11,700,l),
(267,0,l)
);
}
);
userData = {
assembly = "NPUSHB[ ]	/* 24 values pushed */
2 1 2 0 1 76 1 1 0 0 33 77 0 2 2 34 2 78 17 18 16 3 8 25
CALL[ ]	/* CallFunction */";
};
width = 691;
}
);
note = V;
unicode = 86;
},
{
glyphname = W;
kernLeft = W;
kernRight = W;
layers = (
{
anchors = (
{
name = bottom;
pos = (519,0);
},
{
name = top;
pos = (519,700);
}
);
layerId = m01;
shapes = (
{
closed = 1;
nodes = (
(520,531,l),
(657,0,l),
(818,0,l),
(1012,700,l),
(872,700,l),
(737,153,l),
(596,700,l),
(447,700,l),
(302,153,l),
(168,700,l),
(29,700,l),
(218,0,l),
(378,0,l)
);
}
);
userData = {
assembly = "NPUSHB[ ]	/* 36 values pushed */
11 6 3 3 3 0 1 76 2 1 2 0 0 33 77 5 4 2 3 3 34 3 78 0 0 0 12 0 12 17 18 18 17 6 8 26
CALL[ ]	/* CallFunction */";
};
width = 1041;
}
);
note = W;
unicode = 87;
},
{
glyphname = X;
kernLeft = X;
kernRight = X;
layers = (
{
layerId = m01;
shapes = (
{
closed = 1;
nodes = (
(174,0,l),
(323,264,l),
(480,0,l),
(625,0,l),
(398,381,l),
(585,700,l),
(440,700,l),
(327,497,l),
(206,700,l),
(61,700,l),
(251,381,l),
(29,0,l)
);
}
);
userData = {
assembly = "NPUSHB[ ]	/* 28 values pushed */
9 6 3 3 2 0 1 76 1 1 0 0 33 77 3 1 2 2 34 2 78 18 18 18 17 4 8 26
CALL[ ]	/* CallFunction */";
};
width = 651;
}
);
note = X;
unicode = 88;
},
{
glyphname = Y;
kernLeft = Y;
kernRight = Y;
layers = (
{
anchors = (
{
name = bottom;
pos = (309,0);
},
{
name = top;
pos = (309,700);
}
);
layerId = m01;
shapes = (
{
closed = 1;
nodes = (
(373,0,l),
(373,281,l),
(607,700,l),
(464,700,l),
(310,409,l),
(155,700,l),
(10,700,l),
(245,281,l),
(245,0,l)
);
}
);
userData = {
assembly = "NPUSHB[ ]	/* 26 values pushed */
6 3 0 3 2 0 1 76 1 1 0 0 33 77 0 2 2 34 2 78 18 18 17 3 8 25
CALL[ ]	/* CallFunction */";
};
width = 617;
}
);
note = Y;
unicode = 89;
},
{
glyphname = Z;
kernRight = Z;
layers = (
{
anchors = (
{
name = bottom;
pos = (279,0);
},
{
name = top;
pos = (279,700);
}
);
layerId = m01;
shapes = (
{
closed = 1;
nodes = (
(515,0,l),
(515,109,l),
(190,109,l),
(513,602,l),
(513,700,l),
(46,700,l),
(46,592,l),
(364,592,l),
(43,98,l),
(43,0,l)
);
}
);
userData = {
assembly = "NPUSHB[ ]	/* 38 values pushed */
5 1 0 1 0 1 3 2 2 76 0 0 0 1 95 0 1 1 33 77 0 2 2 3 95 0 3 3 34 3 78 17 18 17 17 4 8 26
CALL[ ]	/* CallFunction */";
};
width = 558;
}
);
note = Z;
unicode = 90;
},
{
glyphname = uniA78B;
layers = (
{
layerId = m01;
shapes = (
{
closed = 1;
nodes = (
(182,210,l),
(197,700,l),
(60,700,l),
(74,210,l)
);
}
);
userData = {
assembly = "NPUSHB[ ]	/* 16 values pushed */
0 1 1 0 95 0 0 0 33 1 78 17 16 2 8 24
CALL[ ]	/* CallFunction */";
};
width = 257;
}
);
note = uniA78B;
unicode = 42891;
},
{
glyphname = a;
kernLeft = a;
kernRight = a;
layers = (
{
anchors = (
{
name = bottom;
pos = (238,0);
},
{
name = ogonek;
pos = (538,0);
},
{
name = top;
pos = (266,496);
}
);
layerId = m01;
shapes = (
{
closed = 1;
nodes = (
(255,-12,o),
(341,33,o),
(366,69,q),
(368,0,l),
(485,0,l),
(485,296,ls),
(485,393,o),
(370,508,o),
(268,508,qs),
(210,508,o),
(109,466,o),
(44,387,o),
(40,334,q),
(168,334,l),
(174,368,o),
(226,401,o),
(264,401,qs),
(308,401,o),
(356,346,o),
(356,296,q),
(238,296,ls),
(144,296,o),
(30,216,o),
(30,137,qs),
(30,92,o),
(76,24,o),
(154,-12,o),
(200,-12,qs)
);
},
{
closed = 1;
nodes = (
(201,91,o),
(160,122,o),
(160,151,qs),
(160,183,o),
(209,214,o),
(246,214,qs),
(356,214,l),
(356,210,ls),
(356,158,o),
(285,91,o),
(234,91,qs)
);
}
);
userData = {
assembly = "PUSHB[ ]	/* 6 values pushed */
24 1 4 7 1 76
MPPEM[ ]	/* MeasurePixelPerEm */
PUSHB[ ]	/* 1 value pushed */
21
LT[ ]	/* LessThan */
IF[ ]	/* If */
NPUSHB[ ]	/* 40 values pushed */
0 2 1 0 1 2 0 128 0 0 0 6 7 0 6 103 0 1 1 3 97 0 3 3 42 77 9 1 7 7 4 97 8 5 2 4 4 34 4 78
ELSE[ ]	/* Else */
NPUSHB[ ]	/* 44 values pushed */
0 2 1 0 1 2 0 128 0 0 0 6 7 0 6 103 0 1 1 3 97 0 3 3 42 77 0 4 4 34 77 9 1 7 7 5 97 8 1 5 5 40 5 78
EIF[ ]	/* EndIf */
NPUSHB[ ]	/* 22 values pushed */
28 28 0 0 28 38 28 37 33 30 0 27 0 26 19 35 18 34 37 10 8 27
CALL[ ]	/* CallFunction */";
};
width = 522;
}
);
note = a;
unicode = 97;
},
{
glyphname = aogonek;
kernLeft = a;
kernRight = aacute;
layers = (
{
anchors = (
{
name = bottom;
pos = (238,0);
},
{
name = ogonek;
pos = (538,0);
},
{
name = top;
pos = (266,496);
}
);
layerId = m01;
shapes = (
{
closed = 1;
nodes = (
(255,-12,o),
(341,33,o),
(366,69,q),
(368,0,l),
(389,0,l),
(323,-44,o),
(323,-106,qs),
(323,-157,o),
(398,-210,o),
(456,-210,qs),
(499,-210,o),
(543,-196,q),
(543,-120,l),
(504,-135,o),
(472,-135,qs),
(448,-135,o),
(420,-113,o),
(420,-94,qs),
(420,-76,o),
(451,-44,o),
(486,-26,qs),
(538,0,l),
(509,60,l),
(485,50,l),
(485,296,ls),
(485,393,o),
(370,508,o),
(268,508,qs),
(210,508,o),
(109,466,o),
(44,387,o),
(40,334,q),
(168,334,l),
(174,368,o),
(226,401,o),
(264,401,qs),
(308,401,o),
(356,346,o),
(356,296,q),
(238,296,ls),
(144,296,o),
(30,216,o),
(30,137,qs),
(30,92,o),
(76,24,o),
(154,-12,o),
(200,-12,qs)
);
},
{
closed = 1;
nodes = (
(201,91,o),
(160,122,o),
(160,151,qs),
(160,183,o),
(209,214,o),
(246,214,qs),
(356,214,l),
(356,210,ls),
(356,158,o),
(285,91,o),
(234,91,qs)
);
}
);
userData = {
assembly = "MPPEM[ ]	/* MeasurePixelPerEm */
PUSHB[ ]	/* 1 value pushed */
21
LT[ ]	/* LessThan */
IF[ ]	/* If */
NPUSHB[ ]	/* 21 values pushed */
43 23 22 3 6 9 33 1 4 6 34 1 5 4 3 76 24 1 6 1 75
ELSE[ ]	/* Else */
NPUSHB[ ]	/* 21 values pushed */
43 23 22 3 6 9 33 1 4 7 34 1 5 4 3 76 24 1 6 1 75
EIF[ ]	/* EndIf */
MPPEM[ ]	/* MeasurePixelPerEm */
PUSHB[ ]	/* 1 value pushed */
21
LT[ ]	/* LessThan */
IF[ ]	/* If */
NPUSHB[ ]	/* 50 values pushed */
0 2 1 0 1 2 0 128 0 0 0 8 9 0 8 103 0 1 1 3 97 0 3 3 42 77 11 1 9 9 6 97 10 7 2 6 6 34 77 0 4 4 5 97 0 5 5 38 5 78
ELSE[ ]	/* Else */
MPPEM[ ]	/* MeasurePixelPerEm */
PUSHB[ ]	/* 1 value pushed */
50
LT[ ]	/* LessThan */
IF[ ]	/* If */
NPUSHB[ ]	/* 54 values pushed */
0 2 1 0 1 2 0 128 0 0 0 8 9 0 8 103 0 1 1 3 97 0 3 3 42 77 0 6 6 34 77 11 1 9 9 7 97 10 1 7 7 40 77 0 4 4 5 97 0 5 5 38 5 78
ELSE[ ]	/* Else */
NPUSHB[ ]	/* 51 values pushed */
0 2 1 0 1 2 0 128 0 0 0 8 9 0 8 103 0 4 0 5 4 5 101 0 1 1 3 97 0 3 3 42 77 0 6 6 34 77 11 1 9 9 7 97 10 1 7 7 40 7 78
EIF[ ]	/* EndIf */
EIF[ ]	/* EndIf */
NPUSHB[ ]	/* 24 values pushed */
47 47 0 0 47 57 47 56 52 49 0 46 0 45 20 35 43 35 18 34 37 12 8 29
CALL[ ]	/* CallFunction */";
};
width = 522;
}
);
note = aogonek;
unicode = 261;
},
{
glyphname = ae;
kernLeft = a;
kernRight = ae;
layers = (
{
anchors = (
{
name = bottom;
pos = (451,0);
},
{
name = top;
pos = (451,496);
}
);
layerId = m01;
shapes = (
{
closed = 1;
nodes = (
(357,-12,o),
(426,90,q),
(460,42,o),
(567,-12,o),
(632,-12,qs),
(719,-12,o),
(842,82,o),
(864,154,q),
(735,154,l),
(720,126,o),
(667,93,o),
(631,93,qs),
(581,93,o),
(511,158,o),
(506,216,q),
(876,216,l),
(878,264,ls),
(878,336,o),
(814,447,o),
(701,508,o),
(632,508,qs),
(581,508,o),
(489,470,o),
(456,436,q),
(428,471,o),
(336,508,o),
(277,508,qs),
(221,508,o),
(122,468,o),
(57,389,o),
(52,333,q),
(177,333,l),
(184,367,o),
(239,404,o),
(277,404,qs),
(321,404,o),
(375,351,o),
(375,296,q),
(242,296,ls),
(138,296,o),
(30,211,o),
(30,139,qs),
(30,70,o),
(141,-12,o),
(225,-12,qs)
);
},
{
closed = 1;
nodes = (
(208,88,o),
(165,123,o),
(165,152,qs),
(165,181,o),
(211,216,o),
(258,216,qs),
(370,216,l),
(370,207,l),
(361,156,o),
(292,88,o),
(243,88,qs)
);
},
{
closed = 1;
nodes = (
(508,296,l),
(517,348,o),
(586,404,o),
(633,404,qs),
(681,404,o),
(745,346,o),
(749,296,q)
);
}
);
userData = {
assembly = "MPPEM[ ]	/* MeasurePixelPerEm */
PUSHB[ ]	/* 1 value pushed */
46
LT[ ]	/* LessThan */
IF[ ]	/* If */
NPUSHB[ ]	/* 14 values pushed */
20 1 1 3 47 1 7 5 42 1 8 6 3 76
ELSE[ ]	/* Else */
NPUSHB[ ]	/* 14 values pushed */
20 1 1 3 47 1 7 5 42 1 11 6 3 76
EIF[ ]	/* EndIf */
MPPEM[ ]	/* MeasurePixelPerEm */
PUSHB[ ]	/* 1 value pushed */
46
LT[ ]	/* LessThan */
IF[ ]	/* If */
NPUSHB[ ]	/* 53 values pushed */
0 2 1 0 1 2 0 128 0 7 5 6 5 7 6 128 13 1 0 10 1 5 7 0 5 103 12 1 1 1 3 97 4 1 3 3 42 77 15 11 2 6 6 8 97 14 9 2 8 8 40 8 78
ELSE[ ]	/* Else */
NPUSHB[ ]	/* 64 values pushed */
0 2 1 0 1 2 0 128 0 7 5 6 5 7 6 128 13 1 0 10 1 5 7 0 5 103 12 1 1 1 3 97 4 1 3 3 42 77 0 6 6 8 97 14 9 2 8 8 40 77 15 1 11 11 8 97 14 9 2 8 8 40 8 78
EIF[ ]	/* EndIf */
NPUSHB[ ]	/* 30 values pushed */
45 45 0 0 62 61 59 57 45 55 45 54 50 48 0 44 0 43 34 18 34 20 36 35 18 34 36 16 8 31
CALL[ ]	/* CallFunction */";
};
width = 901;
}
);
note = ae;
unicode = 230;
},
{
glyphname = b;
kernLeft = b;
kernRight = b;
layers = (
{
layerId = m01;
shapes = (
{
closed = 1;
nodes = (
(408,-12,o),
(512,58,o),
(569,178,o),
(569,250,qs),
(569,322,o),
(513,440,o),
(408,508,o),
(339,508,qs),
(287,508,o),
(199,466,o),
(172,426,q),
(172,700,l),
(45,700,l),
(45,0,l),
(173,0,l),
(173,68,l),
(201,28,o),
(287,-12,o),
(339,-12,qs)
);
},
{
closed = 1;
nodes = (
(249,100,o),
(173,183,o),
(173,248,qs),
(173,313,o),
(247,396,o),
(305,396,qs),
(361,396,o),
(439,317,o),
(439,250,qs),
(439,187,o),
(364,100,o),
(305,100,qs)
);
}
);
userData = {
assembly = "NPUSHB[ ]	/* 10 values pushed */
7 1 4 2 2 1 0 5 2 76
MPPEM[ ]	/* MeasurePixelPerEm */
PUSHB[ ]	/* 1 value pushed */
21
LT[ ]	/* LessThan */
IF[ ]	/* If */
NPUSHB[ ]	/* 29 values pushed */
0 1 1 33 77 0 4 4 2 97 0 2 2 42 77 7 1 5 5 0 97 6 3 2 0 0 34 0 78
ELSE[ ]	/* Else */
NPUSHB[ ]	/* 33 values pushed */
0 1 1 33 77 0 4 4 2 97 0 2 2 42 77 0 0 0 34 77 7 1 5 5 3 97 6 1 3 3 40 3 78
EIF[ ]	/* EndIf */
NPUSHB[ ]	/* 20 values pushed */
19 19 0 0 19 30 19 29 25 23 0 18 0 17 35 17 19 8 8 25
CALL[ ]	/* CallFunction */";
};
width = 598;
}
);
note = b;
unicode = 98;
},
{
glyphname = c;
kernLeft = c;
kernRight = c;
layers = (
{
anchors = (
{
name = bottom;
pos = (278,0);
},
{
name = top;
pos = (276,496);
}
);
layerId = m01;
shapes = (
{
closed = 1;
nodes = (
(368,-12,o),
(495,82,o),
(515,166,q),
(378,166,l),
(354,97,o),
(277,97,qs),
(219,97,o),
(159,182,o),
(159,248,qs),
(159,314,o),
(219,400,o),
(277,400,qs),
(316,400,o),
(368,361,o),
(378,330,q),
(515,330,l),
(494,417,o),
(369,508,o),
(278,508,qs),
(203,508,o),
(90,441,o),
(29,323,o),
(29,248,qs),
(29,172,o),
(91,54,o),
(204,-12,o),
(278,-12,qs)
);
}
);
userData = {
assembly = "NPUSHB[ ]	/* 51 values pushed */
0 1 2 4 2 1 4 128 0 4 3 2 4 3 126 0 2 2 0 97 0 0 0 42 77 0 3 3 5 97 6 1 5 5 40 5 78 0 0 0 26 0 25 17 36 34 18 38 7 8 27
CALL[ ]	/* CallFunction */";
};
width = 544;
}
);
note = c;
unicode = 99;
},
{
glyphname = ccedilla;
layers = (
{
anchors = (
{
name = bottom;
pos = (278,-263);
},
{
name = top;
pos = (276,496);
}
);
layerId = m01;
shapes = (
{
closed = 1;
nodes = (
(315,-263,ls),
(370,-263,o),
(445,-207,o),
(445,-155,qs),
(445,-103,o),
(371,-48,o),
(315,-50,q),
(315,-10,l),
(391,-1,o),
(497,91,o),
(515,166,q),
(378,166,l),
(354,97,o),
(277,97,qs),
(219,97,o),
(159,182,o),
(159,248,qs),
(159,314,o),
(219,400,o),
(277,400,qs),
(316,400,o),
(368,361,o),
(378,330,q),
(515,330,l),
(494,417,o),
(369,508,o),
(278,508,qs),
(203,508,o),
(90,441,o),
(29,323,o),
(29,248,qs),
(29,145,o),
(141,5,o),
(235,-9,q),
(235,-118,l),
(296,-118,ls),
(349,-118,o),
(349,-153,qs),
(349,-189,o),
(296,-189,qs),
(184,-189,l),
(184,-263,l)
);
}
);
userData = {
assembly = "PUSHB[ ]	/* 7 values pushed */
33 7 2 7 5 1 76
MPPEM[ ]	/* MeasurePixelPerEm */
PUSHB[ ]	/* 1 value pushed */
9
LT[ ]	/* LessThan */
IF[ ]	/* If */
NPUSHB[ ]	/* 47 values pushed */
0 3 4 6 4 3 6 128 0 6 5 4 6 5 126 0 5 7 7 5 112 0 7 0 1 0 7 1 106 0 0 0 8 0 8 99 0 4 4 2 97 0 2 2 42 4 78
ELSE[ ]	/* Else */
NPUSHB[ ]	/* 48 values pushed */
0 3 4 6 4 3 6 128 0 6 5 4 6 5 126 0 5 7 4 5 7 126 0 7 0 1 0 7 1 106 0 0 0 8 0 8 99 0 4 4 2 97 0 2 2 42 4 78
EIF[ ]	/* EndIf */
NPUSHB[ ]	/* 12 values pushed */
36 20 17 36 34 18 39 34 32 9 8 31
CALL[ ]	/* CallFunction */";
};
width = 544;
}
);
note = ccedilla;
unicode = 231;
},
{
glyphname = d;
kernLeft = c;
layers = (
{
anchors = (
{
name = bottom;
pos = (299,0);
},
{
name = top;
pos = (299,992);
},
{
name = topright;
pos = (578,992);
}
);
layerId = m01;
shapes = (
{
closed = 1;
nodes = (
(310,-12,o),
(400,31,o),
(424,71,q),
(424,0,l),
(553,0,l),
(553,700,l),
(424,700,l),
(424,430,l),
(394,467,o),
(307,508,o),
(259,508,qs),
(190,508,o),
(86,439,o),
(29,322,o),
(29,250,qs),
(29,177,o),
(85,58,o),
(189,-12,o),
(259,-12,qs)
);
},
{
closed = 1;
nodes = (
(235,100,o),
(159,186,o),
(159,250,qs),
(159,314,o),
(233,396,o),
(291,396,qs),
(323,396,o),
(385,365,o),
(425,298,o),
(425,248,qs),
(425,183,o),
(351,100,o),
(292,100,qs)
);
}
);
userData = {
assembly = "NPUSHB[ ]	/* 10 values pushed */
10 1 4 0 15 1 2 5 2 76
MPPEM[ ]	/* MeasurePixelPerEm */
PUSHB[ ]	/* 1 value pushed */
21
LT[ ]	/* LessThan */
IF[ ]	/* If */
NPUSHB[ ]	/* 29 values pushed */
0 1 1 33 77 0 4 4 0 97 0 0 0 42 77 7 1 5 5 2 97 6 3 2 2 2 34 2 78
ELSE[ ]	/* Else */
NPUSHB[ ]	/* 33 values pushed */
0 1 1 33 77 0 4 4 0 97 0 0 0 42 77 0 2 2 34 77 7 1 5 5 3 97 6 1 3 3 40 3 78
EIF[ ]	/* EndIf */
NPUSHB[ ]	/* 20 values pushed */
19 19 0 0 19 31 19 30 26 24 0 18 0 17 17 19 38 8 8 25
CALL[ ]	/* CallFunction */";
};
width = 598;
}
);
note = d;
unicode = 100;
},
{
glyphname = dcroat;
kernLeft = c;
layers = (
{
layerId = m01;
shapes = (
{
closed = 1;
nodes = (
(310,-12,o),
(400,31,o),
(424,71,q),
(424,0,l),
(553,0,l),
(553,558,l),
(592,558,l),
(592,648,l),
(553,648,l),
(553,700,l),
(424,700,l),
(424,648,l),
(269,648,l),
(269,558,l),
(424,558,l),
(424,430,l),
(394,467,o),
(307,508,o),
(259,508,qs),
(190,508,o),
(86,439,o),
(29,322,o),
(29,250,qs),
(29,177,o),
(85,58,o),
(189,-12,o),
(259,-12,qs)
);
},
{
closed = 1;
nodes = (
(159,314,o),
(233,396,o),
(291,396,qs),
(323,396,o),
(385,365,o),
(425,298,o),
(425,248,qs),
(425,183,o),
(351,100,o),
(292,100,qs),
(235,100,o),
(159,186,o),
(159,250,qs)
);
}
);
userData = {
assembly = "NPUSHB[ ]	/* 10 values pushed */
10 1 9 0 23 1 6 8 2 76
MPPEM[ ]	/* MeasurePixelPerEm */
PUSHB[ ]	/* 1 value pushed */
21
LT[ ]	/* LessThan */
IF[ ]	/* If */
NPUSHB[ ]	/* 38 values pushed */
4 1 2 5 1 1 0 2 1 103 0 3 3 33 77 0 9 9 0 97 0 0 0 42 77 0 8 8 6 97 10 7 2 6 6 34 6 78
ELSE[ ]	/* Else */
NPUSHB[ ]	/* 42 values pushed */
4 1 2 5 1 1 0 2 1 103 0 3 3 33 77 0 9 9 0 97 0 0 0 42 77 0 6 6 34 77 0 8 8 7 97 10 1 7 7 40 7 78
EIF[ ]	/* EndIf */
NPUSHB[ ]	/* 20 values pushed */
0 0 37 35 30 28 0 26 0 25 17 17 17 17 17 19 38 11 8 29
CALL[ ]	/* CallFunction */";
};
width = 598;
}
);
note = dcroat;
unicode = 273;
},
{
glyphname = eth;
kernLeft = c;
layers = (
{
layerId = m01;
shapes = (
{
closed = 1;
nodes = (
(377,-12,o),
(439,25,qs),
(503,63,o),
(576,199,o),
(576,289,qs),
(576,370,o),
(520,536,o),
(465,609,q),
(535,632,l),
(535,709,l),
(413,669,l),
(380,700,l),
(259,700,l),
(296,668,o),
(321,639,q),
(244,614,l),
(244,537,l),
(370,578,l),
(412,515,o),
(434,456,q),
(371,503,o),
(290,503,qs),
(216,503,o),
(157,470,qs),
(97,436,o),
(29,319,o),
(29,246,qs),
(29,174,o),
(64,115,qs),
(99,56,o),
(222,-12,o),
(299,-12,qs)
);
},
{
closed = 1;
nodes = (
(242,99,o),
(161,185,o),
(161,249,qs),
(161,313,o),
(240,395,o),
(302,395,qs),
(337,395,o),
(403,364,o),
(446,297,o),
(446,247,qs),
(446,182,o),
(367,99,o),
(303,99,qs)
);
}
);
userData = {
assembly = "NPUSHB[ ]	/* 67 values pushed */
23 22 20 16 15 14 13 7 0 1 11 1 3 0 2 76 21 1 1 74 0 1 1 33 77 0 3 3 0 97 0 0 0 42 77 6 1 4 4 2 97 5 1 2 2 40 2 78 32 32 0 0 32 44 32 43 39 37 0 31 0 30 24 40 7 8 24
CALL[ ]	/* CallFunction */";
};
width = 605;
}
);
note = eth;
unicode = 240;
},
{
glyphname = e;
kernLeft = c;
kernRight = ae;
layers = (
{
anchors = (
{
name = bottom;
pos = (277,0);
},
{
name = ogonek;
pos = (388,10);
},
{
name = top;
pos = (277,496);
}
);
layerId = m01;
shapes = (
{
closed = 1;
nodes = (
(373,-12,o),
(494,82,o),
(517,154,q),
(380,154,l),
(350,93,o),
(279,93,qs),
(228,93,o),
(163,157,o),
(158,210,q),
(526,210,l),
(530,230,o),
(530,259,qs),
(530,331,o),
(467,445,o),
(355,508,o),
(282,508,qs),
(207,508,o),
(92,443,o),
(29,326,o),
(29,248,qs),
(29,173,o),
(91,55,o),
(206,-12,o),
(282,-12,qs)
);
},
{
closed = 1;
nodes = (
(159,295,l),
(167,349,o),
(233,403,o),
(278,403,qs),
(328,403,o),
(397,344,o),
(398,295,q)
);
}
);
userData = {
assembly = "NPUSHB[ ]	/* 55 values pushed */
0 3 1 2 1 3 2 128 0 6 0 1 3 6 1 103 0 5 5 0 97 0 0 0 42 77 0 2 2 4 97 7 1 4 4 40 4 78 0 0 30 29 27 25 0 23 0 22 17 34 21 38 8 8 26
CALL[ ]	/* CallFunction */";
};
width = 553;
}
);
note = e;
unicode = 101;
},
{
glyphname = eogonek;
kernLeft = c;
kernRight = ae;
layers = (
{
anchors = (
{
name = bottom;
pos = (277,0);
},
{
name = ogonek;
pos = (388,10);
},
{
name = top;
pos = (277,496);
}
);
layerId = m01;
shapes = (
{
closed = 1;
nodes = (
(159,295,l),
(167,349,o),
(233,403,o),
(278,403,qs),
(328,403,o),
(397,344,o),
(398,295,q)
);
},
{
closed = 1;
nodes = (
(349,-200,o),
(393,-186,q),
(393,-110,l),
(354,-125,o),
(322,-125,qs),
(298,-125,o),
(270,-103,o),
(270,-84,qs),
(270,-66,o),
(301,-34,o),
(336,-16,qs),
(377,4,l),
(430,24,o),
(501,104,o),
(517,154,q),
(380,154,l),
(350,93,o),
(279,93,qs),
(228,93,o),
(163,157,o),
(158,210,q),
(526,210,l),
(530,230,o),
(530,259,qs),
(530,331,o),
(467,445,o),
(355,508,o),
(282,508,qs),
(207,508,o),
(92,443,o),
(29,326,o),
(29,248,qs),
(29,151,o),
(130,14,o),
(219,-5,q),
(173,-44,o),
(173,-96,qs),
(173,-147,o),
(248,-200,o),
(306,-200,qs)
);
}
);
userData = {
assembly = "NPUSHB[ ]	/* 11 values pushed */
43 11 2 6 4 44 1 7 6 2 76
MPPEM[ ]	/* MeasurePixelPerEm */
PUSHB[ ]	/* 1 value pushed */
25
LT[ ]	/* LessThan */
IF[ ]	/* If */
NPUSHB[ ]	/* 45 values pushed */
0 5 3 4 3 5 4 128 0 4 6 3 4 6 126 0 1 0 3 5 1 3 103 0 0 0 2 97 0 2 2 42 77 0 6 6 7 98 8 1 7 7 38 7 78
ELSE[ ]	/* Else */
NPUSHB[ ]	/* 42 values pushed */
0 5 3 4 3 5 4 128 0 4 6 3 4 6 126 0 1 0 3 5 1 3 103 0 6 8 1 7 6 7 102 0 0 0 2 97 0 2 2 42 0 78
EIF[ ]	/* EndIf */
NPUSHB[ ]	/* 16 values pushed */
7 7 7 46 7 45 41 17 34 21 43 18 33 9 8 29
CALL[ ]	/* CallFunction */";
};
width = 553;
}
);
note = eogonek;
unicode = 281;
},
{
glyphname = uni0259;
kernLeft = c;
kernRight = b;
layers = (
{
layerId = m01;
shapes = (
{
closed = 1;
nodes = (
(346,-12,o),
(461,53,o),
(524,170,o),
(524,248,qs),
(524,323,o),
(462,441,o),
(347,508,o),
(271,508,qs),
(180,508,o),
(59,414,o),
(36,342,q),
(173,342,l),
(203,403,o),
(274,403,qs),
(325,403,o),
(390,339,o),
(395,286,q),
(27,286,l),
(23,266,o),
(23,237,qs),
(23,165,o),
(86,51,o),
(198,-12,o),
(271,-12,qs)
);
},
{
closed = 1;
nodes = (
(225,93,o),
(156,152,o),
(155,201,q),
(394,201,l),
(386,147,o),
(320,93,o),
(275,93,qs)
);
}
);
userData = {
assembly = "NPUSHB[ ]	/* 60 values pushed */
0 2 1 0 1 2 0 128 0 0 0 5 6 0 5 103 0 1 1 3 97 0 3 3 42 77 8 1 6 6 4 97 7 1 4 4 40 4 78 24 24 0 0 24 30 24 29 27 26 0 23 0 22 34 17 34 21 9 8 26
CALL[ ]	/* CallFunction */";
};
width = 553;
}
);
note = uni0259;
unicode = 601;
},
{
glyphname = f;
kernLeft = f;
kernRight = f;
layers = (
{
layerId = m01;
shapes = (
{
closed = 1;
nodes = (
(186,0,l),
(186,389,l),
(275,389,l),
(275,496,l),
(186,496,l),
(186,534,ls),
(186,565,o),
(214,591,o),
(247,591,qs),
(269,591,l),
(269,700,l),
(227,700,ls),
(58,700,o),
(58,534,qs),
(58,496,l),
(0,496,l),
(0,389,l),
(58,389,l),
(58,0,l)
);
}
);
userData = {
assembly = "NPUSHB[ ]	/* 38 values pushed */
0 3 3 2 97 0 2 2 33 77 5 1 0 0 1 95 4 1 1 1 36 77 0 6 6 34 6 78 17 17 19 33 34 17 16 7 8 29
CALL[ ]	/* CallFunction */";
};
width = 309;
}
);
note = f;
unicode = 102;
},
{
glyphname = g;
kernLeft = g;
kernRight = g;
layers = (
{
anchors = (
{
name = bottom;
pos = (264,-310);
},
{
name = top;
pos = (253,496);
}
);
layerId = m01;
shapes = (
{
closed = 1;
nodes = (
(329,-232,o),
(436,-191,o),
(497,-114,o),
(497,-63,qs),
(497,16,o),
(400,94,o),
(308,94,qs),
(217,94,ls),
(180,94,o),
(144,115,o),
(144,138,qs),
(144,149,o),
(156,168,o),
(166,173,q),
(201,154,o),
(253,154,qs),
(310,154,o),
(403,199,o),
(456,280,o),
(456,331,qs),
(456,357,o),
(441,400,q),
(510,400,l),
(510,496,l),
(332,496,l),
(296,508,o),
(253,508,qs),
(163,508,o),
(50,411,o),
(50,331,qs),
(50,299,o),
(74,240,o),
(96,217,q),
(66,200,o),
(34,147,o),
(34,115,qs),
(34,54,o),
(86,24,q),
(55,4,o),
(25,-46,o),
(25,-81,qs),
(25,-159,o),
(155,-232,o),
(264,-232,qs)
);
},
{
closed = 1;
nodes = (
(210,-132,o),
(142,-102,o),
(142,-70,qs),
(142,-41,o),
(185,-11,o),
(225,-11,qs),
(297,-11,ls),
(379,-11,o),
(379,-70,qs),
(379,-100,o),
(315,-132,o),
(264,-132,qs)
);
},
{
closed = 1;
nodes = (
(213,254,o),
(167,296,o),
(167,331,qs),
(167,364,o),
(214,408,o),
(252,408,qs),
(290,408,o),
(339,364,o),
(339,331,qs),
(339,297,o),
(290,254,o),
(252,254,qs)
);
}
);
userData = {
assembly = "NPUSHB[ ]	/* 11 values pushed */
29 10 2 3 9 5 1 6 4 2 76
MPPEM[ ]	/* MeasurePixelPerEm */
PUSHB[ ]	/* 1 value pushed */
21
LT[ ]	/* LessThan */
IF[ ]	/* If */
NPUSHB[ ]	/* 44 values pushed */
12 1 9 0 3 4 9 3 105 8 1 2 2 0 97 1 1 0 0 42 77 0 4 4 6 95 0 6 6 34 77 11 1 7 7 5 97 10 1 5 5 38 5 78
ELSE[ ]	/* Else */
MPPEM[ ]	/* MeasurePixelPerEm */
PUSHB[ ]	/* 1 value pushed */
29
LT[ ]	/* LessThan */
IF[ ]	/* If */
NPUSHB[ ]	/* 54 values pushed */
12 1 9 0 3 4 9 3 105 8 1 2 2 0 97 0 0 0 42 77 8 1 2 2 1 95 0 1 1 36 77 0 4 4 6 95 0 6 6 34 77 11 1 7 7 5 97 10 1 5 5 38 5 78
ELSE[ ]	/* Else */
MPPEM[ ]	/* MeasurePixelPerEm */
PUSHB[ ]	/* 1 value pushed */
41
LT[ ]	/* LessThan */
IF[ ]	/* If */
NPUSHB[ ]	/* 52 values pushed */
12 1 9 0 3 4 9 3 105 0 8 8 0 97 0 0 0 42 77 0 2 2 1 95 0 1 1 36 77 0 4 4 6 95 0 6 6 34 77 11 1 7 7 5 97 10 1 5 5 38 5 78
ELSE[ ]	/* Else */
MPPEM[ ]	/* MeasurePixelPerEm */
PUSHB[ ]	/* 1 value pushed */
45
LT[ ]	/* LessThan */
IF[ ]	/* If */
NPUSHB[ ]	/* 49 values pushed */
12 1 9 0 3 4 9 3 105 11 1 7 10 1 5 7 5 101 0 8 8 0 97 0 0 0 42 77 0 2 2 1 95 0 1 1 36 77 0 4 4 6 95 0 6 6 34 6 78
ELSE[ ]	/* Else */
NPUSHB[ ]	/* 47 values pushed */
12 1 9 0 3 4 9 3 105 0 4 0 6 7 4 6 103 11 1 7 10 1 5 7 5 101 0 8 8 0 97 0 0 0 42 77 0 2 2 1 95 0 1 1 36 2 78
EIF[ ]	/* EndIf */
EIF[ ]	/* EndIf */
EIF[ ]	/* EndIf */
EIF[ ]	/* EndIf */
NPUSHB[ ]	/* 30 values pushed */
56 56 44 44 0 0 56 67 56 66 62 60 44 55 44 54 50 47 0 43 0 42 54 37 17 17 47 13 8 27
CALL[ ]	/* CallFunction */";
};
width = 527;
}
);
note = g;
unicode = 103;
},
{
glyphname = h;
kernLeft = b;
kernRight = a;
layers = (
{
layerId = m01;
shapes = (
{
closed = 1;
nodes = (
(172,0,l),
(172,275,ls),
(172,332,o),
(232,400,o),
(286,400,qs),
(340,400,o),
(398,332,o),
(398,275,qs),
(398,0,l),
(525,0,l),
(525,292,ls),
(525,394,o),
(417,508,o),
(329,508,qs),
(282,508,o),
(196,472,o),
(172,438,q),
(172,700,l),
(45,700,l),
(45,0,l)
);
}
);
userData = {
assembly = "NPUSHB[ ]	/* 36 values pushed */
2 1 3 1 1 76 0 0 0 33 77 0 3 3 1 97 0 1 1 42 77 4 1 2 2 34 2 78 19 35 19 35 16 5 8 27
CALL[ ]	/* CallFunction */";
};
width = 562;
}
);
note = h;
unicode = 104;
},
{
glyphname = hbar;
layers = (
{
layerId = m01;
shapes = (
{
closed = 1;
nodes = (
(172,0,l),
(172,275,ls),
(172,332,o),
(232,400,o),
(286,400,qs),
(340,400,o),
(398,332,o),
(398,275,qs),
(398,0,l),
(525,0,l),
(525,292,ls),
(525,394,o),
(417,508,o),
(329,508,qs),
(282,508,o),
(196,472,o),
(172,438,q),
(172,558,l),
(329,558,l),
(329,648,l),
(172,648,l),
(172,700,l),
(45,700,l),
(45,648,l),
(6,648,l),
(6,558,l),
(45,558,l),
(45,0,l)
);
}
);
userData = {
assembly = "NPUSHB[ ]	/* 50 values pushed */
10 1 7 5 1 76 3 1 1 4 1 0 5 1 0 103 0 2 2 33 77 0 7 7 5 97 0 5 5 42 77 8 1 6 6 34 6 78 19 35 19 35 17 17 17 17 16 9 8 31
CALL[ ]	/* CallFunction */";
};
width = 562;
}
);
note = hbar;
unicode = 295;
},
{
glyphname = i;
kernLeft = i;
kernRight = i;
layers = (
{
anchors = (
{
name = bottom;
pos = (114,0);
}
);
layerId = m01;
shapes = (
{
closed = 1;
nodes = (
(149,560,o),
(197,608,o),
(197,643,qs),
(197,678,o),
(149,726,o),
(114,726,qs),
(80,726,o),
(31,678,o),
(31,643,qs),
(31,609,o),
(80,560,o),
(114,560,qs)
);
},
{
closed = 1;
nodes = (
(178,0,l),
(178,496,l),
(50,496,l),
(50,0,l)
);
}
);
userData = {
assembly = "MPPEM[ ]	/* MeasurePixelPerEm */
PUSHB[ ]	/* 1 value pushed */
29
LT[ ]	/* LessThan */
IF[ ]	/* If */
NPUSHB[ ]	/* 22 values pushed */
4 1 1 1 0 97 0 0 0 41 77 0 2 2 36 77 0 3 3 34 3 78
ELSE[ ]	/* Else */
MPPEM[ ]	/* MeasurePixelPerEm */
PUSHB[ ]	/* 1 value pushed */
35
LT[ ]	/* LessThan */
IF[ ]	/* If */
NPUSHB[ ]	/* 22 values pushed */
4 1 1 1 0 97 0 0 0 39 77 0 2 2 36 77 0 3 3 34 3 78
ELSE[ ]	/* Else */
NPUSHB[ ]	/* 20 values pushed */
0 0 4 1 1 2 0 1 105 0 2 2 36 77 0 3 3 34 3 78
EIF[ ]	/* EndIf */
EIF[ ]	/* EndIf */
NPUSHB[ ]	/* 14 values pushed */
0 0 15 14 13 12 0 11 0 10 36 5 8 23
CALL[ ]	/* CallFunction */";
};
width = 227;
}
);
note = i;
unicode = 105;
},
{
glyphname = dotlessi;
kernLeft = dotlessi;
layers = (
{
anchors = (
{
name = bottom;
pos = (110,0);
},
{
name = ogonek;
pos = (173,0);
},
{
name = top;
pos = (110,496);
}
);
layerId = m01;
shapes = (
{
closed = 1;
nodes = (
(173,0,l),
(173,496,l),
(45,496,l),
(45,0,l)
);
}
);
userData = {
assembly = "NPUSHB[ ]	/* 16 values pushed */
0 0 0 36 77 0 1 1 34 1 78 17 16 2 8 24
CALL[ ]	/* CallFunction */";
};
width = 219;
}
);
note = dotlessi;
unicode = 305;
},
{
glyphname = iogonek;
kernLeft = dotlessi;
layers = (
{
anchors = (
{
name = bottom;
pos = (110,0);
},
{
name = ogonek;
pos = (173,0);
},
{
name = top;
pos = (110,726);
}
);
layerId = m01;
shapes = (
{
closed = 1;
nodes = (
(145,560,o),
(193,608,o),
(193,643,qs),
(193,678,o),
(145,726,o),
(110,726,qs),
(75,726,o),
(27,678,o),
(27,643,qs),
(27,608,o),
(75,560,o),
(110,560,qs)
);
},
{
closed = 1;
nodes = (
(134,-210,o),
(178,-196,q),
(178,-120,l),
(139,-135,o),
(107,-135,qs),
(83,-135,o),
(55,-113,o),
(55,-94,qs),
(55,-76,o),
(86,-44,o),
(121,-26,qs),
(173,0,l),
(173,496,l),
(45,496,l),
(45,14,l),
(-2,-13,o),
(-42,-72,o),
(-42,-106,qs),
(-42,-157,o),
(33,-210,o),
(91,-210,qs)
);
}
);
userData = {
assembly = "NPUSHB[ ]	/* 12 values pushed */
29 20 17 3 3 2 30 1 4 3 2 76
MPPEM[ ]	/* MeasurePixelPerEm */
PUSHB[ ]	/* 1 value pushed */
29
LT[ ]	/* LessThan */
IF[ ]	/* If */
NPUSHB[ ]	/* 28 values pushed */
5 1 1 1 0 97 0 0 0 41 77 0 2 2 36 77 0 3 3 4 98 6 1 4 4 38 4 78
ELSE[ ]	/* Else */
MPPEM[ ]	/* MeasurePixelPerEm */
PUSHB[ ]	/* 1 value pushed */
35
LT[ ]	/* LessThan */
IF[ ]	/* If */
NPUSHB[ ]	/* 28 values pushed */
5 1 1 1 0 97 0 0 0 39 77 0 2 2 36 77 0 3 3 4 98 6 1 4 4 38 4 78
ELSE[ ]	/* Else */
MPPEM[ ]	/* MeasurePixelPerEm */
PUSHB[ ]	/* 1 value pushed */
50
LT[ ]	/* LessThan */
IF[ ]	/* If */
NPUSHB[ ]	/* 26 values pushed */
0 0 5 1 1 2 0 1 105 0 2 2 36 77 0 3 3 4 98 6 1 4 4 38 4 78
ELSE[ ]	/* Else */
NPUSHB[ ]	/* 23 values pushed */
0 0 5 1 1 2 0 1 105 0 3 6 1 4 3 4 102 0 2 2 36 2 78
EIF[ ]	/* EndIf */
EIF[ ]	/* EndIf */
EIF[ ]	/* EndIf */
NPUSHB[ ]	/* 20 values pushed */
12 12 0 0 12 32 12 31 28 26 19 18 0 11 0 10 36 7 8 23
CALL[ ]	/* CallFunction */";
};
width = 219;
}
);
note = iogonek;
unicode = 303;
},
{
glyphname = j;
kernLeft = j;
layers = (
{
layerId = m01;
shapes = (
{
closed = 1;
nodes = (
(10,-220,ls),
(179,-220,o),
(179,-54,qs),
(179,496,l),
(51,496,l),
(51,-54,ls),
(51,-85,o),
(22,-111,o),
(-10,-111,qs),
(-37,-111,l),
(-37,-220,l)
);
},
{
closed = 1;
nodes = (
(151,560,o),
(199,609,o),
(199,643,qs),
(199,678,o),
(151,726,o),
(116,726,qs),
(81,726,o),
(33,678,o),
(33,643,qs),
(33,608,o),
(81,560,o),
(116,560,qs)
);
}
);
userData = {
assembly = "MPPEM[ ]	/* MeasurePixelPerEm */
PUSHB[ ]	/* 1 value pushed */
29
LT[ ]	/* LessThan */
IF[ ]	/* If */
NPUSHB[ ]	/* 27 values pushed */
5 1 4 4 3 97 0 3 3 41 77 0 1 1 36 77 0 0 0 2 98 0 2 2 38 2 78
ELSE[ ]	/* Else */
MPPEM[ ]	/* MeasurePixelPerEm */
PUSHB[ ]	/* 1 value pushed */
35
LT[ ]	/* LessThan */
IF[ ]	/* If */
NPUSHB[ ]	/* 27 values pushed */
5 1 4 4 3 97 0 3 3 39 77 0 1 1 36 77 0 0 0 2 98 0 2 2 38 2 78
ELSE[ ]	/* Else */
NPUSHB[ ]	/* 25 values pushed */
0 3 5 1 4 1 3 4 105 0 1 1 36 77 0 0 0 2 98 0 2 2 38 2 78
EIF[ ]	/* EndIf */
EIF[ ]	/* EndIf */
NPUSHB[ ]	/* 13 values pushed */
11 11 11 22 11 21 37 34 19 32 6 8 26
CALL[ ]	/* CallFunction */";
};
width = 228;
}
);
note = j;
unicode = 106;
},
{
glyphname = uni0237;
layers = (
{
anchors = (
{
name = bottom;
pos = (114,-310);
},
{
name = top;
pos = (114,496);
}
);
layerId = m01;
shapes = (
{
closed = 1;
nodes = (
(10,-220,ls),
(179,-220,o),
(179,-54,qs),
(179,496,l),
(51,496,l),
(51,-54,ls),
(51,-85,o),
(22,-111,o),
(-10,-111,qs),
(-37,-111,l),
(-37,-220,l)
);
}
);
userData = {
assembly = "NPUSHB[ ]	/* 22 values pushed */
0 1 1 36 77 0 0 0 2 98 0 2 2 38 2 78 34 19 32 3 8 25
CALL[ ]	/* CallFunction */";
};
width = 228;
}
);
note = uni0237;
unicode = 567;
},
{
glyphname = k;
kernLeft = b;
kernRight = k;
layers = (
{
anchors = (
{
name = bottom;
pos = (262,0);
},
{
name = top;
pos = (262,992);
}
);
layerId = m01;
shapes = (
{
closed = 1;
nodes = (
(173,0,l),
(173,211,l),
(341,0,l),
(506,0,l),
(285,247,l),
(503,496,l),
(338,496,l),
(173,286,l),
(173,700,l),
(45,700,l),
(45,0,l)
);
}
);
userData = {
assembly = "NPUSHB[ ]	/* 32 values pushed */
8 5 2 3 2 1 1 76 0 0 0 33 77 0 1 1 36 77 3 1 2 2 34 2 78 18 18 18 16 4 8 26
CALL[ ]	/* CallFunction */";
};
width = 523;
}
);
note = k;
unicode = 107;
},
{
glyphname = l;
kernLeft = b;
kernRight = l;
layers = (
{
anchors = (
{
name = bottom;
pos = (110,0);
},
{
name = top;
pos = (110,700);
},
{
name = topright;
pos = (202,992);
}
);
layerId = m01;
shapes = (
{
closed = 1;
nodes = (
(173,0,l),
(173,700,l),
(45,700,l),
(45,0,l)
);
}
);
userData = {
assembly = "NPUSHB[ ]	/* 16 values pushed */
0 0 0 33 77 0 1 1 34 1 78 17 16 2 8 24
CALL[ ]	/* CallFunction */";
};
width = 219;
}
);
note = l;
unicode = 108;
},
{
glyphname = ldot;
kernLeft = b;
layers = (
{
layerId = m01;
shapes = (
{
closed = 1;
nodes = (
(178,0,l),
(178,700,l),
(50,700,l),
(50,0,l)
);
},
{
closed = 1;
nodes = (
(314,304,o),
(350,339,o),
(350,365,qs),
(350,391,o),
(314,428,o),
(288,428,qs),
(262,428,o),
(226,391,o),
(226,365,qs),
(226,339,o),
(262,304,o),
(288,304,qs)
);
}
);
userData = {
assembly = "NPUSHB[ ]	/* 32 values pushed */
0 2 4 1 3 1 2 3 105 0 0 0 33 77 0 1 1 34 1 78 4 4 4 15 4 14 37 17 16 5 8 25
CALL[ ]	/* CallFunction */";
};
width = 354;
}
);
note = ldot;
unicode = 320;
},
{
glyphname = lslash;
kernLeft = b;
kernRight = lslash;
layers = (
{
layerId = m01;
shapes = (
{
closed = 1;
nodes = (
(212,0,l),
(212,362,l),
(282,386,l),
(282,493,l),
(212,468,l),
(212,700,l),
(84,700,l),
(84,424,l),
(15,400,l),
(15,293,l),
(84,317,l),
(84,0,l)
);
}
);
userData = {
assembly = "NPUSHB[ ]	/* 29 values pushed */
9 8 7 6 3 2 1 0 8 1 0 1 76 0 0 0 33 77 0 1 1 34 1 78 21 20 2 8 24
CALL[ ]	/* CallFunction */";
};
width = 317;
}
);
note = lslash;
unicode = 322;
},
{
glyphname = m;
kernLeft = dotlessi;
kernRight = a;
layers = (
{
layerId = m01;
shapes = (
{
closed = 1;
nodes = (
(172,0,l),
(172,275,ls),
(172,337,o),
(235,397,o),
(284,397,qs),
(336,397,o),
(394,332,o),
(394,275,qs),
(394,0,l),
(521,0,l),
(521,275,ls),
(521,332,o),
(578,397,o),
(632,397,qs),
(686,397,o),
(742,332,o),
(742,275,qs),
(742,0,l),
(869,0,l),
(869,293,ls),
(869,397,o),
(755,508,o),
(665,508,qs),
(612,508,o),
(523,457,o),
(498,411,q),
(472,459,o),
(376,508,o),
(318,508,qs),
(273,508,o),
(196,473,o),
(172,439,q),
(172,496,l),
(45,496,l),
(45,0,l)
);
}
);
userData = {
assembly = "PUSHB[ ]	/* 7 values pushed */
8 2 2 4 0 1 76
MPPEM[ ]	/* MeasurePixelPerEm */
PUSHB[ ]	/* 1 value pushed */
21
LT[ ]	/* LessThan */
IF[ ]	/* If */
NPUSHB[ ]	/* 21 values pushed */
6 1 4 4 0 97 2 1 2 0 0 36 77 7 5 2 3 3 34 3 78
ELSE[ ]	/* Else */
NPUSHB[ ]	/* 25 values pushed */
0 0 0 36 77 6 1 4 4 1 97 2 1 1 1 42 77 7 5 2 3 3 34 3 78
EIF[ ]	/* EndIf */
NPUSHB[ ]	/* 11 values pushed */
19 35 19 35 19 36 35 16 8 8 30
CALL[ ]	/* CallFunction */";
};
width = 906;
}
);
note = m;
unicode = 109;
},
{
glyphname = n;
kernLeft = dotlessi;
kernRight = a;
layers = (
{
anchors = (
{
name = bottom;
pos = (289,0);
},
{
name = top;
pos = (286,496);
}
);
layerId = m01;
shapes = (
{
closed = 1;
nodes = (
(172,0,l),
(172,275,ls),
(172,332,o),
(232,400,o),
(286,400,qs),
(340,400,o),
(398,332,o),
(398,275,qs),
(398,0,l),
(525,0,l),
(525,292,ls),
(525,394,o),
(417,508,o),
(329,508,qs),
(282,508,o),
(196,472,o),
(172,438,q),
(172,496,l),
(45,496,l),
(45,0,l)
);
}
);
userData = {
assembly = "PUSHB[ ]	/* 6 values pushed */
2 1 3 0 1 76
MPPEM[ ]	/* MeasurePixelPerEm */
PUSHB[ ]	/* 1 value pushed */
21
LT[ ]	/* LessThan */
IF[ ]	/* If */
NPUSHB[ ]	/* 18 values pushed */
0 3 3 0 97 1 1 0 0 36 77 4 1 2 2 34 2 78
ELSE[ ]	/* Else */
NPUSHB[ ]	/* 22 values pushed */
0 0 0 36 77 0 3 3 1 97 0 1 1 42 77 4 1 2 2 34 2 78
EIF[ ]	/* EndIf */
PUSHB[ ]	/* 8 values pushed */
19 35 19 35 16 5 8 27
CALL[ ]	/* CallFunction */";
};
width = 562;
}
);
note = n;
unicode = 110;
},
{
glyphname = eng;
kernLeft = dotlessi;
kernRight = a;
layers = (
{
layerId = m01;
shapes = (
{
closed = 1;
nodes = (
(356,-220,ls),
(525,-220,o),
(525,-54,qs),
(525,292,ls),
(525,394,o),
(417,508,o),
(329,508,qs),
(282,508,o),
(196,472,o),
(172,438,q),
(172,496,l),
(45,496,l),
(45,0,l),
(172,0,l),
(172,275,ls),
(172,332,o),
(232,400,o),
(286,400,qs),
(340,400,o),
(398,332,o),
(398,275,qs),
(398,-54,ls),
(398,-85,o),
(369,-111,o),
(337,-111,qs),
(309,-111,l),
(309,-220,l)
);
}
);
userData = {
assembly = "PUSHB[ ]	/* 6 values pushed */
16 1 1 3 1 76
MPPEM[ ]	/* MeasurePixelPerEm */
PUSHB[ ]	/* 1 value pushed */
21
LT[ ]	/* LessThan */
IF[ ]	/* If */
NPUSHB[ ]	/* 27 values pushed */
0 1 1 3 97 4 1 3 3 36 77 0 2 2 34 77 0 0 0 5 97 0 5 5 38 5 78
ELSE[ ]	/* Else */
NPUSHB[ ]	/* 31 values pushed */
0 3 3 36 77 0 1 1 4 97 0 4 4 42 77 0 2 2 34 77 0 0 0 5 97 0 5 5 38 5 78
EIF[ ]	/* EndIf */
NPUSHB[ ]	/* 9 values pushed */
36 35 17 19 37 32 6 8 28
CALL[ ]	/* CallFunction */";
};
width = 562;
}
);
note = eng;
unicode = 331;
},
{
glyphname = o;
kernLeft = c;
kernRight = b;
layers = (
{
anchors = (
{
name = bottom;
pos = (291,0);
},
{
name = ogonek;
pos = (401,10);
},
{
name = top;
pos = (291,496);
},
{
name = topright;
pos = (559,496);
}
);
layerId = m01;
shapes = (
{
closed = 1;
nodes = (
(364,-12,o),
(485,55,o),
(553,173,o),
(553,248,qs),
(553,325,o),
(485,443,o),
(365,508,o),
(291,508,qs),
(218,508,o),
(99,445,o),
(29,327,o),
(29,248,qs),
(29,172,o),
(95,53,o),
(212,-12,o),
(287,-12,qs)
);
},
{
closed = 1;
nodes = (
(233,99,o),
(158,182,o),
(158,248,qs),
(158,313,o),
(231,397,o),
(289,397,qs),
(345,397,o),
(422,318,o),
(422,250,qs),
(422,187,o),
(347,99,o),
(289,99,qs)
);
}
);
userData = {
assembly = "NPUSHB[ ]	/* 41 values pushed */
0 2 2 0 97 0 0 0 42 77 5 1 3 3 1 97 4 1 1 1 40 1 78 16 16 0 0 16 27 16 26 22 20 0 15 0 14 38 6 8 23
CALL[ ]	/* CallFunction */";
};
width = 582;
}
);
note = o;
unicode = 111;
},
{
glyphname = oslash;
layers = (
{
layerId = m01;
shapes = (
{
closed = 1;
nodes = (
(364,-12,o),
(485,55,o),
(553,173,o),
(553,248,qs),
(553,350,o),
(494,420,q),
(561,496,l),
(459,496,l),
(436,469,l),
(372,508,o),
(291,508,qs),
(218,508,o),
(99,445,o),
(29,327,o),
(29,248,qs),
(29,144,o),
(87,75,q),
(21,0,l),
(123,0,l),
(145,25,l),
(205,-12,o),
(287,-12,qs)
);
},
{
closed = 1;
nodes = (
(254,99,o),
(226,116,q),
(407,322,l),
(422,292,o),
(422,250,qs),
(422,187,o),
(347,99,o),
(289,99,qs)
);
},
{
closed = 1;
nodes = (
(174,173,l),
(158,208,o),
(158,248,qs),
(158,313,o),
(231,397,o),
(289,397,qs),
(326,397,o),
(356,379,q)
);
}
);
userData = {
assembly = "MPPEM[ ]	/* MeasurePixelPerEm */
PUSHB[ ]	/* 1 value pushed */
21
LT[ ]	/* LessThan */
IF[ ]	/* If */
NPUSHB[ ]	/* 19 values pushed */
15 12 2 5 1 37 36 27 26 4 4 5 4 1 2 0 4 3 76
ELSE[ ]	/* Else */
NPUSHB[ ]	/* 19 values pushed */
15 12 2 5 2 37 36 27 26 4 4 5 4 1 2 0 4 3 76
EIF[ ]	/* EndIf */
MPPEM[ ]	/* MeasurePixelPerEm */
PUSHB[ ]	/* 1 value pushed */
21
LT[ ]	/* LessThan */
IF[ ]	/* If */
NPUSHB[ ]	/* 25 values pushed */
0 5 5 1 97 2 1 1 1 42 77 7 1 4 4 0 97 6 3 2 0 0 34 0 78
ELSE[ ]	/* Else */
NPUSHB[ ]	/* 33 values pushed */
0 2 2 36 77 0 5 5 1 97 0 1 1 42 77 0 0 0 34 77 7 1 4 4 3 97 6 1 3 3 40 3 78
EIF[ ]	/* EndIf */
NPUSHB[ ]	/* 20 values pushed */
22 22 0 0 32 30 22 29 22 28 0 21 0 20 18 38 18 8 8 25
CALL[ ]	/* CallFunction */";
};
width = 582;
}
);
note = oslash;
unicode = 248;
},
{
glyphname = oe;
kernLeft = c;
kernRight = ae;
layers = (
{
layerId = m01;
shapes = (
{
closed = 1;
nodes = (
(341,-12,o),
(436,34,o),
(467,77,q),
(500,34,o),
(602,-12,o),
(664,-12,qs),
(752,-12,o),
(875,82,o),
(898,154,q),
(769,154,l),
(753,126,o),
(699,93,o),
(663,93,qs),
(610,93,o),
(538,159,o),
(533,217,q),
(910,217,l),
(912,265,ls),
(912,334,o),
(881,389,qs),
(849,445,o),
(737,508,o),
(664,508,qs),
(602,508,o),
(501,461,o),
(468,418,q),
(437,461,o),
(343,508,o),
(284,508,qs),
(212,508,o),
(155,475,qs),
(96,441,o),
(29,324,o),
(29,248,qs),
(29,171,o),
(63,113,qs),
(96,54,o),
(211,-12,o),
(283,-12,qs)
);
},
{
closed = 1;
nodes = (
(230,99,o),
(160,177,o),
(160,248,qs),
(160,319,o),
(230,397,o),
(284,397,qs),
(336,397,o),
(407,319,o),
(407,248,qs),
(407,177,o),
(336,99,o),
(283,99,qs)
);
},
{
closed = 1;
nodes = (
(537,297,l),
(545,349,o),
(615,404,o),
(664,404,qs),
(713,404,o),
(780,345,o),
(783,297,q)
);
}
);
userData = {
assembly = "MPPEM[ ]	/* MeasurePixelPerEm */
PUSHB[ ]	/* 1 value pushed */
33
LT[ ]	/* LessThan */
IF[ ]	/* If */
NPUSHB[ ]	/* 10 values pushed */
12 1 7 0 35 1 5 3 2 76
ELSE[ ]	/* Else */
NPUSHB[ ]	/* 10 values pushed */
12 1 9 0 35 1 5 3 2 76
EIF[ ]	/* EndIf */
MPPEM[ ]	/* MeasurePixelPerEm */
PUSHB[ ]	/* 1 value pushed */
33
LT[ ]	/* LessThan */
IF[ ]	/* If */
NPUSHB[ ]	/* 43 values pushed */
0 4 2 3 2 4 3 128 0 10 0 2 4 10 2 103 9 1 7 7 0 97 1 1 0 0 42 77 12 8 2 3 3 5 97 11 6 2 5 5 40 5 78
ELSE[ ]	/* Else */
MPPEM[ ]	/* MeasurePixelPerEm */
PUSHB[ ]	/* 1 value pushed */
39
LT[ ]	/* LessThan */
IF[ ]	/* If */
NPUSHB[ ]	/* 53 values pushed */
0 4 2 3 2 4 3 128 0 10 0 2 4 10 2 103 0 9 9 0 97 1 1 0 0 42 77 0 7 7 0 97 1 1 0 0 42 77 12 8 2 3 3 5 97 11 6 2 5 5 40 5 78
ELSE[ ]	/* Else */
NPUSHB[ ]	/* 64 values pushed */
0 4 2 8 2 4 8 128 0 10 0 2 4 10 2 103 0 9 9 0 97 1 1 0 0 42 77 0 7 7 0 97 1 1 0 0 42 77 12 1 8 8 5 97 11 6 2 5 5 40 77 0 3 3 5 97 11 6 2 5 5 40 5 78
EIF[ ]	/* EndIf */
EIF[ ]	/* EndIf */
NPUSHB[ ]	/* 27 values pushed */
39 39 0 0 57 56 54 52 39 50 39 49 45 43 0 38 0 37 34 18 34 21 36 40 13 8 28
CALL[ ]	/* CallFunction */";
};
width = 935;
}
);
note = oe;
unicode = 339;
},
{
glyphname = p;
kernLeft = p;
kernRight = b;
layers = (
{
layerId = m01;
shapes = (
{
closed = 1;
nodes = (
(173,-220,l),
(173,68,l),
(197,35,o),
(282,-12,o),
(339,-12,qs),
(408,-12,o),
(512,58,o),
(569,178,o),
(569,250,qs),
(569,321,o),
(513,439,o),
(408,508,o),
(339,508,qs),
(288,508,o),
(201,466,o),
(172,427,q),
(172,496,l),
(45,496,l),
(45,-220,l)
);
},
{
closed = 1;
nodes = (
(247,100,o),
(172,185,o),
(172,248,qs),
(172,312,o),
(248,396,o),
(305,396,qs),
(361,396,o),
(439,317,o),
(439,250,qs),
(439,187,o),
(364,100,o),
(305,100,qs)
);
}
);
userData = {
assembly = "NPUSHB[ ]	/* 10 values pushed */
2 1 4 0 16 1 2 5 2 76
MPPEM[ ]	/* MeasurePixelPerEm */
PUSHB[ ]	/* 1 value pushed */
21
LT[ ]	/* LessThan */
IF[ ]	/* If */
NPUSHB[ ]	/* 28 values pushed */
0 4 4 0 97 1 1 0 0 36 77 6 1 5 5 2 97 0 2 2 40 77 0 3 3 38 3 78
ELSE[ ]	/* Else */
NPUSHB[ ]	/* 32 values pushed */
0 0 0 36 77 0 4 4 1 97 0 1 1 42 77 6 1 5 5 2 97 0 2 2 40 77 0 3 3 38 3 78
EIF[ ]	/* EndIf */
NPUSHB[ ]	/* 14 values pushed */
19 19 19 30 19 29 37 19 38 35 16 7 8 27
CALL[ ]	/* CallFunction */";
};
width = 598;
}
);
note = p;
unicode = 112;
},
{
glyphname = thorn;
kernRight = b;
layers = (
{
layerId = m01;
shapes = (
{
closed = 1;
nodes = (
(173,-220,l),
(173,68,l),
(200,29,o),
(284,-12,o),
(339,-12,qs),
(409,-12,o),
(520,56,o),
(583,175,o),
(583,247,qs),
(583,319,o),
(522,438,o),
(411,508,o),
(339,508,qs),
(233,508,o),
(173,425,q),
(173,700,l),
(45,700,l),
(45,-220,l)
);
},
{
closed = 1;
nodes = (
(250,100,o),
(171,183,o),
(171,248,qs),
(171,313,o),
(250,396,o),
(312,396,qs),
(373,396,o),
(453,312,o),
(453,247,qs),
(453,182,o),
(373,100,o),
(312,100,qs)
);
}
);
userData = {
assembly = "NPUSHB[ ]	/* 56 values pushed */
2 1 4 1 15 1 2 5 2 76 0 0 0 33 77 0 4 4 1 97 0 1 1 42 77 6 1 5 5 2 97 0 2 2 40 77 0 3 3 38 3 78 18 18 18 29 18 28 37 19 38 34 16 7 8 27
CALL[ ]	/* CallFunction */";
};
width = 612;
}
);
note = thorn;
unicode = 254;
},
{
glyphname = q;
kernLeft = c;
layers = (
{
layerId = m01;
shapes = (
{
closed = 1;
nodes = (
(426,-220,l),
(554,-220,l),
(554,496,l),
(426,496,l),
(426,434,l),
(399,469,o),
(313,507,o),
(264,507,qs),
(197,507,o),
(90,438,o),
(29,320,o),
(29,249,qs),
(30,175,o),
(91,57,o),
(196,-11,o),
(262,-11,qs),
(318,-11,o),
(402,35,o),
(426,65,q)
);
},
{
closed = 1;
nodes = (
(235,100,o),
(160,185,o),
(160,249,qs),
(160,311,o),
(234,396,o),
(292,396,qs),
(350,396,o),
(426,312,o),
(426,248,qs),
(426,201,o),
(388,134,o),
(326,100,o),
(292,100,qs)
);
}
);
userData = {
assembly = "MPPEM[ ]	/* MeasurePixelPerEm */
PUSHB[ ]	/* 1 value pushed */
23
LT[ ]	/* LessThan */
IF[ ]	/* If */
NPUSHB[ ]	/* 10 values pushed */
13 1 4 1 18 1 0 5 2 76
ELSE[ ]	/* Else */
NPUSHB[ ]	/* 10 values pushed */
13 1 4 2 18 1 0 5 2 76
EIF[ ]	/* EndIf */
MPPEM[ ]	/* MeasurePixelPerEm */
PUSHB[ ]	/* 1 value pushed */
23
LT[ ]	/* LessThan */
IF[ ]	/* If */
NPUSHB[ ]	/* 28 values pushed */
0 4 4 1 97 2 1 1 1 42 77 6 1 5 5 0 97 0 0 0 40 77 0 3 3 38 3 78
ELSE[ ]	/* Else */
NPUSHB[ ]	/* 32 values pushed */
0 2 2 36 77 0 4 4 1 97 0 1 1 42 77 6 1 5 5 0 97 0 0 0 40 77 0 3 3 38 3 78
EIF[ ]	/* EndIf */
NPUSHB[ ]	/* 14 values pushed */
19 19 19 31 19 30 39 17 19 38 33 7 8 27
CALL[ ]	/* CallFunction */";
};
width = 599;
}
);
note = q;
unicode = 113;
},
{
glyphname = r;
kernLeft = dotlessi;
kernRight = r;
layers = (
{
anchors = (
{
name = bottom;
pos = (116,0);
},
{
name = top;
pos = (171,496);
}
);
layerId = m01;
shapes = (
{
closed = 1;
nodes = (
(172,0,l),
(172,248,ls),
(172,315,o),
(231,374,o),
(293,374,qs),
(327,374,l),
(327,508,l),
(278,508,o),
(198,464,o),
(172,422,q),
(172,496,l),
(45,496,l),
(45,0,l)
);
}
);
userData = {
assembly = "PUSHB[ ]	/* 6 values pushed */
2 1 2 0 1 76
MPPEM[ ]	/* MeasurePixelPerEm */
PUSHB[ ]	/* 1 value pushed */
21
LT[ ]	/* LessThan */
IF[ ]	/* If */
NPUSHB[ ]	/* 17 values pushed */
0 2 2 0 97 1 1 0 0 36 77 0 3 3 34 3 78
ELSE[ ]	/* Else */
NPUSHB[ ]	/* 21 values pushed */
0 0 0 36 77 0 2 2 1 97 0 1 1 42 77 0 3 3 34 3 78
EIF[ ]	/* EndIf */
PUSHB[ ]	/* 7 values pushed */
19 33 19 16 4 8 26
CALL[ ]	/* CallFunction */";
};
width = 342;
}
);
note = r;
unicode = 114;
},
{
glyphname = s;
kernLeft = s;
kernRight = s;
layers = (
{
anchors = (
{
name = bottom;
pos = (246,0);
},
{
name = top;
pos = (237,496);
}
);
layerId = m01;
shapes = (
{
closed = 1;
nodes = (
(332,-12,o),
(446,69,o),
(446,140,qs),
(445,187,o),
(401,245,o),
(327,279,o),
(268,294,qs),
(220,306,o),
(163,333,o),
(163,359,qs),
(163,385,o),
(203,407,o),
(235,407,qs),
(271,407,o),
(317,373,o),
(320,342,q),
(441,342,l),
(436,421,o),
(324,508,o),
(239,508,qs),
(185,508,o),
(94,472,o),
(40,403,o),
(40,357,qs),
(40,310,o),
(86,251,o),
(162,218,o),
(220,204,qs),
(268,191,o),
(292,183,o),
(324,159,o),
(324,140,qs),
(324,115,o),
(278,88,o),
(247,88,qs),
(213,88,o),
(161,125,o),
(156,156,q),
(28,156,l),
(31,106,o),
(93,30,o),
(192,-12,o),
(248,-12,qs)
);
}
);
userData = {
assembly = "MPPEM[ ]	/* MeasurePixelPerEm */
PUSHB[ ]	/* 1 value pushed */
19
LT[ ]	/* LessThan */
IF[ ]	/* If */
NPUSHB[ ]	/* 36 values pushed */
0 3 4 0 4 3 114 0 0 1 4 0 1 126 0 4 4 2 97 0 2 2 42 77 0 1 1 5 97 6 1 5 5 40 5 78
ELSE[ ]	/* Else */
NPUSHB[ ]	/* 37 values pushed */
0 3 4 0 4 3 0 128 0 0 1 4 0 1 126 0 4 4 2 97 0 2 2 42 77 0 1 1 5 97 6 1 5 5 40 5 78
EIF[ ]	/* EndIf */
NPUSHB[ ]	/* 14 values pushed */
0 0 0 42 0 41 34 18 45 34 19 7 8 27
CALL[ ]	/* CallFunction */";
};
width = 474;
}
);
note = s;
unicode = 115;
},
{
glyphname = scedilla;
kernLeft = s;
kernRight = s;
layers = (
{
anchors = (
{
name = bottom;
pos = (246,-263);
},
{
name = top;
pos = (237,496);
}
);
layerId = m01;
shapes = (
{
closed = 1;
nodes = (
(283,-263,ls),
(338,-263,o),
(413,-207,o),
(413,-155,qs),
(413,-103,o),
(339,-48,o),
(283,-50,q),
(283,-10,l),
(354,-2,o),
(446,77,o),
(446,140,qs),
(445,187,o),
(401,245,o),
(327,279,o),
(268,294,qs),
(220,306,o),
(163,333,o),
(163,359,qs),
(163,385,o),
(203,407,o),
(235,407,qs),
(271,407,o),
(317,373,o),
(320,342,q),
(441,342,l),
(436,421,o),
(324,508,o),
(239,508,qs),
(185,508,o),
(94,472,o),
(40,403,o),
(40,357,qs),
(40,310,o),
(86,251,o),
(162,218,o),
(220,204,qs),
(268,191,o),
(292,183,o),
(324,159,o),
(324,140,qs),
(324,115,o),
(278,88,o),
(247,88,qs),
(213,88,o),
(161,125,o),
(156,156,q),
(28,156,l),
(32,91,o),
(131,3,o),
(203,-8,q),
(203,-118,l),
(264,-118,ls),
(317,-118,o),
(317,-153,qs),
(317,-189,o),
(264,-189,qs),
(152,-189,l),
(152,-263,l)
);
}
);
userData = {
assembly = "PUSHB[ ]	/* 7 values pushed */
49 7 2 7 3 1 76
MPPEM[ ]	/* MeasurePixelPerEm */
PUSHB[ ]	/* 1 value pushed */
9
LT[ ]	/* LessThan */
IF[ ]	/* If */
NPUSHB[ ]	/* 46 values pushed */
0 5 6 2 6 5 114 0 2 3 6 2 3 126 0 3 7 7 3 112 0 7 0 1 0 7 1 106 0 0 0 8 0 8 100 0 6 6 4 97 0 4 4 42 6 78
ELSE[ ]	/* Else */
MPPEM[ ]	/* MeasurePixelPerEm */
PUSHB[ ]	/* 1 value pushed */
19
LT[ ]	/* LessThan */
IF[ ]	/* If */
NPUSHB[ ]	/* 47 values pushed */
0 5 6 2 6 5 114 0 2 3 6 2 3 126 0 3 7 6 3 7 126 0 7 0 1 0 7 1 106 0 0 0 8 0 8 100 0 6 6 4 97 0 4 4 42 6 78
ELSE[ ]	/* Else */
NPUSHB[ ]	/* 48 values pushed */
0 5 6 2 6 5 2 128 0 2 3 6 2 3 126 0 3 7 6 3 7 126 0 7 0 1 0 7 1 106 0 0 0 8 0 8 100 0 6 6 4 97 0 4 4 42 6 78
EIF[ ]	/* EndIf */
EIF[ ]	/* EndIf */
NPUSHB[ ]	/* 12 values pushed */
36 29 34 18 45 34 20 34 32 9 8 31
CALL[ ]	/* CallFunction */";
};
width = 474;
}
);
note = scedilla;
unicode = 351;
},
{
glyphname = germandbls;
kernLeft = b;
kernRight = germandbls;
layers = (
{
layerId = m01;
shapes = (
{
closed = 1;
nodes = (
(544,-10,o),
(656,80,o),
(656,159,qs),
(656,222,o),
(584,295,o),
(515,321,qs),
(454,343,o),
(413,369,o),
(413,390,qs),
(413,406,o),
(437,429,o),
(457,442,qs),
(496,468,o),
(538,516,o),
(538,556,qs),
(538,611,o),
(476,690,o),
(369,732,o),
(304,732,qs),
(230,732,o),
(113,680,o),
(46,580,o),
(46,509,qs),
(46,0,l),
(174,0,l),
(174,499,ls),
(174,625,o),
(299,625,qs),
(347,625,o),
(411,584,o),
(411,543,qs),
(411,522,o),
(388,492,o),
(367,476,qs),
(329,450,ls),
(284,419,o),
(284,370,qs),
(284,334,o),
(328,284,o),
(389,255,o),
(438,238,qs),
(486,221,o),
(531,187,o),
(531,151,qs),
(531,118,o),
(488,85,o),
(452,85,qs),
(412,85,o),
(362,133,o),
(357,175,q),
(236,175,l),
(247,84,o),
(365,-10,o),
(454,-10,qs)
);
}
);
userData = {
assembly = "MPPEM[ ]	/* MeasurePixelPerEm */
PUSHB[ ]	/* 1 value pushed */
25
LT[ ]	/* LessThan */
IF[ ]	/* If */
NPUSHB[ ]	/* 31 values pushed */
0 0 2 1 2 0 1 128 0 2 2 4 97 0 4 4 41 77 0 1 1 3 97 6 5 2 3 3 34 3 78
ELSE[ ]	/* Else */
MPPEM[ ]	/* MeasurePixelPerEm */
PUSHB[ ]	/* 1 value pushed */
29
LT[ ]	/* LessThan */
IF[ ]	/* If */
NPUSHB[ ]	/* 35 values pushed */
0 0 2 1 2 0 1 128 0 2 2 4 97 0 4 4 41 77 0 3 3 34 77 0 1 1 5 97 6 1 5 5 40 5 78
ELSE[ ]	/* Else */
NPUSHB[ ]	/* 33 values pushed */
0 0 2 1 2 0 1 128 0 4 0 2 0 4 2 105 0 3 3 34 77 0 1 1 5 97 6 1 5 5 40 5 78
EIF[ ]	/* EndIf */
EIF[ ]	/* EndIf */
NPUSHB[ ]	/* 17 values pushed */
0 0 0 53 0 52 35 33 29 28 26 24 34 18 7 8 24
CALL[ ]	/* CallFunction */";
};
width = 667;
}
);
note = germandbls;
unicode = 223;
},
{
glyphname = t;
kernLeft = t;
kernRight = t;
layers = (
{
anchors = (
{
name = bottom;
pos = (219,0);
},
{
name = top;
pos = (176,496);
},
{
name = topright;
pos = (253,992);
}
);
layerId = m01;
shapes = (
{
closed = 1;
nodes = (
(320,0,l),
(320,107,l),
(261,107,ls),
(235,107,o),
(207,129,o),
(207,155,qs),
(207,389,l),
(320,389,l),
(320,496,l),
(207,496,l),
(207,617,l),
(79,617,l),
(79,496,l),
(15,496,l),
(15,389,l),
(79,389,l),
(79,156,ls),
(79,0,o),
(240,0,qs)
);
}
);
userData = {
assembly = "NPUSHB[ ]	/* 44 values pushed */
0 2 1 2 133 4 1 0 0 1 95 3 1 1 1 36 77 0 5 5 6 96 7 1 6 6 34 6 78 0 0 0 18 0 17 35 17 17 17 17 18 8 8 28
CALL[ ]	/* CallFunction */";
};
width = 351;
}
);
note = t;
unicode = 116;
},
{
glyphname = uni0163;
kernLeft = t;
kernRight = t;
layers = (
{
anchors = (
{
name = bottom;
pos = (219,-263);
},
{
name = top;
pos = (176,496);
},
{
name = topright;
pos = (253,992);
}
);
layerId = m01;
shapes = (
{
closed = 1;
nodes = (
(256,-263,ls),
(311,-263,o),
(386,-207,o),
(386,-155,qs),
(386,-103,o),
(312,-48,o),
(256,-50,q),
(256,0,l),
(320,0,l),
(320,107,l),
(261,107,ls),
(235,107,o),
(207,129,o),
(207,155,qs),
(207,389,l),
(320,389,l),
(320,496,l),
(207,496,l),
(207,617,l),
(79,617,l),
(79,496,l),
(15,496,l),
(15,389,l),
(79,389,l),
(79,156,ls),
(79,35,o),
(176,8,q),
(176,-118,l),
(237,-118,ls),
(290,-118,o),
(290,-153,qs),
(290,-189,o),
(237,-189,qs),
(125,-189,l),
(125,-263,l)
);
}
);
userData = {
assembly = "NPUSHB[ ]	/* 65 values pushed */
7 1 8 7 1 76 0 4 3 4 133 0 9 0 1 0 9 1 106 0 0 0 10 0 10 99 6 1 2 2 3 95 5 1 3 3 36 77 0 7 7 8 95 0 8 8 34 8 78 34 32 28 27 17 35 17 17 17 17 20 34 32 11 8 31
CALL[ ]	/* CallFunction */";
};
width = 351;
}
);
note = uni0163;
unicode = 355;
},
{
glyphname = u;
kernLeft = u;
layers = (
{
anchors = (
{
name = bottom;
pos = (281,0);
},
{
name = ogonek;
pos = (517,0);
},
{
name = top;
pos = (280,496);
},
{
name = topright;
pos = (542,496);
}
);
layerId = m01;
shapes = (
{
closed = 1;
nodes = (
(284,-12,o),
(365,25,o),
(389,58,q),
(389,0,l),
(517,0,l),
(517,496,l),
(389,496,l),
(389,221,ls),
(389,162,o),
(332,96,o),
(276,96,qs),
(223,96,o),
(164,165,o),
(164,221,qs),
(164,496,l),
(37,496,l),
(37,202,ls),
(37,106,o),
(145,-12,o),
(239,-12,qs)
);
}
);
userData = {
assembly = "PUSHB[ ]	/* 6 values pushed */
16 1 3 1 1 76
MPPEM[ ]	/* MeasurePixelPerEm */
PUSHB[ ]	/* 1 value pushed */
21
LT[ ]	/* LessThan */
IF[ ]	/* If */
NPUSHB[ ]	/* 19 values pushed */
2 1 0 0 36 77 0 1 1 3 98 5 4 2 3 3 34 3 78
ELSE[ ]	/* Else */
NPUSHB[ ]	/* 23 values pushed */
2 1 0 0 36 77 0 3 3 34 77 0 1 1 4 98 5 1 4 4 40 4 78
EIF[ ]	/* EndIf */
NPUSHB[ ]	/* 13 values pushed */
0 0 0 19 0 18 17 19 35 19 6 8 26
CALL[ ]	/* CallFunction */";
};
width = 562;
}
);
note = u;
unicode = 117;
},
{
glyphname = uogonek;
kernLeft = u;
layers = (
{
anchors = (
{
name = bottom;
pos = (281,0);
},
{
name = ogonek;
pos = (517,0);
},
{
name = top;
pos = (280,496);
},
{
name = topright;
pos = (542,496);
}
);
layerId = m01;
shapes = (
{
closed = 1;
nodes = (
(284,-12,o),
(365,25,o),
(389,58,q),
(389,14,l),
(342,-13,o),
(302,-72,o),
(302,-106,qs),
(302,-157,o),
(377,-210,o),
(435,-210,qs),
(478,-210,o),
(522,-196,q),
(522,-120,l),
(483,-135,o),
(451,-135,qs),
(427,-135,o),
(399,-113,o),
(399,-94,qs),
(399,-76,o),
(430,-44,o),
(465,-26,qs),
(517,0,l),
(517,496,l),
(389,496,l),
(389,221,ls),
(389,162,o),
(332,96,o),
(276,96,qs),
(223,96,o),
(164,165,o),
(164,221,qs),
(164,496,l),
(37,496,l),
(37,202,ls),
(37,106,o),
(145,-12,o),
(239,-12,qs)
);
}
);
userData = {
assembly = "NPUSHB[ ]	/* 16 values pushed */
33 32 14 3 5 1 23 1 3 5 24 1 4 3 3 76
MPPEM[ ]	/* MeasurePixelPerEm */
PUSHB[ ]	/* 1 value pushed */
50
LT[ ]	/* LessThan */
IF[ ]	/* If */
NPUSHB[ ]	/* 28 values pushed */
2 1 0 0 36 77 0 1 1 5 98 6 1 5 5 40 77 0 3 3 4 97 0 4 4 38 4 78
ELSE[ ]	/* Else */
NPUSHB[ ]	/* 25 values pushed */
0 3 0 4 3 4 101 2 1 0 0 36 77 0 1 1 5 98 6 1 5 5 40 5 78
EIF[ ]	/* EndIf */
NPUSHB[ ]	/* 14 values pushed */
0 0 0 36 0 35 35 39 19 35 19 7 8 27
CALL[ ]	/* CallFunction */";
};
width = 562;
}
);
note = uogonek;
unicode = 371;
},
{
glyphname = v;
kernLeft = v;
kernRight = v;
layers = (
{
layerId = m01;
shapes = (
{
closed = 1;
nodes = (
(339,0,l),
(525,496,l),
(390,496,l),
(263,115,l),
(135,496,l),
(-1,496,l),
(185,0,l)
);
}
);
userData = {
assembly = "NPUSHB[ ]	/* 24 values pushed */
2 1 2 0 1 76 1 1 0 0 36 77 0 2 2 34 2 78 17 18 16 3 8 25
CALL[ ]	/* CallFunction */";
};
width = 524;
}
);
note = v;
unicode = 118;
},
{
glyphname = w;
kernLeft = w;
kernRight = w;
layers = (
{
anchors = (
{
name = bottom;
pos = (374,0);
},
{
name = top;
pos = (375,496);
}
);
layerId = m01;
shapes = (
{
closed = 1;
nodes = (
(283,0,l),
(375,347,l),
(467,1,l),
(604,1,l),
(751,496,l),
(629,496,l),
(540,120,l),
(446,496,l),
(311,496,l),
(215,119,l),
(126,496,l),
(-3,496,l),
(145,0,l)
);
}
);
userData = {
assembly = "NPUSHB[ ]	/* 30 values pushed */
10 5 2 3 3 0 1 76 2 1 2 0 0 36 77 4 1 3 3 34 3 78 18 17 18 18 16 5 8 27
CALL[ ]	/* CallFunction */";
};
width = 747;
}
);
note = w;
unicode = 119;
},
{
glyphname = x;
kernLeft = x;
kernRight = x;
layers = (
{
layerId = m01;
shapes = (
{
closed = 1;
nodes = (
(136,0,l),
(228,154,l),
(332,0,l),
(475,0,l),
(308,249,l),
(473,496,l),
(337,496,l),
(244,343,l),
(142,496,l),
(-2,496,l),
(164,249,l),
(0,0,l)
);
}
);
userData = {
assembly = "NPUSHB[ ]	/* 28 values pushed */
9 6 3 3 2 0 1 76 1 1 0 0 36 77 3 1 2 2 34 2 78 18 18 18 17 4 8 26
CALL[ ]	/* CallFunction */";
};
width = 472;
}
);
note = x;
unicode = 120;
},
{
glyphname = y;
kernLeft = y;
kernRight = y;
layers = (
{
anchors = (
{
name = bottom;
pos = (268,0);
},
{
name = top;
pos = (268,496);
}
);
layerId = m01;
shapes = (
{
closed = 1;
nodes = (
(226,-220,l),
(536,496,l),
(401,496,l),
(270,158,l),
(142,496,l),
(-1,496,l),
(200,23,l),
(91,-220,l)
);
}
);
userData = {
assembly = "NPUSHB[ ]	/* 24 values pushed */
3 1 2 0 1 76 1 1 0 0 36 77 0 2 2 38 2 78 17 18 17 3 8 25
CALL[ ]	/* CallFunction */";
};
width = 535;
}
);
note = y;
unicode = 121;
},
{
glyphname = z;
kernLeft = z;
layers = (
{
anchors = (
{
name = bottom;
pos = (207,0);
},
{
name = top;
pos = (207,496);
}
);
layerId = m01;
shapes = (
{
closed = 1;
nodes = (
(391,0,l),
(391,105,l),
(167,105,l),
(388,394,l),
(388,496,l),
(23,496,l),
(23,392,l),
(242,392,l),
(22,103,l),
(22,0,l)
);
}
);
userData = {
assembly = "NPUSHB[ ]	/* 38 values pushed */
5 1 0 1 0 1 3 2 2 76 0 0 0 1 95 0 1 1 36 77 0 2 2 3 95 0 3 3 34 3 78 17 18 17 17 4 8 26
CALL[ ]	/* CallFunction */";
};
width = 413;
}
);
note = z;
unicode = 122;
},
{
glyphname = uniA78C;
layers = (
{
layerId = m01;
shapes = (
{
closed = 1;
nodes = (
(177,330,l),
(197,700,l),
(60,700,l),
(79,330,l)
);
}
);
userData = {
assembly = "NPUSHB[ ]	/* 16 values pushed */
0 1 1 0 95 0 0 0 33 1 78 17 16 2 8 24
CALL[ ]	/* CallFunction */";
};
width = 257;
}
);
note = uniA78C;
unicode = 42892;
},
{
glyphname = fi;
layers = (
{
anchors = (
{
name = caret_1;
pos = (267,0);
}
);
layerId = m01;
shapes = (
{
closed = 1;
nodes = (
(186,0,l),
(186,389,l),
(275,389,l),
(275,496,l),
(186,496,l),
(186,534,ls),
(186,565,o),
(214,591,o),
(247,591,qs),
(269,591,l),
(269,700,l),
(227,700,ls),
(58,700,o),
(58,534,qs),
(58,496,l),
(0,496,l),
(0,389,l),
(58,389,l),
(58,0,l)
);
},
{
closed = 1;
nodes = (
(484,0,l),
(484,496,l),
(356,496,l),
(356,0,l)
);
},
{
closed = 1;
nodes = (
(455,560,o),
(503,608,o),
(503,643,qs),
(503,678,o),
(455,726,o),
(420,726,qs),
(386,726,o),
(337,678,o),
(337,643,qs),
(337,609,o),
(386,560,o),
(420,560,qs)
);
}
);
userData = {
assembly = "MPPEM[ ]	/* MeasurePixelPerEm */
PUSHB[ ]	/* 1 value pushed */
29
LT[ ]	/* LessThan */
IF[ ]	/* If */
NPUSHB[ ]	/* 41 values pushed */
0 3 3 2 97 0 2 2 33 77 11 1 10 10 9 97 0 9 9 41 77 5 1 0 0 1 95 7 4 2 1 1 36 77 8 1 6 6 34 6 78
ELSE[ ]	/* Else */
MPPEM[ ]	/* MeasurePixelPerEm */
PUSHB[ ]	/* 1 value pushed */
35
LT[ ]	/* LessThan */
IF[ ]	/* If */
NPUSHB[ ]	/* 41 values pushed */
0 3 3 2 97 0 2 2 33 77 11 1 10 10 9 97 0 9 9 39 77 5 1 0 0 1 95 7 4 2 1 1 36 77 8 1 6 6 34 6 78
ELSE[ ]	/* Else */
NPUSHB[ ]	/* 39 values pushed */
0 9 11 1 10 1 9 10 105 0 3 3 2 97 0 2 2 33 77 5 1 0 0 1 95 7 4 2 1 1 36 77 8 1 6 6 34 6 78
EIF[ ]	/* EndIf */
EIF[ ]	/* EndIf */
NPUSHB[ ]	/* 20 values pushed */
23 23 23 34 23 33 29 27 17 17 17 17 19 33 34 17 16 12 8 31
CALL[ ]	/* CallFunction */";
};
width = 534;
}
);
note = fi;
unicode = 64257;
},
{
glyphname = fl;
kernRight = fl;
layers = (
{
anchors = (
{
name = caret_1;
pos = (264,0);
}
);
layerId = m01;
shapes = (
{
closed = 1;
nodes = (
(186,0,l),
(186,389,l),
(275,389,l),
(275,496,l),
(186,496,l),
(186,534,ls),
(186,565,o),
(214,591,o),
(247,591,qs),
(269,591,l),
(269,700,l),
(227,700,ls),
(58,700,o),
(58,534,qs),
(58,496,l),
(0,496,l),
(0,389,l),
(58,389,l),
(58,0,l)
);
},
{
closed = 1;
nodes = (
(481,0,l),
(481,700,l),
(353,700,l),
(353,0,l)
);
}
);
userData = {
assembly = "NPUSHB[ ]	/* 42 values pushed */
0 3 3 2 97 7 1 2 2 33 77 5 1 0 0 1 95 4 1 1 1 36 77 8 1 6 6 34 6 78 17 17 17 17 19 33 34 17 16 9 8 31
CALL[ ]	/* CallFunction */";
};
width = 527;
}
);
note = fl;
unicode = 64258;
},
{
glyphname = ordfeminine;
layers = (
{
layerId = m01;
shapes = (
{
closed = 1;
nodes = (
(226,347,o),
(267,406,q),
(280,380,o),
(331,354,o),
(367,354,qs),
(384,354,l),
(384,429,l),
(367,429,o),
(347,447,o),
(347,464,qs),
(347,559,ls),
(347,633,o),
(260,710,o),
(194,710,qs),
(133,710,o),
(51,646,o),
(39,588,q),
(128,588,l),
(134,610,o),
(168,635,o),
(191,635,qs),
(222,635,o),
(255,595,o),
(257,561,q),
(174,561,ls),
(110,561,o),
(29,507,o),
(29,450,qs),
(29,403,o),
(100,347,o),
(146,347,qs)
);
},
{
closed = 1;
nodes = (
(149,418,o),
(120,439,o),
(120,460,qs),
(120,482,o),
(155,504,o),
(180,504,qs),
(257,504,l),
(257,466,o),
(207,418,o),
(172,418,qs)
);
}
);
userData = {
assembly = "MPPEM[ ]	/* MeasurePixelPerEm */
PUSHB[ ]	/* 1 value pushed */
22
LT[ ]	/* LessThan */
IF[ ]	/* If */
PUSHB[ ]	/* 6 values pushed */
28 1 5 4 1 76
ELSE[ ]	/* Else */
PUSHB[ ]	/* 6 values pushed */
28 1 5 8 1 76
EIF[ ]	/* EndIf */
MPPEM[ ]	/* MeasurePixelPerEm */
PUSHB[ ]	/* 1 value pushed */
22
LT[ ]	/* LessThan */
IF[ ]	/* If */
NPUSHB[ ]	/* 41 values pushed */
0 2 1 0 1 2 0 128 0 0 0 7 4 0 7 103 0 1 1 3 97 0 3 3 59 77 10 8 2 4 4 5 97 9 6 2 5 5 58 5 78
ELSE[ ]	/* Else */
MPPEM[ ]	/* MeasurePixelPerEm */
PUSHB[ ]	/* 1 value pushed */
34
LT[ ]	/* LessThan */
IF[ ]	/* If */
NPUSHB[ ]	/* 52 values pushed */
0 2 1 0 1 2 0 128 0 0 0 7 4 0 7 103 0 1 1 3 97 0 3 3 59 77 0 4 4 5 97 9 6 2 5 5 58 77 10 1 8 8 5 97 9 6 2 5 5 58 5 78
ELSE[ ]	/* Else */
NPUSHB[ ]	/* 49 values pushed */
0 2 1 0 1 2 0 128 0 0 0 7 4 0 7 103 0 1 1 3 97 0 3 3 59 77 0 4 4 5 97 0 5 5 58 77 10 1 8 8 6 97 9 1 6 6 58 6 78
EIF[ ]	/* EndIf */
EIF[ ]	/* EndIf */
NPUSHB[ ]	/* 23 values pushed */
31 31 0 0 31 40 31 39 35 33 0 30 0 29 33 21 34 18 34 36 11 10 28
CALL[ ]	/* CallFunction */";
};
width = 404;
}
);
note = ordfeminine;
unicode = 170;
},
{
glyphname = ordmasculine;
layers = (
{
layerId = m01;
shapes = (
{
closed = 1;
nodes = (
(261,349,o),
(345,397,o),
(390,480,o),
(390,531,qs),
(390,585,o),
(343,667,o),
(260,712,o),
(210,712,qs),
(160,712,o),
(78,669,o),
(29,587,o),
(29,531,qs),
(29,477,o),
(75,394,o),
(156,349,o),
(207,349,qs)
);
},
{
closed = 1;
nodes = (
(167,426,o),
(119,486,o),
(119,531,qs),
(119,576,o),
(167,635,o),
(209,635,qs),
(252,635,o),
(299,577,o),
(299,531,qs),
(299,486,o),
(250,426,o),
(207,426,qs)
);
}
);
userData = {
assembly = "NPUSHB[ ]	/* 41 values pushed */
0 2 2 0 97 0 0 0 59 77 5 1 3 3 1 97 4 1 1 1 58 1 78 16 16 0 0 16 27 16 26 22 20 0 15 0 14 38 6 10 23
CALL[ ]	/* CallFunction */";
};
width = 419;
}
);
note = ordmasculine;
unicode = 186;
},
{
glyphname = uni042F;
layers = (
{
layerId = m01;
shapes = (
{
closed = 1;
nodes = (
(22,0,l),
(173,0,l),
(345,295,l),
(423,295,l),
(423,0,l),
(551,0,l),
(551,700,l),
(308,700,ls),
(198,700,o),
(68,594,o),
(68,498,qs),
(68,425,o),
(146,333,o),
(217,316,q)
);
},
{
closed = 1;
nodes = (
(248,404,o),
(198,453,o),
(198,498,qs),
(198,542,o),
(249,591,o),
(311,591,qs),
(423,591,l),
(423,404,l),
(311,404,ls)
);
}
);
userData = {
assembly = "NPUSHB[ ]	/* 52 values pushed */
13 1 2 5 1 76 3 1 1 2 1 134 0 0 0 4 5 0 4 103 6 1 5 2 2 5 87 6 1 5 5 2 95 0 2 5 2 79 14 14 14 22 14 21 35 17 17 17 36 7 6 27
CALL[ ]	/* CallFunction */";
};
width = 615;
}
);
note = uni042F;
unicode = (1071,1103);
},
{
glyphname = uni0394;
layers = (
{
layerId = m01;
shapes = (
{
closed = 1;
nodes = (
(688,0,l),
(688,98,l),
(408,700,l),
(303,700,l),
(23,98,l),
(23,0,l)
);
},
{
closed = 1;
nodes = (
(355,555,l),
(557,98,l),
(154,98,l)
);
}
);
userData = {
assembly = "NPUSHB[ ]	/* 12 values pushed */
7 1 2 0 1 76 3 0 2 2 1 75
MPPEM[ ]	/* MeasurePixelPerEm */
PUSHB[ ]	/* 1 value pushed */
42
LT[ ]	/* LessThan */
IF[ ]	/* If */
NPUSHB[ ]	/* 17 values pushed */
0 0 0 23 77 3 1 2 2 1 95 0 1 1 24 1 78
ELSE[ ]	/* Else */
NPUSHB[ ]	/* 17 values pushed */
0 0 2 0 133 3 1 2 2 1 95 0 1 1 24 1 78
EIF[ ]	/* EndIf */
NPUSHB[ ]	/* 11 values pushed */
6 6 6 8 6 8 18 17 4 7 24
CALL[ ]	/* CallFunction */";
};
width = 711;
}
);
note = uni0394;
unicode = 916;
},
{
glyphname = Pi;
layers = (
{
layerId = m01;
shapes = (
{
closed = 1;
nodes = (
(235,0,l),
(235,398,l),
(411,398,l),
(411,0,l),
(539,0,l),
(539,398,l),
(614,398,l),
(614,496,l),
(33,496,l),
(33,398,l),
(107,398,l),
(107,0,l)
);
}
);
userData = {
assembly = "NPUSHB[ ]	/* 26 values pushed */
0 1 4 2 2 0 3 1 0 103 5 1 3 3 24 3 78 17 17 17 17 17 16 6 7 28
CALL[ ]	/* CallFunction */";
};
width = 647;
}
);
note = Pi;
unicode = 928;
},
{
glyphname = uni03A9;
layers = (
{
layerId = m01;
shapes = (
{
closed = 1;
nodes = (
(320,0,l),
(320,102,l),
(252,132,o),
(169,262,o),
(169,350,qs),
(169,414,o),
(218,526,o),
(319,595,o),
(394,595,qs),
(460,595,o),
(563,536,o),
(620,426,o),
(620,350,qs),
(620,262,o),
(537,132,o),
(468,102,q),
(468,0,l),
(740,0,l),
(740,98,l),
(623,98,l),
(687,142,o),
(750,279,o),
(750,363,qs),
(750,466,o),
(657,625,o),
(495,712,o),
(394,712,qs),
(294,712,o),
(132,624,o),
(39,465,o),
(39,363,qs),
(39,279,o),
(102,142,o),
(165,98,q),
(48,98,l),
(48,0,l)
);
}
);
userData = {
assembly = "NPUSHB[ ]	/* 39 values pushed */
33 19 2 0 4 1 76 0 4 4 1 97 0 1 1 23 77 2 1 0 0 3 95 5 1 3 3 24 3 78 23 39 17 22 38 16 6 7 28
CALL[ ]	/* CallFunction */";
};
width = 788;
}
);
note = uni03A9;
unicode = 937;
},
{
glyphname = uni03BC;
layers = (
{
layerId = m01;
shapes = (
{
closed = 1;
nodes = (
(193,-220,l),
(193,4,l),
(219,-12,o),
(260,-12,qs),
(318,-12,o),
(404,39,o),
(429,84,q),
(439,0,l),
(551,0,l),
(551,496,l),
(423,496,l),
(423,240,ls),
(423,173,o),
(356,96,o),
(301,96,qs),
(247,96,o),
(193,163,o),
(193,228,qs),
(193,496,l),
(65,496,l),
(65,-220,l)
);
}
);
userData = {
assembly = "PUSHB[ ]	/* 7 values pushed */
18 13 2 3 1 1 76
MPPEM[ ]	/* MeasurePixelPerEm */
PUSHB[ ]	/* 1 value pushed */
42
LT[ ]	/* LessThan */
IF[ ]	/* If */
NPUSHB[ ]	/* 27 values pushed */
2 1 0 1 0 133 0 3 3 24 77 0 1 1 4 97 0 4 4 24 77 0 5 5 25 5 78
ELSE[ ]	/* Else */
NPUSHB[ ]	/* 25 values pushed */
2 1 0 1 0 133 0 1 0 4 5 1 4 105 0 3 3 24 77 0 5 5 25 5 78
EIF[ ]	/* EndIf */
NPUSHB[ ]	/* 9 values pushed */
18 35 17 19 35 16 6 7 28
CALL[ ]	/* CallFunction */";
};
width = 617;
}
);
note = uni03BC;
unicode = 956;
},
{
glyphname = zero;
layers = (
{
layerId = m01;
shapes = (
{
closed = 1;
nodes = (
(428,-12,o),
(554,183,o),
(554,350,qs),
(554,517,o),
(428,712,o),
(291,712,qs),
(155,712,o),
(27,514,o),
(27,350,qs),
(27,186,o),
(155,-12,o),
(291,-12,qs)
);
},
{
closed = 1;
nodes = (
(224,102,o),
(157,232,o),
(157,350,qs),
(157,468,o),
(224,598,o),
(291,598,qs),
(358,598,o),
(424,468,o),
(424,350,qs),
(424,232,o),
(358,102,o),
(291,102,qs)
);
}
);
userData = {
assembly = "NPUSHB[ ]	/* 41 values pushed */
0 2 2 0 97 0 0 0 39 77 5 1 3 3 1 97 4 1 1 1 40 1 78 12 12 0 0 12 23 12 22 18 16 0 11 0 10 36 6 8 23
CALL[ ]	/* CallFunction */";
};
width = 580;
}
);
note = zero;
unicode = 48;
},
{
glyphname = one;
layers = (
{
layerId = m01;
shapes = (
{
closed = 1;
nodes = (
(553,0,l),
(553,109,l),
(388,109,l),
(388,700,l),
(321,700,l),
(85,614,l),
(85,508,l),
(267,566,l),
(267,109,l),
(79,109,l),
(79,0,l)
);
}
);
userData = {
assembly = "NPUSHB[ ]	/* 32 values pushed */
4 3 2 3 0 1 1 76 0 1 1 33 77 2 1 0 0 3 96 0 3 3 34 3 78 17 17 20 16 4 8 26
CALL[ ]	/* CallFunction */";
};
width = 580;
}
);
note = one;
unicode = 49;
},
{
glyphname = two;
layers = (
{
layerId = m01;
shapes = (
{
closed = 1;
nodes = (
(53,0,l),
(535,0,l),
(535,109,l),
(223,109,l),
(357,245,ls),
(419,307,o),
(478,374,o),
(518,456,o),
(518,502,qs),
(518,594,o),
(403,712,o),
(292,712,qs),
(185,712,o),
(57,592,o),
(54,481,q),
(178,481,l),
(178,534,o),
(235,604,o),
(289,604,qs),
(336,604,o),
(393,547,o),
(393,500,qs),
(393,462,o),
(334,384,o),
(266,314,qs),
(229,276,l),
(53,92,l)
);
}
);
userData = {
assembly = "NPUSHB[ ]	/* 43 values pushed */
26 1 4 3 1 76 0 1 0 3 0 1 3 128 0 0 0 2 97 0 2 2 39 77 0 3 3 4 95 0 4 4 34 4 78 17 23 34 18 38 5 8 27
CALL[ ]	/* CallFunction */";
};
width = 580;
}
);
note = two;
unicode = 50;
},
{
glyphname = three;
layers = (
{
layerId = m01;
shapes = (
{
closed = 1;
nodes = (
(366,-12,o),
(478,44,o),
(541,149,o),
(541,221,qs),
(541,306,o),
(437,425,o),
(341,433,q),
(519,594,l),
(519,700,l),
(61,700,l),
(61,591,l),
(361,591,l),
(148,399,l),
(219,317,l),
(254,337,o),
(293,337,qs),
(349,337,o),
(418,275,o),
(418,220,qs),
(418,161,o),
(350,97,o),
(292,97,qs),
(234,97,o),
(165,164,o),
(164,216,q),
(40,216,l),
(42,107,o),
(179,-12,o),
(292,-12,qs)
);
}
);
userData = {
assembly = "NPUSHB[ ]	/* 66 values pushed */
20 1 3 4 21 15 2 2 3 14 1 0 2 3 76 0 2 3 0 3 2 0 128 0 0 1 3 0 1 126 0 3 3 4 95 0 4 4 33 77 0 1 1 5 97 6 1 5 5 40 5 78 0 0 0 28 0 27 17 19 36 34 18 7 8 27
CALL[ ]	/* CallFunction */";
};
width = 580;
}
);
note = three;
unicode = 51;
},
{
glyphname = four;
layers = (
{
layerId = m01;
shapes = (
{
closed = 1;
nodes = (
(480,0,l),
(480,130,l),
(561,130,l),
(561,241,l),
(480,241,l),
(480,423,l),
(360,423,l),
(360,241,l),
(167,241,l),
(393,700,l),
(267,700,l),
(32,232,l),
(32,130,l),
(352,130,l),
(352,0,l)
);
}
);
userData = {
assembly = "NPUSHB[ ]	/* 45 values pushed */
2 1 0 2 1 76 0 3 1 2 1 3 2 128 4 1 2 5 1 0 6 2 0 104 0 1 1 33 77 0 6 6 34 6 78 17 17 17 17 17 18 16 7 8 29
CALL[ ]	/* CallFunction */";
};
width = 580;
}
);
note = four;
unicode = 52;
},
{
glyphname = five;
layers = (
{
layerId = m01;
shapes = (
{
closed = 1;
nodes = (
(370,-12,o),
(484,54,o),
(546,169,o),
(546,241,qs),
(546,303,o),
(520,360,qs),
(493,417,o),
(391,481,o),
(319,481,qs),
(273,481,o),
(196,451,o),
(174,426,q),
(206,588,l),
(498,588,l),
(498,700,l),
(110,700,l),
(50,300,l),
(173,300,l),
(188,334,o),
(254,377,o),
(298,377,qs),
(353,377,o),
(423,302,o),
(423,240,qs),
(423,179,o),
(352,97,o),
(296,97,qs),
(245,97,o),
(174,153,o),
(165,197,q),
(40,197,l),
(45,134,o),
(112,39,o),
(224,-12,o),
(296,-12,qs)
);
}
);
userData = {
assembly = "PUSHB[ ]	/* 6 values pushed */
22 1 2 6 1 76
MPPEM[ ]	/* MeasurePixelPerEm */
PUSHB[ ]	/* 1 value pushed */
33
LT[ ]	/* LessThan */
IF[ ]	/* If */
NPUSHB[ ]	/* 47 values pushed */
0 3 2 0 2 3 0 128 0 0 1 2 0 1 126 0 5 5 4 95 0 4 4 33 77 0 2 2 6 97 0 6 6 36 77 0 1 1 7 97 8 1 7 7 40 7 78
ELSE[ ]	/* Else */
NPUSHB[ ]	/* 45 values pushed */
0 3 2 0 2 3 0 128 0 0 1 2 0 1 126 0 6 0 2 3 6 2 105 0 5 5 4 95 0 4 4 33 77 0 1 1 7 97 8 1 7 7 40 7 78
EIF[ ]	/* EndIf */
NPUSHB[ ]	/* 16 values pushed */
0 0 0 34 0 33 35 17 17 18 36 34 19 9 8 29
CALL[ ]	/* CallFunction */";
};
width = 580;
}
);
note = five;
unicode = 53;
},
{
glyphname = six;
layers = (
{
layerId = m01;
shapes = (
{
closed = 1;
nodes = (
(381,-12,o),
(433,21,qs),
(485,54,o),
(544,162,o),
(544,225,qs),
(544,294,o),
(514,345,qs),
(485,395,o),
(387,452,o),
(332,452,qs),
(280,452,o),
(190,399,o),
(167,357,q),
(169,481,o),
(241,606,o),
(306,606,qs),
(394,606,o),
(413,510,q),
(530,510,l),
(525,564,o),
(499,609,qs),
(471,657,o),
(373,712,o),
(307,712,qs),
(223,712,o),
(164,664,qs),
(105,617,o),
(42,444,o),
(42,327,qs),
(42,262,o),
(71,142,o),
(101,95,qs),
(170,-12,o),
(311,-12,qs)
);
},
{
closed = 1;
nodes = (
(252,98,o),
(184,168,o),
(184,222,qs),
(184,273,o),
(253,344,o),
(302,344,qs),
(354,344,o),
(421,276,o),
(421,220,qs),
(421,167,o),
(355,98,o),
(304,98,qs)
);
}
);
userData = {
assembly = "NPUSHB[ ]	/* 66 values pushed */
20 1 5 3 1 76 0 1 2 3 2 1 3 128 0 3 0 5 6 3 5 105 0 2 2 0 97 0 0 0 39 77 8 1 6 6 4 97 7 1 4 4 40 4 78 34 34 0 0 34 45 34 44 40 38 0 33 0 32 36 33 20 40 9 8 26
CALL[ ]	/* CallFunction */";
};
width = 580;
}
);
note = six;
unicode = 54;
},
{
glyphname = seven;
layers = (
{
layerId = m01;
shapes = (
{
closed = 1;
nodes = (
(267,0,l),
(547,609,l),
(547,700,l),
(35,700,l),
(35,591,l),
(412,591,l),
(134,0,l)
);
}
);
userData = {
assembly = "NPUSHB[ ]	/* 28 values pushed */
4 1 0 1 1 76 0 0 0 1 95 0 1 1 33 77 0 2 2 34 2 78 18 17 16 3 8 25
CALL[ ]	/* CallFunction */";
};
width = 580;
}
);
note = seven;
unicode = 55;
},
{
glyphname = eight;
layers = (
{
layerId = m01;
shapes = (
{
closed = 1;
nodes = (
(356,-12,o),
(467,37,o),
(535,131,o),
(535,195,qs),
(535,257,o),
(475,355,o),
(419,376,q),
(464,396,o),
(518,476,o),
(518,525,qs),
(518,583,o),
(457,668,o),
(354,712,o),
(291,712,qs),
(228,712,o),
(124,668,o),
(63,583,o),
(63,525,qs),
(63,476,o),
(115,398,o),
(162,376,q),
(106,354,o),
(46,258,o),
(46,195,qs),
(46,133,o),
(112,39,o),
(224,-12,o),
(291,-12,qs)
);
},
{
closed = 1;
nodes = (
(234,95,o),
(172,156,o),
(172,206,qs),
(172,260,o),
(236,319,o),
(292,319,qs),
(347,319,o),
(410,260,o),
(410,206,qs),
(410,154,o),
(346,95,o),
(292,95,qs)
);
},
{
closed = 1;
nodes = (
(245,414,o),
(190,466,o),
(190,510,qs),
(190,557,o),
(243,608,o),
(291,608,qs),
(338,608,o),
(392,556,o),
(392,510,qs),
(392,466,o),
(337,414,o),
(291,414,qs)
);
}
);
userData = {
assembly = "NPUSHB[ ]	/* 65 values pushed */
20 6 2 2 5 1 76 8 1 5 0 2 3 5 2 105 0 4 4 0 97 0 0 0 39 77 7 1 3 3 1 97 6 1 1 1 40 1 78 40 40 28 28 0 0 40 51 40 50 46 44 28 39 28 38 34 32 0 27 0 26 44 9 8 23
CALL[ ]	/* CallFunction */";
};
width = 580;
}
);
note = eight;
unicode = 56;
},
{
glyphname = nine;
layers = (
{
layerId = m01;
shapes = (
{
closed = 1;
nodes = (
(359,-12,o),
(417,36,qs),
(476,83,o),
(539,256,o),
(539,373,qs),
(539,438,o),
(510,558,o),
(480,605,qs),
(411,712,o),
(270,712,qs),
(201,712,o),
(148,679,qs),
(96,646,o),
(37,538,o),
(37,475,qs),
(37,406,o),
(67,355,qs),
(96,305,o),
(194,248,o),
(249,248,qs),
(301,248,o),
(391,301,o),
(414,343,q),
(412,219,o),
(340,94,o),
(275,94,qs),
(187,94,o),
(168,190,q),
(51,190,l),
(56,136,o),
(82,91,qs),
(110,43,o),
(208,-12,o),
(274,-12,qs)
);
},
{
closed = 1;
nodes = (
(227,356,o),
(160,424,o),
(160,480,qs),
(160,533,o),
(226,602,o),
(277,602,qs),
(329,602,o),
(397,532,o),
(397,478,qs),
(397,427,o),
(328,356,o),
(279,356,qs)
);
}
);
userData = {
assembly = "NPUSHB[ ]	/* 66 values pushed */
10 1 2 6 1 76 0 0 2 1 2 0 1 128 8 1 6 0 2 0 6 2 105 0 5 5 3 97 0 3 3 39 77 0 1 1 4 97 7 1 4 4 40 4 78 34 34 0 0 34 45 34 44 40 38 0 33 0 32 40 36 33 20 9 8 26
CALL[ ]	/* CallFunction */";
};
width = 580;
}
);
note = nine;
unicode = 57;
},
{
glyphname = uni24EA;
layers = (
{
layerId = m01;
shapes = (
{
closed = 1;
nodes = (
(487,-12,o),
(654,85,o),
(751,252,o),
(751,350,qs),
(751,448,o),
(654,615,o),
(487,712,o),
(389,712,qs),
(291,712,o),
(124,615,o),
(27,448,o),
(27,350,qs),
(27,252,o),
(124,85,o),
(291,-12,o),
(389,-12,qs)
);
},
{
closed = 1;
nodes = (
(307,56,o),
(173,133,o),
(96,267,o),
(96,350,qs),
(96,433,o),
(173,567,o),
(307,644,o),
(389,644,qs),
(472,644,o),
(606,567,o),
(683,433,o),
(683,350,qs),
(683,267,o),
(606,133,o),
(472,56,o),
(389,56,qs)
);
},
{
closed = 1;
nodes = (
(459,165,o),
(492,215,qs),
(524,265,o),
(524,350,qs),
(524,435,o),
(492,485,qs),
(459,535,o),
(390,535,qs),
(320,535,o),
(287,484,qs),
(255,436,o),
(255,350,qs),
(255,264,o),
(287,216,qs),
(320,165,o),
(390,165,qs)
);
},
{
closed = 1;
nodes = (
(363,236,o),
(349,266,qs),
(336,295,o),
(336,350,qs),
(336,405,o),
(349,434,qs),
(362,463,o),
(390,463,qs),
(417,463,o),
(430,434,qs),
(443,402,o),
(443,350,qs),
(443,299,o),
(430,266,qs),
(417,236,o),
(390,236,qs)
);
}
);
userData = {
assembly = "NPUSHB[ ]	/* 75 values pushed */
0 4 0 6 7 4 6 105 11 1 7 10 1 5 3 7 5 105 0 2 2 0 97 0 0 0 39 77 9 1 3 3 1 97 8 1 1 1 40 1 78 48 48 32 32 16 16 0 0 48 63 48 62 56 54 32 47 32 46 40 38 16 31 16 30 24 22 0 15 0 14 38 12 8 23
CALL[ ]	/* CallFunction */";
};
width = 778;
}
);
note = uni24EA;
unicode = 9450;
},
{
glyphname = uni2780;
layers = (
{
layerId = m01;
shapes = (
{
closed = 1;
nodes = (
(487,-12,o),
(654,85,o),
(751,252,o),
(751,350,qs),
(751,448,o),
(654,615,o),
(487,712,o),
(389,712,qs),
(291,712,o),
(124,615,o),
(27,448,o),
(27,350,qs),
(27,252,o),
(124,85,o),
(291,-12,o),
(389,-12,qs)
);
},
{
closed = 1;
nodes = (
(307,56,o),
(173,133,o),
(96,267,o),
(96,350,qs),
(96,433,o),
(173,567,o),
(307,644,o),
(389,644,qs),
(472,644,o),
(606,567,o),
(683,433,o),
(683,350,qs),
(683,267,o),
(606,133,o),
(472,56,o),
(389,56,qs)
);
},
{
closed = 1;
nodes = (
(519,176,l),
(519,246,l),
(439,246,l),
(439,533,l),
(397,533,l),
(281,492,l),
(281,429,l),
(364,444,l),
(364,246,l),
(277,246,l),
(277,176,l)
);
}
);
userData = {
assembly = "NPUSHB[ ]	/* 74 values pushed */
36 35 34 3 4 5 1 76 0 5 2 4 2 5 4 128 6 1 4 0 7 3 4 7 104 0 2 2 0 97 0 0 0 39 77 9 1 3 3 1 97 8 1 1 1 40 1 78 16 16 0 0 42 41 40 39 38 37 33 32 16 31 16 30 24 22 0 15 0 14 38 10 8 23
CALL[ ]	/* CallFunction */";
};
width = 778;
}
);
note = uni2780;
unicode = 10112;
},
{
glyphname = uni2781;
layers = (
{
layerId = m01;
shapes = (
{
closed = 1;
nodes = (
(487,-12,o),
(654,85,o),
(751,252,o),
(751,350,qs),
(751,448,o),
(654,615,o),
(487,712,o),
(389,712,qs),
(291,712,o),
(124,615,o),
(27,448,o),
(27,350,qs),
(27,252,o),
(124,85,o),
(291,-12,o),
(389,-12,qs)
);
},
{
closed = 1;
nodes = (
(307,56,o),
(173,133,o),
(96,267,o),
(96,350,qs),
(96,433,o),
(173,567,o),
(307,644,o),
(389,644,qs),
(472,644,o),
(606,567,o),
(683,433,o),
(683,350,qs),
(683,267,o),
(606,133,o),
(472,56,o),
(389,56,qs)
);
},
{
closed = 1;
nodes = (
(518,176,l),
(518,246,l),
(376,246,l),
(421,290,ls),
(452,320,o),
(485,356,o),
(511,405,o),
(511,432,qs),
(511,482,o),
(445,540,o),
(391,540,qs),
(335,540,o),
(265,480,o),
(264,418,q),
(341,418,l),
(341,441,o),
(365,472,o),
(389,472,qs),
(411,472,o),
(433,449,o),
(433,428,qs),
(433,409,o),
(400,369,o),
(367,336,qs),
(264,230,l),
(264,176,l)
);
}
);
userData = {
assembly = "PUSHB[ ]	/* 6 values pushed */
32 1 8 7 1 76
MPPEM[ ]	/* MeasurePixelPerEm */
PUSHB[ ]	/* 1 value pushed */
23
LT[ ]	/* LessThan */
IF[ ]	/* If */
NPUSHB[ ]	/* 46 values pushed */
0 5 4 7 4 5 114 0 6 0 4 5 6 4 105 0 7 0 8 3 7 8 103 0 2 2 0 97 0 0 0 39 77 10 1 3 3 1 97 9 1 1 1 40 1 78
ELSE[ ]	/* Else */
NPUSHB[ ]	/* 47 values pushed */
0 5 4 7 4 5 7 128 0 6 0 4 5 6 4 105 0 7 0 8 3 7 8 103 0 2 2 0 97 0 0 0 39 77 10 1 3 3 1 97 9 1 1 1 40 1 78
EIF[ ]	/* EndIf */
NPUSHB[ ]	/* 28 values pushed */
16 16 0 0 57 56 55 54 47 45 43 42 40 38 16 31 16 30 24 22 0 15 0 14 38 11 8 23
CALL[ ]	/* CallFunction */";
};
width = 778;
}
);
note = uni2781;
unicode = 10113;
},
{
glyphname = uni2782;
layers = (
{
layerId = m01;
shapes = (
{
closed = 1;
nodes = (
(487,-12,o),
(654,85,o),
(751,252,o),
(751,350,qs),
(751,448,o),
(654,615,o),
(487,712,o),
(389,712,qs),
(291,712,o),
(124,615,o),
(27,448,o),
(27,350,qs),
(27,252,o),
(124,85,o),
(291,-12,o),
(389,-12,qs)
);
},
{
closed = 1;
nodes = (
(307,56,o),
(173,133,o),
(96,267,o),
(96,350,qs),
(96,433,o),
(173,567,o),
(307,644,o),
(389,644,qs),
(472,644,o),
(606,567,o),
(683,433,o),
(683,350,qs),
(683,267,o),
(606,133,o),
(472,56,o),
(389,56,qs)
);
},
{
closed = 1;
nodes = (
(447,158,o),
(520,223,o),
(520,280,qs),
(520,322,o),
(478,382,o),
(431,390,q),
(509,454,l),
(509,522,l),
(267,522,l),
(267,453,l),
(409,453,l),
(310,370,l),
(353,320,l),
(370,330,o),
(390,330,qs),
(411,330,o),
(443,304,o),
(443,279,qs),
(443,252,o),
(414,227,o),
(390,227,qs),
(367,227,o),
(336,254,o),
(336,283,q),
(259,283,l),
(258,222,o),
(329,158,o),
(390,158,qs)
);
}
);
userData = {
assembly = "NPUSHB[ ]	/* 15 values pushed */
52 1 7 8 53 47 2 6 7 46 1 4 6 3 76
MPPEM[ ]	/* MeasurePixelPerEm */
PUSHB[ ]	/* 1 value pushed */
11
LT[ ]	/* LessThan */
IF[ ]	/* If */
NPUSHB[ ]	/* 53 values pushed */
0 6 7 4 7 6 114 0 4 5 5 4 112 0 8 0 7 6 8 7 103 0 5 12 1 9 3 5 9 106 0 2 2 0 97 0 0 0 39 77 11 1 3 3 1 97 10 1 1 1 40 1 78
ELSE[ ]	/* Else */
MPPEM[ ]	/* MeasurePixelPerEm */
PUSHB[ ]	/* 1 value pushed */
23
LT[ ]	/* LessThan */
IF[ ]	/* If */
NPUSHB[ ]	/* 54 values pushed */
0 6 7 4 7 6 4 128 0 4 5 5 4 112 0 8 0 7 6 8 7 103 0 5 12 1 9 3 5 9 106 0 2 2 0 97 0 0 0 39 77 11 1 3 3 1 97 10 1 1 1 40 1 78
ELSE[ ]	/* Else */
NPUSHB[ ]	/* 55 values pushed */
0 6 7 4 7 6 4 128 0 4 5 7 4 5 126 0 8 0 7 6 8 7 103 0 5 12 1 9 3 5 9 106 0 2 2 0 97 0 0 0 39 77 11 1 3 3 1 97 10 1 1 1 40 1 78
EIF[ ]	/* EndIf */
EIF[ ]	/* EndIf */
NPUSHB[ ]	/* 34 values pushed */
32 32 16 16 0 0 32 59 32 58 51 50 49 48 45 43 39 37 35 34 16 31 16 30 24 22 0 15 0 14 38 13 8 23
CALL[ ]	/* CallFunction */";
};
width = 778;
}
);
note = uni2782;
unicode = 10114;
},
{
glyphname = uni2783;
layers = (
{
layerId = m01;
shapes = (
{
closed = 1;
nodes = (
(487,-12,o),
(654,85,o),
(751,252,o),
(751,350,qs),
(751,448,o),
(654,615,o),
(487,712,o),
(389,712,qs),
(291,712,o),
(124,615,o),
(27,448,o),
(27,350,qs),
(27,252,o),
(124,85,o),
(291,-12,o),
(389,-12,qs)
);
},
{
closed = 1;
nodes = (
(482,176,l),
(482,236,l),
(516,236,l),
(516,305,l),
(482,305,l),
(482,392,l),
(407,392,l),
(407,305,l),
(322,305,l),
(433,533,l),
(355,533,l),
(237,301,l),
(237,236,l),
(401,236,l),
(401,176,l)
);
},
{
closed = 1;
nodes = (
(307,56,o),
(173,133,o),
(96,267,o),
(96,350,qs),
(96,433,o),
(173,567,o),
(307,644,o),
(389,644,qs),
(472,644,o),
(606,567,o),
(683,433,o),
(683,350,qs),
(683,267,o),
(606,133,o),
(472,56,o),
(389,56,qs)
);
}
);
userData = {
assembly = "NPUSHB[ ]	/* 87 values pushed */
18 1 2 4 1 76 0 3 9 5 9 3 5 128 6 1 4 7 1 2 8 4 2 104 0 5 0 8 10 5 8 103 0 9 9 0 97 0 0 0 39 77 12 1 10 10 1 97 11 1 1 1 40 1 78 31 31 0 0 31 46 31 45 39 37 30 29 28 27 26 25 24 23 22 21 20 19 17 16 0 15 0 14 38 13 8 23
CALL[ ]	/* CallFunction */";
};
width = 778;
}
);
note = uni2783;
unicode = 10115;
},
{
glyphname = uni2784;
layers = (
{
layerId = m01;
shapes = (
{
closed = 1;
nodes = (
(487,-12,o),
(654,85,o),
(751,252,o),
(751,350,qs),
(751,448,o),
(654,615,o),
(487,712,o),
(389,712,qs),
(291,712,o),
(124,615,o),
(27,448,o),
(27,350,qs),
(27,252,o),
(124,85,o),
(291,-12,o),
(389,-12,qs)
);
},
{
closed = 1;
nodes = (
(307,56,o),
(173,133,o),
(96,267,o),
(96,350,qs),
(96,433,o),
(173,567,o),
(307,644,o),
(389,644,qs),
(472,644,o),
(606,567,o),
(683,433,o),
(683,350,qs),
(683,267,o),
(606,133,o),
(472,56,o),
(389,56,qs)
);
},
{
closed = 1;
nodes = (
(449,160,o),
(522,234,o),
(522,291,qs),
(522,341,o),
(463,413,o),
(407,413,qs),
(388,413,o),
(351,400,o),
(339,388,q),
(353,454,l),
(499,454,l),
(499,524,l),
(293,524,l),
(263,314,l),
(340,314,l),
(346,329,o),
(376,348,o),
(393,348,qs),
(417,348,o),
(445,316,o),
(445,291,qs),
(445,265,o),
(415,229,o),
(392,229,qs),
(372,229,o),
(342,251,o),
(337,270,q),
(259,270,l),
(261,218,o),
(336,160,o),
(392,160,qs)
);
}
);
userData = {
assembly = "PUSHB[ ]	/* 6 values pushed */
53 1 6 10 1 76
MPPEM[ ]	/* MeasurePixelPerEm */
PUSHB[ ]	/* 1 value pushed */
9
LT[ ]	/* LessThan */
IF[ ]	/* If */
NPUSHB[ ]	/* 62 values pushed */
0 7 6 4 9 7 114 0 4 5 6 4 5 126 0 8 0 9 10 8 9 103 0 10 0 6 7 10 6 105 0 5 14 1 11 3 5 11 105 0 2 2 0 97 0 0 0 39 77 13 1 3 3 1 98 12 1 1 1 40 1 78
ELSE[ ]	/* Else */
NPUSHB[ ]	/* 63 values pushed */
0 7 6 4 6 7 4 128 0 4 5 6 4 5 126 0 8 0 9 10 8 9 103 0 10 0 6 7 10 6 105 0 5 14 1 11 3 5 11 105 0 2 2 0 97 0 0 0 39 77 13 1 3 3 1 98 12 1 1 1 40 1 78
EIF[ ]	/* EndIf */
NPUSHB[ ]	/* 38 values pushed */
32 32 16 16 0 0 32 62 32 61 57 55 52 51 50 49 48 47 45 43 39 37 35 34 16 31 16 30 24 22 0 15 0 14 38 15 8 23
CALL[ ]	/* CallFunction */";
};
width = 778;
}
);
note = uni2784;
unicode = 10116;
},
{
glyphname = uni2785;
layers = (
{
layerId = m01;
shapes = (
{
closed = 1;
nodes = (
(487,-12,o),
(654,85,o),
(751,252,o),
(751,350,qs),
(751,448,o),
(654,615,o),
(487,712,o),
(389,712,qs),
(291,712,o),
(124,615,o),
(27,448,o),
(27,350,qs),
(27,252,o),
(124,85,o),
(291,-12,o),
(389,-12,qs)
);
},
{
closed = 1;
nodes = (
(307,56,o),
(173,133,o),
(96,267,o),
(96,350,qs),
(96,433,o),
(173,567,o),
(307,644,o),
(389,644,qs),
(472,644,o),
(606,567,o),
(683,433,o),
(683,350,qs),
(683,267,o),
(606,133,o),
(472,56,o),
(389,56,qs)
);
},
{
closed = 1;
nodes = (
(369,233,o),
(341,263,o),
(341,286,qs),
(341,308,o),
(369,336,o),
(390,336,qs),
(411,336,o),
(441,310,o),
(441,284,qs),
(441,259,o),
(411,233,o),
(392,233,qs)
);
},
{
closed = 1;
nodes = (
(451,165,o),
(517,237,o),
(517,287,qs),
(517,333,o),
(459,404,o),
(413,404,qs),
(387,404,o),
(345,378,o),
(334,359,q),
(335,407,o),
(359,470,o),
(393,470,qs),
(412,470,o),
(435,448,o),
(439,428,q),
(512,428,l),
(510,474,o),
(444,535,o),
(393,535,qs),
(323,535,o),
(254,422,o),
(254,340,qs),
(254,264,o),
(325,165,o),
(396,165,qs)
);
}
);
userData = {
assembly = "PUSHB[ ]	/* 6 values pushed */
59 1 4 9 1 76
MPPEM[ ]	/* MeasurePixelPerEm */
PUSHB[ ]	/* 1 value pushed */
30
LT[ ]	/* LessThan */
IF[ ]	/* If */
NPUSHB[ ]	/* 56 values pushed */
0 7 8 9 8 7 114 0 6 0 8 7 6 8 105 0 9 0 4 5 9 4 105 13 1 5 14 1 10 3 5 10 105 0 2 2 0 97 0 0 0 39 77 12 1 3 3 1 97 11 1 1 1 40 1 78
ELSE[ ]	/* Else */
NPUSHB[ ]	/* 57 values pushed */
0 7 8 9 8 7 9 128 0 6 0 8 7 6 8 105 0 9 0 4 5 9 4 105 13 1 5 14 1 10 3 5 10 105 0 2 2 0 97 0 0 0 39 77 12 1 3 3 1 97 11 1 1 1 40 1 78
EIF[ ]	/* EndIf */
NPUSHB[ ]	/* 40 values pushed */
44 44 32 32 16 16 0 0 44 68 44 67 63 61 57 55 53 52 50 48 32 43 32 42 38 36 16 31 16 30 24 22 0 15 0 14 38 15 8 23
CALL[ ]	/* CallFunction */";
};
width = 778;
}
);
note = uni2785;
unicode = 10117;
},
{
glyphname = uni2786;
layers = (
{
layerId = m01;
shapes = (
{
closed = 1;
nodes = (
(487,-12,o),
(654,85,o),
(751,252,o),
(751,350,qs),
(751,448,o),
(654,615,o),
(487,712,o),
(389,712,qs),
(291,712,o),
(124,615,o),
(27,448,o),
(27,350,qs),
(27,252,o),
(124,85,o),
(291,-12,o),
(389,-12,qs)
);
},
{
closed = 1;
nodes = (
(388,167,l),
(526,468,l),
(526,524,l),
(257,524,l),
(257,456,l),
(440,456,l),
(305,167,l)
);
},
{
closed = 1;
nodes = (
(307,56,o),
(173,133,o),
(96,267,o),
(96,350,qs),
(96,433,o),
(173,567,o),
(307,644,o),
(389,644,qs),
(472,644,o),
(606,567,o),
(683,433,o),
(683,350,qs),
(683,267,o),
(606,133,o),
(472,56,o),
(389,56,qs)
);
}
);
userData = {
assembly = "NPUSHB[ ]	/* 69 values pushed */
20 1 2 3 1 76 0 4 2 6 2 4 6 128 0 3 0 2 4 3 2 103 0 5 5 0 97 0 0 0 39 77 8 1 6 6 1 97 7 1 1 1 40 1 78 23 23 0 0 23 38 23 37 31 29 22 21 19 18 17 16 0 15 0 14 38 9 8 23
CALL[ ]	/* CallFunction */";
};
width = 778;
}
);
note = uni2786;
unicode = 10118;
},
{
glyphname = uni2787;
layers = (
{
layerId = m01;
shapes = (
{
closed = 1;
nodes = (
(487,-12,o),
(654,85,o),
(751,252,o),
(751,350,qs),
(751,448,o),
(654,615,o),
(487,712,o),
(389,712,qs),
(291,712,o),
(124,615,o),
(27,448,o),
(27,350,qs),
(27,252,o),
(124,85,o),
(291,-12,o),
(389,-12,qs)
);
},
{
closed = 1;
nodes = (
(340,231,o),
(340,280,qs),
(340,305,o),
(368,330,o),
(391,330,qs),
(414,330,o),
(440,303,o),
(440,280,qs),
(440,257,o),
(414,231,o),
(391,231,qs)
);
},
{
closed = 1;
nodes = (
(307,56,o),
(173,133,o),
(96,267,o),
(96,350,qs),
(96,433,o),
(173,567,o),
(307,644,o),
(389,644,qs),
(472,644,o),
(606,567,o),
(683,433,o),
(683,350,qs),
(683,267,o),
(606,133,o),
(472,56,o),
(389,56,qs)
);
},
{
closed = 1;
nodes = (
(444,165,o),
(518,222,o),
(518,272,qs),
(518,340,o),
(464,364,q),
(483,374,o),
(509,413,o),
(509,439,qs),
(509,487,o),
(438,535,o),
(390,535,qs),
(337,535,o),
(269,484,o),
(269,439,qs),
(269,393,o),
(315,364,q),
(261,337,o),
(261,272,qs),
(261,224,o),
(337,165,o),
(390,165,qs)
);
},
{
closed = 1;
nodes = (
(371,386,o),
(349,408,o),
(349,428,qs),
(349,471,o),
(390,471,qs),
(430,471,o),
(430,428,qs),
(430,386,o),
(390,386,qs)
);
}
);
userData = {
assembly = "NPUSHB[ ]	/* 99 values pushed */
58 47 2 2 9 1 76 0 6 0 8 9 6 8 105 14 1 9 0 2 3 9 2 105 11 1 3 13 1 7 5 3 7 105 0 4 4 0 97 0 0 0 39 77 12 1 5 5 1 97 10 1 1 1 40 1 78 64 64 43 43 27 27 16 16 0 0 64 72 64 71 68 66 43 63 43 62 53 51 27 42 27 41 35 33 16 26 16 25 22 20 0 15 0 14 38 15 8 23
CALL[ ]	/* CallFunction */";
};
width = 778;
}
);
note = uni2787;
unicode = 10119;
},
{
glyphname = uni2788;
layers = (
{
layerId = m01;
shapes = (
{
closed = 1;
nodes = (
(487,-12,o),
(654,85,o),
(751,252,o),
(751,350,qs),
(751,448,o),
(654,615,o),
(487,712,o),
(389,712,qs),
(291,712,o),
(124,615,o),
(27,448,o),
(27,350,qs),
(27,252,o),
(124,85,o),
(291,-12,o),
(389,-12,qs)
);
},
{
closed = 1;
nodes = (
(307,56,o),
(173,133,o),
(96,267,o),
(96,350,qs),
(96,433,o),
(173,567,o),
(307,644,o),
(389,644,qs),
(472,644,o),
(606,567,o),
(683,433,o),
(683,350,qs),
(683,267,o),
(606,133,o),
(472,56,o),
(389,56,qs)
);
},
{
closed = 1;
nodes = (
(453,165,o),
(523,274,o),
(523,360,qs),
(523,435,o),
(455,535,o),
(381,535,qs),
(327,535,o),
(261,464,o),
(261,413,qs),
(261,374,o),
(294,321,o),
(342,296,o),
(365,296,qs),
(391,296,o),
(431,322,o),
(444,341,q),
(441,230,o),
(385,230,qs),
(349,230,o),
(339,272,q),
(266,272,l),
(266,246,o),
(294,196,o),
(348,165,o),
(384,165,qs)
);
},
{
closed = 1;
nodes = (
(365,364,o),
(336,393,o),
(336,416,qs),
(336,438,o),
(365,467,o),
(385,467,qs),
(407,467,o),
(437,437,o),
(437,414,qs),
(437,393,o),
(408,364,o),
(387,364,qs)
);
}
);
userData = {
assembly = "NPUSHB[ ]	/* 103 values pushed */
40 1 6 10 1 76 0 4 6 5 6 4 5 128 0 7 0 9 10 7 9 105 14 1 10 0 6 4 10 6 105 0 5 13 1 8 3 5 8 105 0 2 2 0 97 0 0 0 39 77 12 1 3 3 1 98 11 1 1 1 40 1 78 57 57 32 32 16 16 0 0 57 68 57 67 63 61 32 56 32 55 51 49 44 42 39 37 36 35 16 31 16 30 24 22 0 15 0 14 38 15 8 23
CALL[ ]	/* CallFunction */";
};
width = 778;
}
);
note = uni2788;
unicode = 10120;
},
{
glyphname = uni278A;
layers = (
{
layerId = m01;
shapes = (
{
closed = 1;
nodes = (
(487,-12,o),
(654,85,o),
(751,252,o),
(751,350,qs),
(751,448,o),
(654,615,o),
(487,712,o),
(389,712,qs),
(291,712,o),
(124,615,o),
(27,448,o),
(27,350,qs),
(27,252,o),
(124,85,o),
(291,-12,o),
(389,-12,qs)
);
},
{
closed = 1;
nodes = (
(277,246,l),
(364,246,l),
(364,444,l),
(281,429,l),
(281,492,l),
(397,533,l),
(439,533,l),
(439,246,l),
(519,246,l),
(519,176,l),
(277,176,l)
);
}
);
userData = {
assembly = "NPUSHB[ ]	/* 62 values pushed */
23 22 21 3 2 3 1 76 4 1 2 3 5 3 2 5 128 0 3 3 0 97 0 0 0 39 77 7 1 5 5 1 97 6 1 1 1 40 1 78 16 16 0 0 16 26 16 26 25 24 20 19 18 17 0 15 0 14 38 8 8 23
CALL[ ]	/* CallFunction */";
};
width = 778;
}
);
note = uni278A;
unicode = 10122;
},
{
glyphname = uni278B;
layers = (
{
layerId = m01;
shapes = (
{
closed = 1;
nodes = (
(487,-12,o),
(654,85,o),
(751,252,o),
(751,350,qs),
(751,448,o),
(654,615,o),
(487,712,o),
(389,712,qs),
(291,712,o),
(124,615,o),
(27,448,o),
(27,350,qs),
(27,252,o),
(124,85,o),
(291,-12,o),
(389,-12,qs)
);
},
{
closed = 1;
nodes = (
(264,230,l),
(367,336,ls),
(400,369,o),
(433,409,o),
(433,428,qs),
(433,449,o),
(411,472,o),
(389,472,qs),
(365,472,o),
(341,441,o),
(341,418,q),
(264,418,l),
(265,480,o),
(335,540,o),
(391,540,qs),
(445,540,o),
(511,482,o),
(511,432,qs),
(511,405,o),
(485,356,o),
(452,320,o),
(421,290,qs),
(376,246,l),
(518,246,l),
(518,176,l),
(264,176,l)
);
}
);
userData = {
assembly = "PUSHB[ ]	/* 6 values pushed */
40 1 6 2 1 76
MPPEM[ ]	/* MeasurePixelPerEm */
PUSHB[ ]	/* 1 value pushed */
21
LT[ ]	/* LessThan */
IF[ ]	/* If */
NPUSHB[ ]	/* 41 values pushed */
0 4 5 2 5 4 2 128 0 3 3 0 97 0 0 0 39 77 0 2 2 5 97 0 5 5 36 77 8 1 6 6 1 98 7 1 1 1 40 1 78
ELSE[ ]	/* Else */
NPUSHB[ ]	/* 39 values pushed */
0 4 5 2 5 4 2 128 0 5 0 2 6 5 2 103 0 3 3 0 97 0 0 0 39 77 8 1 6 6 1 98 7 1 1 1 40 1 78
EIF[ ]	/* EndIf */
NPUSHB[ ]	/* 24 values pushed */
16 16 0 0 16 41 16 41 34 32 30 29 27 25 18 17 0 15 0 14 38 9 8 23
CALL[ ]	/* CallFunction */";
};
width = 778;
}
);
note = uni278B;
unicode = 10123;
},
{
glyphname = uni278C;
layers = (
{
layerId = m01;
shapes = (
{
closed = 1;
nodes = (
(487,-12,o),
(654,85,o),
(751,252,o),
(751,350,qs),
(751,448,o),
(654,615,o),
(487,712,o),
(389,712,qs),
(291,712,o),
(124,615,o),
(27,448,o),
(27,350,qs),
(27,252,o),
(124,85,o),
(291,-12,o),
(389,-12,qs)
);
},
{
closed = 1;
nodes = (
(329,158,o),
(258,222,o),
(259,283,q),
(336,283,l),
(336,254,o),
(367,227,o),
(390,227,qs),
(414,227,o),
(443,252,o),
(443,279,qs),
(443,304,o),
(411,330,o),
(390,330,qs),
(370,330,o),
(353,320,q),
(310,370,l),
(409,453,l),
(267,453,l),
(267,522,l),
(509,522,l),
(509,454,l),
(431,390,l),
(478,382,o),
(520,322,o),
(520,280,qs),
(520,223,o),
(447,158,o),
(390,158,qs)
);
}
);
userData = {
assembly = "NPUSHB[ ]	/* 80 values pushed */
22 1 3 2 27 21 2 4 3 28 1 6 4 3 76 0 3 0 6 5 3 6 103 0 4 0 5 7 4 5 105 0 2 2 0 97 0 0 0 39 77 9 1 7 7 1 97 8 1 1 1 40 1 78 16 16 0 0 16 43 16 42 40 39 37 35 31 29 26 25 24 23 0 15 0 14 38 10 8 23
CALL[ ]	/* CallFunction */";
};
width = 778;
}
);
note = uni278C;
unicode = 10124;
},
{
glyphname = uni278D;
layers = (
{
layerId = m01;
shapes = (
{
closed = 1;
nodes = (
(487,-12,o),
(654,85,o),
(751,252,o),
(751,350,qs),
(751,448,o),
(654,615,o),
(487,712,o),
(389,712,qs),
(291,712,o),
(124,615,o),
(27,448,o),
(27,350,qs),
(27,252,o),
(124,85,o),
(291,-12,o),
(389,-12,qs)
);
},
{
closed = 1;
nodes = (
(401,236,l),
(237,236,l),
(237,301,l),
(355,533,l),
(433,533,l),
(322,305,l),
(407,305,l),
(407,392,l),
(482,392,l),
(482,305,l),
(516,305,l),
(516,236,l),
(482,236,l),
(482,176,l),
(401,176,l)
);
}
);
userData = {
assembly = "PUSHB[ ]	/* 6 values pushed */
27 1 2 3 1 76
MPPEM[ ]	/* MeasurePixelPerEm */
PUSHB[ ]	/* 1 value pushed */
9
LT[ ]	/* LessThan */
IF[ ]	/* If */
NPUSHB[ ]	/* 45 values pushed */
0 4 6 3 6 4 114 5 1 3 2 6 3 2 126 7 1 2 8 8 2 112 0 6 6 0 97 0 0 0 39 77 10 1 8 8 1 98 9 1 1 1 40 1 78
ELSE[ ]	/* Else */
MPPEM[ ]	/* MeasurePixelPerEm */
PUSHB[ ]	/* 1 value pushed */
21
LT[ ]	/* LessThan */
IF[ ]	/* If */
NPUSHB[ ]	/* 46 values pushed */
0 4 6 3 6 4 3 128 5 1 3 2 6 3 2 126 7 1 2 8 8 2 112 0 6 6 0 97 0 0 0 39 77 10 1 8 8 1 98 9 1 1 1 40 1 78
ELSE[ ]	/* Else */
NPUSHB[ ]	/* 47 values pushed */
0 4 6 3 6 4 3 128 5 1 3 2 6 3 2 126 7 1 2 8 6 2 8 126 0 6 6 0 97 0 0 0 39 77 10 1 8 8 1 98 9 1 1 1 40 1 78
EIF[ ]	/* EndIf */
EIF[ ]	/* EndIf */
NPUSHB[ ]	/* 28 values pushed */
16 16 0 0 16 30 16 30 29 28 26 25 24 23 22 21 20 19 18 17 0 15 0 14 38 11 8 23
CALL[ ]	/* CallFunction */";
};
width = 778;
}
);
note = uni278D;
unicode = 10125;
},
{
glyphname = uni278E;
layers = (
{
layerId = m01;
shapes = (
{
closed = 1;
nodes = (
(487,-12,o),
(654,85,o),
(751,252,o),
(751,350,qs),
(751,448,o),
(654,615,o),
(487,712,o),
(389,712,qs),
(291,712,o),
(124,615,o),
(27,448,o),
(27,350,qs),
(27,252,o),
(124,85,o),
(291,-12,o),
(389,-12,qs)
);
},
{
closed = 1;
nodes = (
(336,160,o),
(261,218,o),
(259,270,q),
(337,270,l),
(342,251,o),
(372,229,o),
(392,229,qs),
(415,229,o),
(445,265,o),
(445,291,qs),
(445,316,o),
(417,348,o),
(393,348,qs),
(376,348,o),
(346,329,o),
(340,314,q),
(263,314,l),
(293,524,l),
(499,524,l),
(499,454,l),
(353,454,l),
(339,388,l),
(351,400,o),
(388,413,o),
(407,413,qs),
(463,413,o),
(522,341,o),
(522,291,qs),
(522,234,o),
(449,160,o),
(392,160,qs)
);
}
);
userData = {
assembly = "NPUSHB[ ]	/* 83 values pushed */
24 1 6 2 1 76 0 3 0 2 6 3 2 105 0 5 0 8 7 5 8 103 0 6 0 7 9 6 7 105 0 4 4 0 97 0 0 0 39 77 11 1 9 9 1 97 10 1 1 1 40 1 78 16 16 0 0 16 46 16 45 43 42 40 38 34 32 30 29 28 27 26 25 22 20 0 15 0 14 38 12 8 23
CALL[ ]	/* CallFunction */";
};
width = 778;
}
);
note = uni278E;
unicode = 10126;
},
{
glyphname = uni278F;
layers = (
{
layerId = m01;
shapes = (
{
closed = 1;
nodes = (
(487,-12,o),
(654,85,o),
(751,252,o),
(751,350,qs),
(751,448,o),
(654,615,o),
(487,712,o),
(389,712,qs),
(291,712,o),
(124,615,o),
(27,448,o),
(27,350,qs),
(27,252,o),
(124,85,o),
(291,-12,o),
(389,-12,qs)
);
},
{
closed = 1;
nodes = (
(411,233,o),
(441,259,o),
(441,284,qs),
(441,310,o),
(411,336,o),
(390,336,qs),
(369,336,o),
(341,308,o),
(341,286,qs),
(341,263,o),
(369,233,o),
(392,233,qs)
);
},
{
closed = 1;
nodes = (
(325,165,o),
(254,264,o),
(254,340,qs),
(254,422,o),
(323,535,o),
(393,535,qs),
(444,535,o),
(510,474,o),
(512,428,q),
(439,428,l),
(435,448,o),
(412,470,o),
(393,470,qs),
(359,470,o),
(335,407,o),
(334,359,q),
(345,378,o),
(387,404,o),
(413,404,qs),
(459,404,o),
(517,333,o),
(517,287,qs),
(517,237,o),
(451,165,o),
(396,165,qs)
);
}
);
userData = {
assembly = "PUSHB[ ]	/* 6 values pushed */
36 1 2 4 1 76
MPPEM[ ]	/* MeasurePixelPerEm */
PUSHB[ ]	/* 1 value pushed */
30
LT[ ]	/* LessThan */
IF[ ]	/* If */
NPUSHB[ ]	/* 47 values pushed */
0 6 5 4 5 6 114 0 5 0 4 2 5 4 105 0 2 10 1 3 8 2 3 105 0 7 7 0 97 0 0 0 39 77 11 1 8 8 1 97 9 1 1 1 40 1 78
ELSE[ ]	/* Else */
NPUSHB[ ]	/* 48 values pushed */
0 6 5 4 5 6 4 128 0 5 0 4 2 5 4 105 0 2 10 1 3 8 2 3 105 0 7 7 0 97 0 0 0 39 77 11 1 8 8 1 97 9 1 1 1 40 1 78
EIF[ ]	/* EndIf */
NPUSHB[ ]	/* 32 values pushed */
28 28 16 16 0 0 28 52 28 51 47 45 43 42 40 38 34 32 16 27 16 26 22 20 0 15 0 14 38 12 8 23
CALL[ ]	/* CallFunction */";
};
width = 778;
}
);
note = uni278F;
unicode = 10127;
},
{
glyphname = uni2790;
layers = (
{
layerId = m01;
shapes = (
{
closed = 1;
nodes = (
(487,-12,o),
(654,85,o),
(751,252,o),
(751,350,qs),
(751,448,o),
(654,615,o),
(487,712,o),
(389,712,qs),
(291,712,o),
(124,615,o),
(27,448,o),
(27,350,qs),
(27,252,o),
(124,85,o),
(291,-12,o),
(389,-12,qs)
);
},
{
closed = 1;
nodes = (
(440,456,l),
(257,456,l),
(257,524,l),
(526,524,l),
(526,468,l),
(388,167,l),
(305,167,l)
);
}
);
userData = {
assembly = "NPUSHB[ ]	/* 57 values pushed */
17 1 3 2 1 76 0 3 2 4 2 3 4 128 0 2 2 0 97 0 0 0 39 77 6 1 4 4 1 98 5 1 1 1 40 1 78 16 16 0 0 16 22 16 22 21 20 19 18 0 15 0 14 38 7 8 23
CALL[ ]	/* CallFunction */";
};
width = 778;
}
);
note = uni2790;
unicode = 10128;
},
{
glyphname = uni2791;
layers = (
{
layerId = m01;
shapes = (
{
closed = 1;
nodes = (
(487,-12,o),
(654,85,o),
(751,252,o),
(751,350,qs),
(751,448,o),
(654,615,o),
(487,712,o),
(389,712,qs),
(291,712,o),
(124,615,o),
(27,448,o),
(27,350,qs),
(27,252,o),
(124,85,o),
(291,-12,o),
(389,-12,qs)
);
},
{
closed = 1;
nodes = (
(337,165,o),
(261,224,o),
(261,272,qs),
(261,337,o),
(315,364,q),
(269,393,o),
(269,439,qs),
(269,484,o),
(337,535,o),
(390,535,qs),
(438,535,o),
(509,487,o),
(509,439,qs),
(509,413,o),
(483,374,o),
(464,364,q),
(518,340,o),
(518,272,qs),
(518,222,o),
(444,165,o),
(390,165,qs)
);
},
{
closed = 1;
nodes = (
(414,231,o),
(440,257,o),
(440,280,qs),
(440,303,o),
(414,330,o),
(391,330,qs),
(368,330,o),
(340,305,o),
(340,280,qs),
(340,231,o),
(391,231,qs)
);
},
{
closed = 1;
nodes = (
(430,386,o),
(430,428,qs),
(430,471,o),
(390,471,qs),
(349,471,o),
(349,428,qs),
(349,408,o),
(371,386,o),
(390,386,qs)
);
}
);
userData = {
assembly = "NPUSHB[ ]	/* 82 values pushed */
31 20 2 4 7 1 76 0 6 11 1 7 4 6 7 105 0 4 10 1 5 3 4 5 105 0 2 2 0 97 0 0 0 39 77 9 1 3 3 1 97 8 1 1 1 40 1 78 48 48 37 37 16 16 0 0 48 56 48 55 53 51 37 47 37 46 42 40 16 36 16 35 27 25 0 15 0 14 38 12 8 23
CALL[ ]	/* CallFunction */";
};
width = 778;
}
);
note = uni2791;
unicode = 10129;
},
{
glyphname = uni2792;
layers = (
{
layerId = m01;
shapes = (
{
closed = 1;
nodes = (
(487,-12,o),
(654,85,o),
(751,252,o),
(751,350,qs),
(751,448,o),
(654,615,o),
(487,712,o),
(389,712,qs),
(291,712,o),
(124,615,o),
(27,448,o),
(27,350,qs),
(27,252,o),
(124,85,o),
(291,-12,o),
(389,-12,qs)
);
},
{
closed = 1;
nodes = (
(348,165,o),
(294,196,o),
(266,246,o),
(266,272,q),
(339,272,l),
(349,230,o),
(385,230,qs),
(441,230,o),
(444,341,q),
(431,322,o),
(391,296,o),
(365,296,qs),
(342,296,o),
(294,321,o),
(261,374,o),
(261,413,qs),
(261,464,o),
(327,535,o),
(381,535,qs),
(455,535,o),
(523,435,o),
(523,360,qs),
(523,274,o),
(453,165,o),
(384,165,qs)
);
},
{
closed = 1;
nodes = (
(408,364,o),
(437,393,o),
(437,414,qs),
(437,437,o),
(407,467,o),
(385,467,qs),
(365,467,o),
(336,438,o),
(336,416,qs),
(336,393,o),
(365,364,o),
(387,364,qs)
);
}
);
userData = {
assembly = "NPUSHB[ ]	/* 86 values pushed */
31 1 3 8 1 76 0 5 3 4 3 5 4 128 0 7 11 1 8 3 7 8 105 0 3 0 4 6 3 4 105 0 2 2 0 97 0 0 0 39 77 10 1 6 6 1 97 9 1 1 1 40 1 78 41 41 16 16 0 0 41 52 41 51 47 45 16 40 16 39 36 35 34 32 29 27 22 20 0 15 0 14 38 12 8 23
CALL[ ]	/* CallFunction */";
};
width = 778;
}
);
note = uni2792;
unicode = 10130;
},
{
glyphname = uni24EA.solid;
layers = (
{
layerId = m01;
shapes = (
{
closed = 1;
nodes = (
(487,-12,o),
(654,85,o),
(751,252,o),
(751,350,qs),
(751,448,o),
(654,615,o),
(487,712,o),
(389,712,qs),
(291,712,o),
(124,615,o),
(27,448,o),
(27,350,qs),
(27,252,o),
(124,85,o),
(291,-12,o),
(389,-12,qs)
);
},
{
closed = 1;
nodes = (
(320,165,o),
(287,216,qs),
(255,264,o),
(255,350,qs),
(255,436,o),
(287,484,qs),
(320,535,o),
(390,535,qs),
(459,535,o),
(492,485,qs),
(524,435,o),
(524,350,qs),
(524,265,o),
(492,215,qs),
(459,165,o),
(390,165,qs)
);
},
{
closed = 1;
nodes = (
(417,236,o),
(430,266,qs),
(443,299,o),
(443,350,qs),
(443,402,o),
(430,434,qs),
(417,463,o),
(390,463,qs),
(362,463,o),
(349,434,qs),
(336,405,o),
(336,350,qs),
(336,295,o),
(349,266,qs),
(363,236,o),
(390,236,qs)
);
}
);
userData = {
assembly = "NPUSHB[ ]	/* 58 values pushed */
0 4 8 1 5 3 4 5 105 0 2 2 0 97 0 0 0 39 77 7 1 3 3 1 97 6 1 1 1 40 1 78 32 32 16 16 0 0 32 47 32 46 40 38 16 31 16 30 24 22 0 15 0 14 38 9 8 23
CALL[ ]	/* CallFunction */";
};
width = 778;
}
);
note = uni24EA.solid;
},
{
glyphname = zero.dnom;
layers = (
{
layerId = m01;
shapes = (
{
closed = 1;
nodes = (
(232,-5,o),
(296,95,o),
(296,177,qs),
(296,258,o),
(232,358,o),
(162,358,qs),
(93,358,o),
(28,257,o),
(28,177,qs),
(28,96,o),
(92,-5,o),
(162,-5,qs)
);
},
{
closed = 1;
nodes = (
(138,65,o),
(105,114,o),
(105,177,qs),
(105,239,o),
(138,288,o),
(162,288,qs),
(218,288,o),
(218,177,qs),
(218,65,o),
(162,65,qs)
);
}
);
userData = {
assembly = "NPUSHB[ ]	/* 39 values pushed */
0 0 0 2 3 0 2 105 5 1 3 3 1 97 4 1 1 1 34 1 78 12 12 0 0 12 21 12 20 16 14 0 11 0 10 36 6 8 23
CALL[ ]	/* CallFunction */";
};
width = 324;
}
);
note = zero.dnom;
},
{
glyphname = one.dnom;
layers = (
{
layerId = m01;
shapes = (
{
closed = 1;
nodes = (
(284,0,l),
(284,68,l),
(204,68,l),
(204,353,l),
(163,353,l),
(43,309,l),
(43,247,l),
(130,267,l),
(130,68,l),
(40,68,l),
(40,0,l)
);
}
);
userData = {
assembly = "NPUSHB[ ]	/* 32 values pushed */
4 3 2 3 0 1 1 76 0 1 0 1 133 2 1 0 0 3 96 0 3 3 34 3 78 17 17 20 16 4 8 26
CALL[ ]	/* CallFunction */";
};
width = 316;
}
);
note = one.dnom;
},
{
glyphname = two.dnom;
layers = (
{
layerId = m01;
shapes = (
{
closed = 1;
nodes = (
(30,0,l),
(278,0,l),
(278,68,l),
(138,68,l),
(197,128,ls),
(235,166,o),
(269,217,o),
(269,249,qs),
(269,301,o),
(206,358,o),
(153,358,qs),
(98,358,o),
(32,295,o),
(31,239,q),
(106,239,l),
(106,260,o),
(128,291,o),
(152,291,qs),
(171,291,o),
(194,268,o),
(194,248,qs),
(194,232,o),
(166,196,o),
(135,164,qs),
(30,55,l)
);
}
);
userData = {
assembly = "PUSHB[ ]	/* 6 values pushed */
24 1 4 3 1 76
MPPEM[ ]	/* MeasurePixelPerEm */
PUSHB[ ]	/* 1 value pushed */
25
LT[ ]	/* LessThan */
IF[ ]	/* If */
NPUSHB[ ]	/* 26 values pushed */
0 1 0 3 0 1 114 0 2 0 0 1 2 0 105 0 3 3 4 95 0 4 4 34 4 78
ELSE[ ]	/* Else */
NPUSHB[ ]	/* 27 values pushed */
0 1 0 3 0 1 3 128 0 2 0 0 1 2 0 105 0 3 3 4 95 0 4 4 34 4 78
EIF[ ]	/* EndIf */
PUSHB[ ]	/* 8 values pushed */
17 22 34 18 37 5 8 27
CALL[ ]	/* CallFunction */";
};
width = 311;
}
);
note = two.dnom;
},
{
glyphname = three.dnom;
layers = (
{
layerId = m01;
shapes = (
{
closed = 1;
nodes = (
(217,-5,o),
(286,60,o),
(286,115,qs),
(286,156,o),
(239,214,o),
(199,222,q),
(275,291,l),
(275,353,l),
(40,353,l),
(40,285,l),
(172,285,l),
(79,201,l),
(122,151,l),
(142,163,o),
(159,163,qs),
(182,163,o),
(212,137,o),
(212,114,qs),
(212,89,o),
(184,63,o),
(159,63,qs),
(134,63,o),
(105,90,o),
(105,112,q),
(30,112,l),
(30,56,o),
(101,-5,o),
(159,-5,qs)
);
}
);
userData = {
assembly = "NPUSHB[ ]	/* 15 values pushed */
20 1 3 4 21 15 2 2 3 14 1 0 2 3 76
MPPEM[ ]	/* MeasurePixelPerEm */
PUSHB[ ]	/* 1 value pushed */
11
LT[ ]	/* LessThan */
IF[ ]	/* If */
NPUSHB[ ]	/* 33 values pushed */
0 2 3 0 3 2 114 0 0 1 1 0 112 0 4 0 3 2 4 3 103 0 1 1 5 98 6 1 5 5 34 5 78
ELSE[ ]	/* Else */
MPPEM[ ]	/* MeasurePixelPerEm */
PUSHB[ ]	/* 1 value pushed */
25
LT[ ]	/* LessThan */
IF[ ]	/* If */
NPUSHB[ ]	/* 34 values pushed */
0 2 3 0 3 2 0 128 0 0 1 1 0 112 0 4 0 3 2 4 3 103 0 1 1 5 98 6 1 5 5 34 5 78
ELSE[ ]	/* Else */
NPUSHB[ ]	/* 35 values pushed */
0 2 3 0 3 2 0 128 0 0 1 3 0 1 126 0 4 0 3 2 4 3 103 0 1 1 5 98 6 1 5 5 34 5 78
EIF[ ]	/* EndIf */
EIF[ ]	/* EndIf */
NPUSHB[ ]	/* 14 values pushed */
0 0 0 27 0 26 17 19 36 34 18 7 8 27
CALL[ ]	/* CallFunction */";
};
width = 316;
}
);
note = three.dnom;
},
{
glyphname = four.dnom;
layers = (
{
layerId = m01;
shapes = (
{
closed = 1;
nodes = (
(250,0,l),
(250,63,l),
(289,63,l),
(289,132,l),
(250,132,l),
(250,220,l),
(177,220,l),
(177,132,l),
(104,132,l),
(213,353,l),
(135,353,l),
(19,122,l),
(19,63,l),
(173,63,l),
(173,0,l)
);
}
);
userData = {
assembly = "NPUSHB[ ]	/* 42 values pushed */
2 1 0 2 1 76 0 1 3 1 133 4 1 2 5 1 0 6 2 0 104 0 3 3 6 95 0 6 6 34 6 78 17 17 17 17 17 18 16 7 8 29
CALL[ ]	/* CallFunction */";
};
width = 304;
}
);
note = four.dnom;
},
{
glyphname = five.dnom;
layers = (
{
layerId = m01;
shapes = (
{
closed = 1;
nodes = (
(212,-5,o),
(284,68,o),
(284,124,qs),
(284,177,o),
(222,247,o),
(167,247,qs),
(133,247,o),
(109,232,q),
(119,284,l),
(261,284,l),
(261,353,l),
(60,353,l),
(29,145,l),
(102,145,l),
(118,182,o),
(157,182,qs),
(180,182,o),
(210,150,o),
(210,124,qs),
(210,97,o),
(179,63,o),
(156,63,qs),
(135,63,o),
(105,86,o),
(101,105,q),
(25,105,l),
(29,53,o),
(99,-5,o),
(156,-5,qs)
);
}
);
userData = {
assembly = "PUSHB[ ]	/* 6 values pushed */
20 1 2 6 1 76
MPPEM[ ]	/* MeasurePixelPerEm */
PUSHB[ ]	/* 1 value pushed */
9
LT[ ]	/* LessThan */
IF[ ]	/* If */
NPUSHB[ ]	/* 42 values pushed */
0 3 2 0 5 3 114 0 0 1 2 0 1 126 0 4 0 5 6 4 5 103 0 6 0 2 3 6 2 105 0 1 1 7 97 8 1 7 7 34 7 78
ELSE[ ]	/* Else */
NPUSHB[ ]	/* 43 values pushed */
0 3 2 0 2 3 0 128 0 0 1 2 0 1 126 0 4 0 5 6 4 5 103 0 6 0 2 3 6 2 105 0 1 1 7 97 8 1 7 7 34 7 78
EIF[ ]	/* EndIf */
NPUSHB[ ]	/* 16 values pushed */
0 0 0 28 0 27 34 17 17 17 36 34 18 9 8 29
CALL[ ]	/* CallFunction */";
};
width = 312;
}
);
note = five.dnom;
},
{
glyphname = six.dnom;
layers = (
{
layerId = m01;
shapes = (
{
closed = 1;
nodes = (
(218,-5,o),
(284,66,o),
(284,116,qs),
(284,171,o),
(218,233,o),
(175,233,qs),
(156,233,o),
(119,218,o),
(105,204,q),
(113,292,o),
(163,292,qs),
(198,292,o),
(206,254,q),
(278,254,l),
(273,301,o),
(212,358,o),
(163,358,qs),
(94,358,o),
(28,244,o),
(28,165,qs),
(28,92,o),
(97,-5,o),
(165,-5,qs)
);
},
{
closed = 1;
nodes = (
(140,63,o),
(112,92,o),
(112,115,qs),
(112,137,o),
(140,166,o),
(161,166,qs),
(183,166,o),
(210,137,o),
(210,114,qs),
(210,92,o),
(183,63,o),
(162,63,qs)
);
}
);
userData = {
assembly = "PUSHB[ ]	/* 6 values pushed */
13 1 5 3 1 76
MPPEM[ ]	/* MeasurePixelPerEm */
PUSHB[ ]	/* 1 value pushed */
33
LT[ ]	/* LessThan */
IF[ ]	/* If */
NPUSHB[ ]	/* 36 values pushed */
0 1 2 3 2 1 114 0 0 0 2 1 0 2 105 0 3 0 5 6 3 5 105 8 1 6 6 4 97 7 1 4 4 34 4 78
ELSE[ ]	/* Else */
NPUSHB[ ]	/* 37 values pushed */
0 1 2 3 2 1 3 128 0 0 0 2 1 0 2 105 0 3 0 5 6 3 5 105 8 1 6 6 4 97 7 1 4 4 34 4 78
EIF[ ]	/* EndIf */
NPUSHB[ ]	/* 21 values pushed */
23 23 0 0 23 34 23 33 29 27 0 22 0 21 35 33 18 36 9 8 26
CALL[ ]	/* CallFunction */";
};
width = 312;
}
);
note = six.dnom;
},
{
glyphname = seven.dnom;
layers = (
{
layerId = m01;
shapes = (
{
closed = 1;
nodes = (
(152,-1,l),
(290,299,l),
(290,352,l),
(28,352,l),
(28,284,l),
(205,284,l),
(71,-1,l)
);
}
);
userData = {
assembly = "NPUSHB[ ]	/* 26 values pushed */
4 1 0 1 1 76 0 1 0 0 2 1 0 103 0 2 2 34 2 78 18 17 16 3 8 25
CALL[ ]	/* CallFunction */";
};
width = 318;
}
);
note = seven.dnom;
},
{
glyphname = eight.dnom;
layers = (
{
layerId = m01;
shapes = (
{
closed = 1;
nodes = (
(204,-5,o),
(277,53,o),
(277,102,qs),
(277,130,o),
(253,177,o),
(230,189,q),
(248,201,o),
(269,239,o),
(269,261,qs),
(269,306,o),
(202,358,o),
(152,358,qs),
(102,358,o),
(35,306,o),
(35,261,qs),
(35,216,o),
(74,189,q),
(52,176,o),
(27,131,o),
(27,102,qs),
(27,55,o),
(97,-5,o),
(152,-5,qs)
);
},
{
closed = 1;
nodes = (
(129,62,o),
(103,85,o),
(103,107,qs),
(103,129,o),
(129,154,o),
(152,154,qs),
(176,154,o),
(201,130,o),
(201,107,qs),
(201,85,o),
(174,62,o),
(152,62,qs)
);
},
{
closed = 1;
nodes = (
(133,215,o),
(111,236,o),
(111,253,qs),
(111,272,o),
(132,293,o),
(152,293,qs),
(171,293,o),
(193,272,o),
(193,253,qs),
(193,236,o),
(171,215,o),
(152,215,qs)
);
}
);
userData = {
assembly = "NPUSHB[ ]	/* 63 values pushed */
16 5 2 2 5 1 76 0 0 0 4 5 0 4 105 8 1 5 0 2 3 5 2 105 7 1 3 3 1 97 6 1 1 1 34 1 78 35 35 23 23 0 0 35 46 35 45 41 39 23 34 23 33 29 27 0 22 0 21 41 9 8 23
CALL[ ]	/* CallFunction */";
};
width = 304;
}
);
note = eight.dnom;
},
{
glyphname = nine.dnom;
layers = (
{
layerId = m01;
shapes = (
{
closed = 1;
nodes = (
(217,-5,o),
(285,108,o),
(285,188,qs),
(285,261,o),
(216,358,o),
(148,358,qs),
(95,358,o),
(28,287,o),
(28,237,qs),
(28,188,o),
(91,120,o),
(138,120,qs),
(157,120,o),
(194,135,o),
(208,149,q),
(200,61,o),
(150,61,qs),
(114,61,o),
(107,101,q),
(35,101,l),
(40,53,o),
(100,-5,o),
(150,-5,qs)
);
},
{
closed = 1;
nodes = (
(130,187,o),
(103,216,o),
(103,239,qs),
(103,261,o),
(130,290,o),
(151,290,qs),
(173,290,o),
(201,261,o),
(201,238,qs),
(201,216,o),
(173,187,o),
(152,187,qs)
);
}
);
userData = {
assembly = "PUSHB[ ]	/* 6 values pushed */
7 1 2 6 1 76
MPPEM[ ]	/* MeasurePixelPerEm */
PUSHB[ ]	/* 1 value pushed */
31
LT[ ]	/* LessThan */
IF[ ]	/* If */
NPUSHB[ ]	/* 36 values pushed */
0 0 2 1 1 0 114 0 3 0 5 6 3 5 105 8 1 6 0 2 0 6 2 105 0 1 1 4 98 7 1 4 4 34 4 78
ELSE[ ]	/* Else */
NPUSHB[ ]	/* 37 values pushed */
0 0 2 1 2 0 1 128 0 3 0 5 6 3 5 105 8 1 6 0 2 0 6 2 105 0 1 1 4 98 7 1 4 4 34 4 78
EIF[ ]	/* EndIf */
NPUSHB[ ]	/* 21 values pushed */
23 23 0 0 23 34 23 33 29 27 0 22 0 21 36 35 33 18 9 8 26
CALL[ ]	/* CallFunction */";
};
width = 313;
}
);
note = nine.dnom;
},
{
glyphname = zero.numr;
layers = (
{
layerId = m01;
shapes = (
{
closed = 1;
nodes = (
(232,342,o),
(296,442,o),
(296,524,qs),
(296,605,o),
(232,705,o),
(162,705,qs),
(93,705,o),
(28,604,o),
(28,524,qs),
(28,443,o),
(92,342,o),
(162,342,qs)
);
},
{
closed = 1;
nodes = (
(138,412,o),
(105,461,o),
(105,524,qs),
(105,586,o),
(138,635,o),
(162,635,qs),
(218,635,o),
(218,524,qs),
(218,412,o),
(162,412,qs)
);
}
);
userData = {
assembly = "NPUSHB[ ]	/* 38 values pushed */
5 1 3 4 1 1 3 1 101 0 2 2 0 97 0 0 0 33 2 78 12 12 0 0 12 21 12 20 16 14 0 11 0 10 36 6 8 23
CALL[ ]	/* CallFunction */";
};
width = 324;
}
);
note = zero.numr;
},
{
glyphname = one.numr;
layers = (
{
layerId = m01;
shapes = (
{
closed = 1;
nodes = (
(284,347,l),
(284,415,l),
(204,415,l),
(204,700,l),
(163,700,l),
(43,656,l),
(43,594,l),
(130,614,l),
(130,415,l),
(40,415,l),
(40,347,l)
);
}
);
userData = {
assembly = "NPUSHB[ ]	/* 29 values pushed */
4 3 2 3 0 1 1 76 2 1 0 0 3 0 3 100 0 1 1 33 1 78 17 17 20 16 4 8 26
CALL[ ]	/* CallFunction */";
};
width = 316;
}
);
note = one.numr;
},
{
glyphname = two.numr;
layers = (
{
layerId = m01;
shapes = (
{
closed = 1;
nodes = (
(30,347,l),
(278,347,l),
(278,415,l),
(138,415,l),
(197,475,ls),
(235,513,o),
(269,564,o),
(269,596,qs),
(269,648,o),
(206,705,o),
(153,705,qs),
(98,705,o),
(32,642,o),
(31,586,q),
(106,586,l),
(106,607,o),
(128,638,o),
(152,638,qs),
(171,638,o),
(194,615,o),
(194,595,qs),
(194,579,o),
(166,543,o),
(135,511,qs),
(30,402,l)
);
}
);
userData = {
assembly = "PUSHB[ ]	/* 6 values pushed */
24 1 4 3 1 76
MPPEM[ ]	/* MeasurePixelPerEm */
PUSHB[ ]	/* 1 value pushed */
25
LT[ ]	/* LessThan */
IF[ ]	/* If */
NPUSHB[ ]	/* 25 values pushed */
0 1 0 3 0 1 114 0 3 0 4 3 4 99 0 0 0 2 97 0 2 2 33 0 78
ELSE[ ]	/* Else */
NPUSHB[ ]	/* 26 values pushed */
0 1 0 3 0 1 3 128 0 3 0 4 3 4 99 0 0 0 2 97 0 2 2 33 0 78
EIF[ ]	/* EndIf */
PUSHB[ ]	/* 8 values pushed */
17 22 34 18 37 5 8 27
CALL[ ]	/* CallFunction */";
};
width = 311;
}
);
note = two.numr;
},
{
glyphname = three.numr;
layers = (
{
layerId = m01;
shapes = (
{
closed = 1;
nodes = (
(217,342,o),
(286,407,o),
(286,462,qs),
(286,503,o),
(239,561,o),
(199,569,q),
(275,638,l),
(275,700,l),
(40,700,l),
(40,632,l),
(172,632,l),
(79,548,l),
(122,498,l),
(142,510,o),
(159,510,qs),
(182,510,o),
(212,484,o),
(212,461,qs),
(212,436,o),
(184,410,o),
(159,410,qs),
(134,410,o),
(105,437,o),
(105,459,q),
(30,459,l),
(30,403,o),
(101,342,o),
(159,342,qs)
);
}
);
userData = {
assembly = "NPUSHB[ ]	/* 15 values pushed */
20 1 3 4 21 15 2 2 3 14 1 0 2 3 76
MPPEM[ ]	/* MeasurePixelPerEm */
PUSHB[ ]	/* 1 value pushed */
11
LT[ ]	/* LessThan */
IF[ ]	/* If */
NPUSHB[ ]	/* 32 values pushed */
0 2 3 0 3 2 114 0 0 1 1 0 112 0 1 6 1 5 1 5 102 0 3 3 4 95 0 4 4 33 3 78
ELSE[ ]	/* Else */
MPPEM[ ]	/* MeasurePixelPerEm */
PUSHB[ ]	/* 1 value pushed */
25
LT[ ]	/* LessThan */
IF[ ]	/* If */
NPUSHB[ ]	/* 33 values pushed */
0 2 3 0 3 2 0 128 0 0 1 1 0 112 0 1 6 1 5 1 5 102 0 3 3 4 95 0 4 4 33 3 78
ELSE[ ]	/* Else */
NPUSHB[ ]	/* 34 values pushed */
0 2 3 0 3 2 0 128 0 0 1 3 0 1 126 0 1 6 1 5 1 5 102 0 3 3 4 95 0 4 4 33 3 78
EIF[ ]	/* EndIf */
EIF[ ]	/* EndIf */
NPUSHB[ ]	/* 14 values pushed */
0 0 0 27 0 26 17 19 36 34 18 7 8 27
CALL[ ]	/* CallFunction */";
};
width = 316;
}
);
note = three.numr;
},
{
glyphname = four.numr;
layers = (
{
layerId = m01;
shapes = (
{
closed = 1;
nodes = (
(250,347,l),
(250,410,l),
(289,410,l),
(289,479,l),
(250,479,l),
(250,567,l),
(177,567,l),
(177,479,l),
(104,479,l),
(213,700,l),
(135,700,l),
(19,469,l),
(19,410,l),
(173,410,l),
(173,347,l)
);
}
);
userData = {
assembly = "PUSHB[ ]	/* 6 values pushed */
2 1 0 2 1 76
MPPEM[ ]	/* MeasurePixelPerEm */
PUSHB[ ]	/* 1 value pushed */
29
LT[ ]	/* LessThan */
IF[ ]	/* If */
NPUSHB[ ]	/* 25 values pushed */
0 3 0 6 3 6 99 0 1 1 33 77 5 1 0 0 2 95 4 1 2 2 36 0 78
ELSE[ ]	/* Else */
NPUSHB[ ]	/* 23 values pushed */
4 1 2 5 1 0 6 2 0 104 0 3 0 6 3 6 99 0 1 1 33 1 78
EIF[ ]	/* EndIf */
NPUSHB[ ]	/* 10 values pushed */
17 17 17 17 17 18 16 7 8 29
CALL[ ]	/* CallFunction */";
};
width = 304;
}
);
note = four.numr;
},
{
glyphname = five.numr;
layers = (
{
layerId = m01;
shapes = (
{
closed = 1;
nodes = (
(212,342,o),
(284,415,o),
(284,471,qs),
(284,524,o),
(222,594,o),
(167,594,qs),
(133,594,o),
(109,579,q),
(119,631,l),
(261,631,l),
(261,700,l),
(60,700,l),
(29,492,l),
(102,492,l),
(118,529,o),
(157,529,qs),
(180,529,o),
(210,497,o),
(210,471,qs),
(210,444,o),
(179,410,o),
(156,410,qs),
(135,410,o),
(105,433,o),
(101,452,q),
(25,452,l),
(29,400,o),
(99,342,o),
(156,342,qs)
);
}
);
userData = {
assembly = "PUSHB[ ]	/* 6 values pushed */
20 1 2 6 1 76
MPPEM[ ]	/* MeasurePixelPerEm */
PUSHB[ ]	/* 1 value pushed */
9
LT[ ]	/* LessThan */
IF[ ]	/* If */
NPUSHB[ ]	/* 41 values pushed */
0 3 2 0 5 3 114 0 0 1 2 0 1 126 0 6 0 2 3 6 2 105 0 1 8 1 7 1 7 101 0 5 5 4 95 0 4 4 33 5 78
ELSE[ ]	/* Else */
NPUSHB[ ]	/* 42 values pushed */
0 3 2 0 2 3 0 128 0 0 1 2 0 1 126 0 6 0 2 3 6 2 105 0 1 8 1 7 1 7 101 0 5 5 4 95 0 4 4 33 5 78
EIF[ ]	/* EndIf */
NPUSHB[ ]	/* 16 values pushed */
0 0 0 28 0 27 34 17 17 17 36 34 18 9 8 29
CALL[ ]	/* CallFunction */";
};
width = 312;
}
);
note = five.numr;
},
{
glyphname = six.numr;
layers = (
{
layerId = m01;
shapes = (
{
closed = 1;
nodes = (
(218,342,o),
(284,413,o),
(284,463,qs),
(284,518,o),
(218,580,o),
(175,580,qs),
(156,580,o),
(119,565,o),
(105,551,q),
(113,639,o),
(163,639,qs),
(198,639,o),
(206,601,q),
(278,601,l),
(273,648,o),
(212,705,o),
(163,705,qs),
(94,705,o),
(28,591,o),
(28,512,qs),
(28,439,o),
(97,342,o),
(165,342,qs)
);
},
{
closed = 1;
nodes = (
(140,410,o),
(112,439,o),
(112,462,qs),
(112,484,o),
(140,513,o),
(161,513,qs),
(183,513,o),
(210,484,o),
(210,461,qs),
(210,439,o),
(183,410,o),
(162,410,qs)
);
}
);
userData = {
assembly = "PUSHB[ ]	/* 6 values pushed */
13 1 5 3 1 76
MPPEM[ ]	/* MeasurePixelPerEm */
PUSHB[ ]	/* 1 value pushed */
33
LT[ ]	/* LessThan */
IF[ ]	/* If */
NPUSHB[ ]	/* 35 values pushed */
0 1 2 3 2 1 114 0 3 0 5 6 3 5 105 8 1 6 7 1 4 6 4 101 0 2 2 0 97 0 0 0 33 2 78
ELSE[ ]	/* Else */
NPUSHB[ ]	/* 36 values pushed */
0 1 2 3 2 1 3 128 0 3 0 5 6 3 5 105 8 1 6 7 1 4 6 4 101 0 2 2 0 97 0 0 0 33 2 78
EIF[ ]	/* EndIf */
NPUSHB[ ]	/* 21 values pushed */
23 23 0 0 23 34 23 33 29 27 0 22 0 21 35 33 18 36 9 8 26
CALL[ ]	/* CallFunction */";
};
width = 312;
}
);
note = six.numr;
},
{
glyphname = seven.numr;
layers = (
{
layerId = m01;
shapes = (
{
closed = 1;
nodes = (
(152,346,l),
(290,646,l),
(290,699,l),
(28,699,l),
(28,631,l),
(205,631,l),
(71,346,l)
);
}
);
userData = {
assembly = "NPUSHB[ ]	/* 28 values pushed */
4 1 0 1 1 76 0 2 0 2 134 0 0 0 1 95 0 1 1 33 0 78 18 17 16 3 8 25
CALL[ ]	/* CallFunction */";
};
width = 318;
}
);
note = seven.numr;
},
{
glyphname = eight.numr;
layers = (
{
layerId = m01;
shapes = (
{
closed = 1;
nodes = (
(204,342,o),
(277,400,o),
(277,449,qs),
(277,477,o),
(253,524,o),
(230,536,q),
(248,548,o),
(269,586,o),
(269,608,qs),
(269,653,o),
(202,705,o),
(152,705,qs),
(102,705,o),
(35,653,o),
(35,608,qs),
(35,563,o),
(74,536,q),
(52,523,o),
(27,478,o),
(27,449,qs),
(27,402,o),
(97,342,o),
(152,342,qs)
);
},
{
closed = 1;
nodes = (
(129,409,o),
(103,432,o),
(103,454,qs),
(103,476,o),
(129,501,o),
(152,501,qs),
(176,501,o),
(201,477,o),
(201,454,qs),
(201,432,o),
(174,409,o),
(152,409,qs)
);
},
{
closed = 1;
nodes = (
(133,562,o),
(111,583,o),
(111,600,qs),
(111,619,o),
(132,640,o),
(152,640,qs),
(171,640,o),
(193,619,o),
(193,600,qs),
(193,583,o),
(171,562,o),
(152,562,qs)
);
}
);
userData = {
assembly = "NPUSHB[ ]	/* 62 values pushed */
16 5 2 2 5 1 76 8 1 5 0 2 3 5 2 105 7 1 3 6 1 1 3 1 101 0 4 4 0 97 0 0 0 33 4 78 35 35 23 23 0 0 35 46 35 45 41 39 23 34 23 33 29 27 0 22 0 21 41 9 8 23
CALL[ ]	/* CallFunction */";
};
width = 304;
}
);
note = eight.numr;
},
{
glyphname = nine.numr;
layers = (
{
layerId = m01;
shapes = (
{
closed = 1;
nodes = (
(217,342,o),
(285,455,o),
(285,535,qs),
(285,608,o),
(216,705,o),
(148,705,qs),
(95,705,o),
(28,634,o),
(28,584,qs),
(28,535,o),
(91,467,o),
(138,467,qs),
(157,467,o),
(194,482,o),
(208,496,q),
(200,408,o),
(150,408,qs),
(114,408,o),
(107,448,q),
(35,448,l),
(40,400,o),
(100,342,o),
(150,342,qs)
);
},
{
closed = 1;
nodes = (
(130,534,o),
(103,563,o),
(103,586,qs),
(103,608,o),
(130,637,o),
(151,637,qs),
(173,637,o),
(201,608,o),
(201,585,qs),
(201,563,o),
(173,534,o),
(152,534,qs)
);
}
);
userData = {
assembly = "PUSHB[ ]	/* 6 values pushed */
7 1 2 6 1 76
MPPEM[ ]	/* MeasurePixelPerEm */
PUSHB[ ]	/* 1 value pushed */
31
LT[ ]	/* LessThan */
IF[ ]	/* If */
NPUSHB[ ]	/* 35 values pushed */
0 0 2 1 1 0 114 8 1 6 0 2 0 6 2 105 0 1 7 1 4 1 4 102 0 5 5 3 97 0 3 3 33 5 78
ELSE[ ]	/* Else */
NPUSHB[ ]	/* 36 values pushed */
0 0 2 1 2 0 1 128 8 1 6 0 2 0 6 2 105 0 1 7 1 4 1 4 102 0 5 5 3 97 0 3 3 33 5 78
EIF[ ]	/* EndIf */
NPUSHB[ ]	/* 21 values pushed */
23 23 0 0 23 34 23 33 29 27 0 22 0 21 36 35 33 18 9 8 26
CALL[ ]	/* CallFunction */";
};
width = 313;
}
);
note = nine.numr;
},
{
glyphname = fraction;
layers = (
{
layerId = m01;
shapes = (
{
closed = 1;
nodes = (
(91,0,l),
(611,700,l),
(513,700,l),
(-7,0,l)
);
}
);
userData = {
assembly = "NPUSHB[ ]	/* 16 values pushed */
0 0 0 33 77 0 1 1 34 1 78 17 16 2 8 24
CALL[ ]	/* CallFunction */";
};
width = 599;
}
);
note = fraction;
unicode = 8260;
},
{
glyphname = onehalf;
layers = (
{
layerId = m01;
shapes = (
{
closed = 1;
nodes = (
(279,347,l),
(279,415,l),
(199,415,l),
(199,700,l),
(158,700,l),
(38,656,l),
(38,594,l),
(125,614,l),
(125,415,l),
(35,415,l),
(35,347,l)
);
},
{
closed = 1;
nodes = (
(184,0,l),
(704,700,l),
(606,700,l),
(86,0,l)
);
},
{
closed = 1;
nodes = (
(725,0,l),
(725,68,l),
(585,68,l),
(644,128,ls),
(682,166,o),
(716,217,o),
(716,249,qs),
(716,301,o),
(653,358,o),
(600,358,qs),
(545,358,o),
(479,295,o),
(478,239,q),
(553,239,l),
(553,260,o),
(575,291,o),
(599,291,qs),
(618,291,o),
(641,268,o),
(641,248,qs),
(641,232,o),
(613,196,o),
(582,164,qs),
(477,55,l),
(477,0,l)
);
}
);
userData = {
assembly = "PUSHB[ ]	/* 2 values pushed */
6 100
WCVTP[ ]	/* WriteCVTInPixels */
NPUSHB[ ]	/* 12 values pushed */
4 3 2 3 0 1 15 1 5 9 2 76
MPPEM[ ]	/* MeasurePixelPerEm */
PUSHB[ ]	/* 1 value pushed */
25
LT[ ]	/* LessThan */
IF[ ]	/* If */
NPUSHB[ ]	/* 47 values pushed */
4 1 1 0 1 133 0 7 6 9 6 7 114 2 1 0 0 3 6 0 3 104 0 8 0 6 7 8 6 105 0 9 5 5 9 87 0 9 9 5 95 10 1 5 9 5 79
ELSE[ ]	/* Else */
NPUSHB[ ]	/* 48 values pushed */
4 1 1 0 1 133 0 7 6 9 6 7 9 128 2 1 0 0 3 6 0 3 104 0 8 0 6 7 8 6 105 0 9 5 5 9 87 0 9 9 5 95 10 1 5 9 5 79
EIF[ ]	/* EndIf */
NPUSHB[ ]	/* 16 values pushed */
39 38 37 36 34 18 39 17 17 17 17 20 16 11 8 31
CALL[ ]	/* CallFunction */
PUSHB[ ]	/* 2 values pushed */
6 0
WCVTP[ ]	/* WriteCVTInPixels */";
};
width = 770;
}
);
note = onehalf;
unicode = 189;
},
{
glyphname = onequarter;
layers = (
{
layerId = m01;
shapes = (
{
closed = 1;
nodes = (
(178,0,l),
(698,700,l),
(600,700,l),
(80,0,l)
);
},
{
closed = 1;
nodes = (
(279,347,l),
(279,415,l),
(199,415,l),
(199,700,l),
(158,700,l),
(38,656,l),
(38,594,l),
(125,614,l),
(125,415,l),
(35,415,l),
(35,347,l)
);
},
{
closed = 1;
nodes = (
(685,0,l),
(685,63,l),
(724,63,l),
(724,132,l),
(685,132,l),
(685,220,l),
(612,220,l),
(612,132,l),
(529,132,l),
(638,353,l),
(560,353,l),
(444,122,l),
(444,63,l),
(608,63,l),
(608,0,l)
);
}
);
userData = {
assembly = "PUSHB[ ]	/* 2 values pushed */
6 100
WCVTP[ ]	/* WriteCVTInPixels */
NPUSHB[ ]	/* 82 values pushed */
8 7 6 3 2 0 17 1 6 8 2 76 3 1 0 2 0 133 0 7 2 5 2 7 5 128 4 1 2 0 5 9 2 5 104 0 9 8 1 9 87 10 1 8 11 1 6 1 8 6 104 0 9 9 1 95 12 1 1 9 1 79 29 28 27 26 25 24 23 22 17 18 17 17 17 20 17 17 16 13 8 31
CALL[ ]	/* CallFunction */
PUSHB[ ]	/* 2 values pushed */
6 0
WCVTP[ ]	/* WriteCVTInPixels */";
};
width = 765;
}
);
note = onequarter;
unicode = 188;
},
{
glyphname = threequarters;
layers = (
{
layerId = m01;
shapes = (
{
closed = 1;
nodes = (
(188,0,l),
(708,700,l),
(610,700,l),
(90,0,l)
);
},
{
closed = 1;
nodes = (
(695,0,l),
(695,63,l),
(734,63,l),
(734,132,l),
(695,132,l),
(695,220,l),
(622,220,l),
(622,132,l),
(539,132,l),
(648,353,l),
(570,353,l),
(454,122,l),
(454,63,l),
(618,63,l),
(618,0,l)
);
},
{
closed = 1;
nodes = (
(227,342,o),
(296,407,o),
(296,462,qs),
(296,503,o),
(249,561,o),
(209,569,q),
(285,638,l),
(285,700,l),
(50,700,l),
(50,632,l),
(182,632,l),
(89,548,l),
(132,498,l),
(152,510,o),
(169,510,qs),
(192,510,o),
(222,484,o),
(222,461,qs),
(222,436,o),
(194,410,o),
(169,410,qs),
(144,410,o),
(115,437,o),
(115,459,q),
(40,459,l),
(40,403,o),
(111,342,o),
(169,342,qs)
);
}
);
userData = {
assembly = "PUSHB[ ]	/* 2 values pushed */
6 100
WCVTP[ ]	/* WriteCVTInPixels */
NPUSHB[ ]	/* 19 values pushed */
39 1 12 0 40 34 2 11 12 33 1 9 11 6 1 2 4 4 76
MPPEM[ ]	/* MeasurePixelPerEm */
PUSHB[ ]	/* 1 value pushed */
11
LT[ ]	/* LessThan */
IF[ ]	/* If */
NPUSHB[ ]	/* 66 values pushed */
0 11 12 9 12 11 114 0 9 10 10 9 112 0 3 10 14 10 3 14 128 13 1 0 0 12 11 0 12 103 0 10 15 1 14 5 10 14 106 0 5 4 1 5 87 6 1 4 7 1 2 1 4 2 104 0 5 5 1 95 8 1 1 5 1 79
ELSE[ ]	/* Else */
MPPEM[ ]	/* MeasurePixelPerEm */
PUSHB[ ]	/* 1 value pushed */
25
LT[ ]	/* LessThan */
IF[ ]	/* If */
NPUSHB[ ]	/* 67 values pushed */
0 11 12 9 12 11 9 128 0 9 10 10 9 112 0 3 10 14 10 3 14 128 13 1 0 0 12 11 0 12 103 0 10 15 1 14 5 10 14 106 0 5 4 1 5 87 6 1 4 7 1 2 1 4 2 104 0 5 5 1 95 8 1 1 5 1 79
ELSE[ ]	/* Else */
NPUSHB[ ]	/* 68 values pushed */
0 11 12 9 12 11 9 128 0 9 10 12 9 10 126 0 3 10 14 10 3 14 128 13 1 0 0 12 11 0 12 103 0 10 15 1 14 5 10 14 106 0 5 4 1 5 87 6 1 4 7 1 2 1 4 2 104 0 5 5 1 95 8 1 1 5 1 79
EIF[ ]	/* EndIf */
EIF[ ]	/* EndIf */
NPUSHB[ ]	/* 28 values pushed */
19 19 19 46 19 45 38 37 36 35 32 30 26 24 22 21 17 17 17 17 17 18 17 17 16 16 8 31
CALL[ ]	/* CallFunction */
PUSHB[ ]	/* 2 values pushed */
6 0
WCVTP[ ]	/* WriteCVTInPixels */";
};
width = 775;
}
);
note = threequarters;
unicode = 190;
},
{
glyphname = oneeighth;
layers = (
{
layerId = m01;
shapes = (
{
closed = 1;
nodes = (
(179,-1,l),
(699,699,l),
(601,699,l),
(81,-1,l)
);
},
{
closed = 1;
nodes = (
(279,347,l),
(279,415,l),
(199,415,l),
(199,700,l),
(158,700,l),
(38,656,l),
(38,594,l),
(125,614,l),
(125,415,l),
(35,415,l),
(35,347,l)
);
},
{
closed = 1;
nodes = (
(571,62,o),
(545,85,o),
(545,107,qs),
(545,129,o),
(571,154,o),
(594,154,qs),
(618,154,o),
(643,130,o),
(643,107,qs),
(643,85,o),
(616,62,o),
(594,62,qs)
);
},
{
closed = 1;
nodes = (
(646,-5,o),
(719,53,o),
(719,102,qs),
(719,130,o),
(695,177,o),
(672,189,q),
(690,201,o),
(711,239,o),
(711,261,qs),
(711,306,o),
(644,358,o),
(594,358,qs),
(544,358,o),
(477,306,o),
(477,261,qs),
(477,216,o),
(516,189,q),
(494,176,o),
(469,131,o),
(469,102,qs),
(469,55,o),
(539,-5,o),
(594,-5,qs)
);
},
{
closed = 1;
nodes = (
(575,215,o),
(553,236,o),
(553,253,qs),
(553,272,o),
(574,293,o),
(594,293,qs),
(613,293,o),
(635,272,o),
(635,253,qs),
(635,236,o),
(613,215,o),
(594,215,qs)
);
}
);
userData = {
assembly = "NPUSHB[ ]	/* 91 values pushed */
8 7 6 3 2 0 43 32 2 6 11 2 76 4 1 2 0 5 10 2 5 104 0 8 0 10 11 8 10 106 14 1 11 0 6 7 11 6 105 3 1 0 0 33 77 12 1 7 7 1 97 13 9 2 1 1 34 1 78 50 50 27 27 15 15 50 61 50 60 56 54 27 49 27 48 38 36 15 26 15 25 37 17 17 20 17 17 16 15 8 29
CALL[ ]	/* CallFunction */";
};
width = 765;
}
);
note = oneeighth;
unicode = 8539;
},
{
glyphname = threeeighths;
layers = (
{
layerId = m01;
shapes = (
{
closed = 1;
nodes = (
(177,-1,l),
(697,699,l),
(599,699,l),
(79,-1,l)
);
},
{
closed = 1;
nodes = (
(227,342,o),
(296,407,o),
(296,462,qs),
(296,503,o),
(249,561,o),
(209,569,q),
(285,638,l),
(285,700,l),
(50,700,l),
(50,632,l),
(182,632,l),
(89,548,l),
(132,498,l),
(152,510,o),
(169,510,qs),
(192,510,o),
(222,484,o),
(222,461,qs),
(222,436,o),
(194,410,o),
(169,410,qs),
(144,410,o),
(115,437,o),
(115,459,q),
(40,459,l),
(40,403,o),
(111,342,o),
(169,342,qs)
);
},
{
closed = 1;
nodes = (
(571,62,o),
(545,85,o),
(545,107,qs),
(545,129,o),
(571,154,o),
(594,154,qs),
(618,154,o),
(643,130,o),
(643,107,qs),
(643,85,o),
(616,62,o),
(594,62,qs)
);
},
{
closed = 1;
nodes = (
(646,-5,o),
(719,53,o),
(719,102,qs),
(719,130,o),
(695,177,o),
(672,189,q),
(690,201,o),
(711,239,o),
(711,261,qs),
(711,306,o),
(644,358,o),
(594,358,qs),
(544,358,o),
(477,306,o),
(477,261,qs),
(477,216,o),
(516,189,q),
(494,176,o),
(469,131,o),
(469,102,qs),
(469,55,o),
(539,-5,o),
(594,-5,qs)
);
},
{
closed = 1;
nodes = (
(575,215,o),
(553,236,o),
(553,253,qs),
(553,272,o),
(574,293,o),
(594,293,qs),
(613,293,o),
(635,272,o),
(635,253,qs),
(635,236,o),
(613,215,o),
(594,215,qs)
);
}
);
userData = {
assembly = "NPUSHB[ ]	/* 20 values pushed */
24 1 5 0 25 19 2 4 5 18 1 2 4 60 49 2 8 13 4 76
MPPEM[ ]	/* MeasurePixelPerEm */
PUSHB[ ]	/* 1 value pushed */
11
LT[ ]	/* LessThan */
IF[ ]	/* If */
NPUSHB[ ]	/* 64 values pushed */
0 4 5 2 5 4 114 0 2 3 3 2 112 0 3 14 1 7 12 3 7 106 0 10 0 12 13 10 12 106 17 1 13 0 8 9 13 8 105 0 5 5 0 95 6 1 0 0 33 77 15 1 9 9 1 97 16 11 2 1 1 34 1 78
ELSE[ ]	/* Else */
MPPEM[ ]	/* MeasurePixelPerEm */
PUSHB[ ]	/* 1 value pushed */
25
LT[ ]	/* LessThan */
IF[ ]	/* If */
NPUSHB[ ]	/* 65 values pushed */
0 4 5 2 5 4 2 128 0 2 3 3 2 112 0 3 14 1 7 12 3 7 106 0 10 0 12 13 10 12 106 17 1 13 0 8 9 13 8 105 0 5 5 0 95 6 1 0 0 33 77 15 1 9 9 1 97 16 11 2 1 1 34 1 78
ELSE[ ]	/* Else */
NPUSHB[ ]	/* 66 values pushed */
0 4 5 2 5 4 2 128 0 2 3 5 2 3 126 0 3 14 1 7 12 3 7 106 0 10 0 12 13 10 12 106 17 1 13 0 8 9 13 8 105 0 5 5 0 95 6 1 0 0 33 77 15 1 9 9 1 97 16 11 2 1 1 34 1 78
EIF[ ]	/* EndIf */
EIF[ ]	/* EndIf */
NPUSHB[ ]	/* 40 values pushed */
67 67 44 44 32 32 4 4 67 78 67 77 73 71 44 66 44 65 55 53 32 43 32 42 38 36 4 31 4 30 17 19 36 34 19 17 16 18 8 29
CALL[ ]	/* CallFunction */";
};
width = 760;
}
);
note = threeeighths;
unicode = 8540;
},
{
glyphname = fiveeighths;
layers = (
{
layerId = m01;
shapes = (
{
closed = 1;
nodes = (
(181,-1,l),
(701,699,l),
(602,699,l),
(82,-1,l)
);
},
{
closed = 1;
nodes = (
(226,342,o),
(298,415,o),
(298,471,qs),
(298,524,o),
(236,594,o),
(181,594,qs),
(147,594,o),
(123,579,q),
(133,631,l),
(275,631,l),
(275,700,l),
(74,700,l),
(43,492,l),
(116,492,l),
(132,529,o),
(171,529,qs),
(194,529,o),
(224,497,o),
(224,471,qs),
(224,444,o),
(193,410,o),
(170,410,qs),
(149,410,o),
(119,433,o),
(115,452,q),
(39,452,l),
(43,400,o),
(113,342,o),
(170,342,qs)
);
},
{
closed = 1;
nodes = (
(575,62,o),
(549,85,o),
(549,107,qs),
(549,129,o),
(575,154,o),
(598,154,qs),
(622,154,o),
(647,130,o),
(647,107,qs),
(647,85,o),
(620,62,o),
(598,62,qs)
);
},
{
closed = 1;
nodes = (
(650,-5,o),
(723,53,o),
(723,102,qs),
(723,130,o),
(699,177,o),
(676,189,q),
(694,201,o),
(715,239,o),
(715,261,qs),
(715,306,o),
(648,358,o),
(598,358,qs),
(548,358,o),
(481,306,o),
(481,261,qs),
(481,216,o),
(520,189,q),
(498,176,o),
(473,131,o),
(473,102,qs),
(473,55,o),
(543,-5,o),
(598,-5,qs)
);
},
{
closed = 1;
nodes = (
(579,215,o),
(557,236,o),
(557,253,qs),
(557,272,o),
(578,293,o),
(598,293,qs),
(617,293,o),
(639,272,o),
(639,253,qs),
(639,236,o),
(617,215,o),
(598,215,qs)
);
}
);
userData = {
assembly = "NPUSHB[ ]	/* 11 values pushed */
24 1 4 8 61 50 2 10 15 2 76
MPPEM[ ]	/* MeasurePixelPerEm */
PUSHB[ ]	/* 1 value pushed */
9
LT[ ]	/* LessThan */
IF[ ]	/* If */
NPUSHB[ ]	/* 73 values pushed */
0 5 4 2 7 5 114 0 2 3 4 2 3 126 0 8 0 4 5 8 4 105 0 3 16 1 9 14 3 9 105 0 12 0 14 15 12 14 106 19 1 15 0 10 11 15 10 105 0 7 7 0 95 6 1 0 0 33 77 17 1 11 11 1 97 18 13 2 1 1 34 1 78
ELSE[ ]	/* Else */
NPUSHB[ ]	/* 74 values pushed */
0 5 4 2 4 5 2 128 0 2 3 4 2 3 126 0 8 0 4 5 8 4 105 0 3 16 1 9 14 3 9 105 0 12 0 14 15 12 14 106 19 1 15 0 10 11 15 10 105 0 7 7 0 95 6 1 0 0 33 77 17 1 11 11 1 97 18 13 2 1 1 34 1 78
EIF[ ]	/* EndIf */
NPUSHB[ ]	/* 42 values pushed */
68 68 45 45 33 33 4 4 68 79 68 78 74 72 45 67 45 66 56 54 33 44 33 43 39 37 4 32 4 31 34 17 17 17 36 34 19 17 16 20 8 31
CALL[ ]	/* CallFunction */";
};
width = 764;
}
);
note = fiveeighths;
unicode = 8541;
},
{
glyphname = seveneighths;
layers = (
{
layerId = m01;
shapes = (
{
closed = 1;
nodes = (
(149,-1,l),
(669,699,l),
(570,699,l),
(50,-1,l)
);
},
{
closed = 1;
nodes = (
(555,62,o),
(529,85,o),
(529,107,qs),
(529,129,o),
(555,154,o),
(578,154,qs),
(602,154,o),
(627,130,o),
(627,107,qs),
(627,85,o),
(600,62,o),
(578,62,qs)
);
},
{
closed = 1;
nodes = (
(175,346,l),
(313,646,l),
(313,699,l),
(51,699,l),
(51,631,l),
(228,631,l),
(94,346,l)
);
},
{
closed = 1;
nodes = (
(630,-5,o),
(703,53,o),
(703,102,qs),
(703,130,o),
(679,177,o),
(656,189,q),
(674,201,o),
(695,239,o),
(695,261,qs),
(695,306,o),
(628,358,o),
(578,358,qs),
(528,358,o),
(461,306,o),
(461,261,qs),
(461,216,o),
(500,189,q),
(478,176,o),
(453,131,o),
(453,102,qs),
(453,55,o),
(523,-5,o),
(578,-5,qs)
);
},
{
closed = 1;
nodes = (
(559,215,o),
(537,236,o),
(537,253,qs),
(537,272,o),
(558,293,o),
(578,293,qs),
(597,293,o),
(619,272,o),
(619,253,qs),
(619,236,o),
(597,215,o),
(578,215,qs)
);
}
);
userData = {
assembly = "NPUSHB[ ]	/* 95 values pushed */
20 1 4 0 39 28 2 2 10 2 76 0 6 7 9 7 6 9 128 0 7 0 9 10 7 9 106 13 1 10 0 2 3 10 2 105 0 4 4 0 95 5 1 0 0 33 77 11 1 3 3 1 97 12 8 2 1 1 34 1 78 46 46 23 23 4 4 46 57 46 56 52 50 23 45 23 44 34 32 22 21 19 18 17 16 4 15 4 14 37 17 16 14 8 25
CALL[ ]	/* CallFunction */";
};
width = 740;
}
);
note = seveneighths;
unicode = 8542;
},
{
glyphname = uni2080;
layers = (
{
layerId = m01;
shapes = (
{
closed = 1;
nodes = (
(232,-5,o),
(296,95,o),
(296,177,qs),
(296,258,o),
(232,358,o),
(162,358,qs),
(93,358,o),
(28,257,o),
(28,177,qs),
(28,96,o),
(92,-5,o),
(162,-5,qs)
);
},
{
closed = 1;
nodes = (
(138,65,o),
(105,114,o),
(105,177,qs),
(105,239,o),
(138,288,o),
(162,288,qs),
(218,288,o),
(218,177,qs),
(218,65,o),
(162,65,qs)
);
}
);
userData = {
assembly = "NPUSHB[ ]	/* 41 values pushed */
0 2 2 0 97 0 0 0 51 77 5 1 3 3 1 97 4 1 1 1 52 1 78 12 12 0 0 12 21 12 20 16 14 0 11 0 10 36 6 9 23
CALL[ ]	/* CallFunction */";
};
width = 324;
}
);
note = uni2080;
unicode = 8320;
},
{
glyphname = uni2081;
layers = (
{
layerId = m01;
shapes = (
{
closed = 1;
nodes = (
(284,0,l),
(284,68,l),
(204,68,l),
(204,353,l),
(163,353,l),
(43,309,l),
(43,247,l),
(130,267,l),
(130,68,l),
(40,68,l),
(40,0,l)
);
}
);
userData = {
assembly = "NPUSHB[ ]	/* 32 values pushed */
4 3 2 3 0 1 1 76 0 1 1 49 77 2 1 0 0 3 96 0 3 3 50 3 78 17 17 20 16 4 9 26
CALL[ ]	/* CallFunction */";
};
width = 316;
}
);
note = uni2081;
unicode = 8321;
},
{
glyphname = uni2082;
layers = (
{
layerId = m01;
shapes = (
{
closed = 1;
nodes = (
(30,0,l),
(278,0,l),
(278,68,l),
(138,68,l),
(197,128,ls),
(235,166,o),
(269,217,o),
(269,249,qs),
(269,301,o),
(206,358,o),
(153,358,qs),
(98,358,o),
(32,295,o),
(31,239,q),
(106,239,l),
(106,260,o),
(128,291,o),
(152,291,qs),
(171,291,o),
(194,268,o),
(194,248,qs),
(194,232,o),
(166,196,o),
(135,164,qs),
(30,55,l)
);
}
);
userData = {
assembly = "PUSHB[ ]	/* 6 values pushed */
24 1 4 3 1 76
MPPEM[ ]	/* MeasurePixelPerEm */
PUSHB[ ]	/* 1 value pushed */
24
LT[ ]	/* LessThan */
IF[ ]	/* If */
NPUSHB[ ]	/* 28 values pushed */
0 1 0 3 0 1 114 0 0 0 2 97 0 2 2 51 77 0 3 3 4 95 0 4 4 50 4 78
ELSE[ ]	/* Else */
NPUSHB[ ]	/* 29 values pushed */
0 1 0 3 0 1 3 128 0 0 0 2 97 0 2 2 51 77 0 3 3 4 95 0 4 4 50 4 78
EIF[ ]	/* EndIf */
PUSHB[ ]	/* 8 values pushed */
17 22 34 18 37 5 9 27
CALL[ ]	/* CallFunction */";
};
width = 311;
}
);
note = uni2082;
unicode = 8322;
},
{
glyphname = uni2083;
layers = (
{
layerId = m01;
shapes = (
{
closed = 1;
nodes = (
(217,-5,o),
(286,60,o),
(286,115,qs),
(286,156,o),
(239,214,o),
(199,222,q),
(275,291,l),
(275,353,l),
(40,353,l),
(40,285,l),
(172,285,l),
(79,201,l),
(122,151,l),
(142,163,o),
(159,163,qs),
(182,163,o),
(212,137,o),
(212,114,qs),
(212,89,o),
(184,63,o),
(159,63,qs),
(134,63,o),
(105,90,o),
(105,112,q),
(30,112,l),
(30,56,o),
(101,-5,o),
(159,-5,qs)
);
}
);
userData = {
assembly = "NPUSHB[ ]	/* 15 values pushed */
20 1 3 4 21 15 2 2 3 14 1 0 2 3 76
MPPEM[ ]	/* MeasurePixelPerEm */
PUSHB[ ]	/* 1 value pushed */
11
LT[ ]	/* LessThan */
IF[ ]	/* If */
NPUSHB[ ]	/* 35 values pushed */
0 2 3 0 3 2 114 0 0 1 1 0 112 0 3 3 4 95 0 4 4 49 77 0 1 1 5 98 6 1 5 5 52 5 78
ELSE[ ]	/* Else */
MPPEM[ ]	/* MeasurePixelPerEm */
PUSHB[ ]	/* 1 value pushed */
26
LT[ ]	/* LessThan */
IF[ ]	/* If */
NPUSHB[ ]	/* 36 values pushed */
0 2 3 0 3 2 0 128 0 0 1 1 0 112 0 3 3 4 95 0 4 4 49 77 0 1 1 5 98 6 1 5 5 52 5 78
ELSE[ ]	/* Else */
NPUSHB[ ]	/* 37 values pushed */
0 2 3 0 3 2 0 128 0 0 1 3 0 1 126 0 3 3 4 95 0 4 4 49 77 0 1 1 5 98 6 1 5 5 52 5 78
EIF[ ]	/* EndIf */
EIF[ ]	/* EndIf */
NPUSHB[ ]	/* 14 values pushed */
0 0 0 27 0 26 17 19 36 34 18 7 9 27
CALL[ ]	/* CallFunction */";
};
width = 316;
}
);
note = uni2083;
unicode = 8323;
},
{
glyphname = uni2084;
layers = (
{
layerId = m01;
shapes = (
{
closed = 1;
nodes = (
(250,0,l),
(250,63,l),
(289,63,l),
(289,132,l),
(250,132,l),
(250,220,l),
(177,220,l),
(177,132,l),
(104,132,l),
(213,353,l),
(135,353,l),
(19,122,l),
(19,63,l),
(173,63,l),
(173,0,l)
);
}
);
userData = {
assembly = "PUSHB[ ]	/* 6 values pushed */
2 1 0 2 1 76
MPPEM[ ]	/* MeasurePixelPerEm */
PUSHB[ ]	/* 1 value pushed */
15
LT[ ]	/* LessThan */
IF[ ]	/* If */
NPUSHB[ ]	/* 28 values pushed */
0 3 1 2 2 3 114 4 1 2 5 1 0 6 2 0 104 0 1 1 49 77 0 6 6 50 6 78
ELSE[ ]	/* Else */
NPUSHB[ ]	/* 29 values pushed */
0 3 1 2 1 3 2 128 4 1 2 5 1 0 6 2 0 104 0 1 1 49 77 0 6 6 50 6 78
EIF[ ]	/* EndIf */
NPUSHB[ ]	/* 10 values pushed */
17 17 17 17 17 18 16 7 9 29
CALL[ ]	/* CallFunction */";
};
width = 304;
}
);
note = uni2084;
unicode = 8324;
},
{
glyphname = uni2085;
layers = (
{
layerId = m01;
shapes = (
{
closed = 1;
nodes = (
(212,-5,o),
(284,68,o),
(284,124,qs),
(284,177,o),
(222,247,o),
(167,247,qs),
(133,247,o),
(109,232,q),
(119,284,l),
(261,284,l),
(261,353,l),
(60,353,l),
(29,145,l),
(102,145,l),
(118,182,o),
(157,182,qs),
(180,182,o),
(210,150,o),
(210,124,qs),
(210,97,o),
(179,63,o),
(156,63,qs),
(135,63,o),
(105,86,o),
(101,105,q),
(25,105,l),
(29,53,o),
(99,-5,o),
(156,-5,qs)
);
}
);
userData = {
assembly = "PUSHB[ ]	/* 6 values pushed */
20 1 2 6 1 76
MPPEM[ ]	/* MeasurePixelPerEm */
PUSHB[ ]	/* 1 value pushed */
9
LT[ ]	/* LessThan */
IF[ ]	/* If */
NPUSHB[ ]	/* 44 values pushed */
0 3 2 0 5 3 114 0 0 1 2 0 1 126 0 6 0 2 3 6 2 105 0 5 5 4 95 0 4 4 49 77 0 1 1 7 97 8 1 7 7 52 7 78
ELSE[ ]	/* Else */
NPUSHB[ ]	/* 45 values pushed */
0 3 2 0 2 3 0 128 0 0 1 2 0 1 126 0 6 0 2 3 6 2 105 0 5 5 4 95 0 4 4 49 77 0 1 1 7 97 8 1 7 7 52 7 78
EIF[ ]	/* EndIf */
NPUSHB[ ]	/* 16 values pushed */
0 0 0 28 0 27 34 17 17 17 36 34 18 9 9 29
CALL[ ]	/* CallFunction */";
};
width = 312;
}
);
note = uni2085;
unicode = 8325;
},
{
glyphname = uni2086;
layers = (
{
layerId = m01;
shapes = (
{
closed = 1;
nodes = (
(218,-5,o),
(284,66,o),
(284,116,qs),
(284,171,o),
(218,233,o),
(175,233,qs),
(156,233,o),
(119,218,o),
(105,204,q),
(113,292,o),
(163,292,qs),
(198,292,o),
(206,254,q),
(278,254,l),
(273,301,o),
(212,358,o),
(163,358,qs),
(94,358,o),
(28,244,o),
(28,165,qs),
(28,92,o),
(97,-5,o),
(165,-5,qs)
);
},
{
closed = 1;
nodes = (
(140,63,o),
(112,92,o),
(112,115,qs),
(112,137,o),
(140,166,o),
(161,166,qs),
(183,166,o),
(210,137,o),
(210,114,qs),
(210,92,o),
(183,63,o),
(162,63,qs)
);
}
);
userData = {
assembly = "PUSHB[ ]	/* 6 values pushed */
13 1 5 3 1 76
MPPEM[ ]	/* MeasurePixelPerEm */
PUSHB[ ]	/* 1 value pushed */
33
LT[ ]	/* LessThan */
IF[ ]	/* If */
NPUSHB[ ]	/* 38 values pushed */
0 1 2 3 2 1 114 0 3 0 5 6 3 5 105 0 2 2 0 97 0 0 0 51 77 8 1 6 6 4 97 7 1 4 4 52 4 78
ELSE[ ]	/* Else */
NPUSHB[ ]	/* 39 values pushed */
0 1 2 3 2 1 3 128 0 3 0 5 6 3 5 105 0 2 2 0 97 0 0 0 51 77 8 1 6 6 4 97 7 1 4 4 52 4 78
EIF[ ]	/* EndIf */
NPUSHB[ ]	/* 21 values pushed */
23 23 0 0 23 34 23 33 29 27 0 22 0 21 35 33 18 36 9 9 26
CALL[ ]	/* CallFunction */";
};
width = 312;
}
);
note = uni2086;
unicode = 8326;
},
{
glyphname = uni2087;
layers = (
{
layerId = m01;
shapes = (
{
closed = 1;
nodes = (
(152,-1,l),
(290,299,l),
(290,352,l),
(28,352,l),
(28,284,l),
(205,284,l),
(71,-1,l)
);
}
);
userData = {
assembly = "NPUSHB[ ]	/* 28 values pushed */
4 1 0 1 1 76 0 0 0 1 95 0 1 1 49 77 0 2 2 50 2 78 18 17 16 3 9 25
CALL[ ]	/* CallFunction */";
};
width = 318;
}
);
note = uni2087;
unicode = 8327;
},
{
glyphname = uni2088;
layers = (
{
layerId = m01;
shapes = (
{
closed = 1;
nodes = (
(204,-5,o),
(277,53,o),
(277,102,qs),
(277,130,o),
(253,177,o),
(230,189,q),
(248,201,o),
(269,239,o),
(269,261,qs),
(269,306,o),
(202,358,o),
(152,358,qs),
(102,358,o),
(35,306,o),
(35,261,qs),
(35,216,o),
(74,189,q),
(52,176,o),
(27,131,o),
(27,102,qs),
(27,55,o),
(97,-5,o),
(152,-5,qs)
);
},
{
closed = 1;
nodes = (
(129,62,o),
(103,85,o),
(103,107,qs),
(103,129,o),
(129,154,o),
(152,154,qs),
(176,154,o),
(201,130,o),
(201,107,qs),
(201,85,o),
(174,62,o),
(152,62,qs)
);
},
{
closed = 1;
nodes = (
(133,215,o),
(111,236,o),
(111,253,qs),
(111,272,o),
(132,293,o),
(152,293,qs),
(171,293,o),
(193,272,o),
(193,253,qs),
(193,236,o),
(171,215,o),
(152,215,qs)
);
}
);
userData = {
assembly = "NPUSHB[ ]	/* 65 values pushed */
16 5 2 2 5 1 76 8 1 5 0 2 3 5 2 105 0 4 4 0 97 0 0 0 51 77 7 1 3 3 1 97 6 1 1 1 52 1 78 35 35 23 23 0 0 35 46 35 45 41 39 23 34 23 33 29 27 0 22 0 21 41 9 9 23
CALL[ ]	/* CallFunction */";
};
width = 304;
}
);
note = uni2088;
unicode = 8328;
},
{
glyphname = uni2089;
layers = (
{
layerId = m01;
shapes = (
{
closed = 1;
nodes = (
(217,-5,o),
(285,108,o),
(285,188,qs),
(285,261,o),
(216,358,o),
(148,358,qs),
(95,358,o),
(28,287,o),
(28,237,qs),
(28,188,o),
(91,120,o),
(138,120,qs),
(157,120,o),
(194,135,o),
(208,149,q),
(200,61,o),
(150,61,qs),
(114,61,o),
(107,101,q),
(35,101,l),
(40,53,o),
(100,-5,o),
(150,-5,qs)
);
},
{
closed = 1;
nodes = (
(130,187,o),
(103,216,o),
(103,239,qs),
(103,261,o),
(130,290,o),
(151,290,qs),
(173,290,o),
(201,261,o),
(201,238,qs),
(201,216,o),
(173,187,o),
(152,187,qs)
);
}
);
userData = {
assembly = "PUSHB[ ]	/* 6 values pushed */
7 1 2 6 1 76
MPPEM[ ]	/* MeasurePixelPerEm */
PUSHB[ ]	/* 1 value pushed */
32
LT[ ]	/* LessThan */
IF[ ]	/* If */
NPUSHB[ ]	/* 38 values pushed */
0 0 2 1 1 0 114 8 1 6 0 2 0 6 2 105 0 5 5 3 97 0 3 3 51 77 0 1 1 4 98 7 1 4 4 52 4 78
ELSE[ ]	/* Else */
NPUSHB[ ]	/* 39 values pushed */
0 0 2 1 2 0 1 128 8 1 6 0 2 0 6 2 105 0 5 5 3 97 0 3 3 51 77 0 1 1 4 98 7 1 4 4 52 4 78
EIF[ ]	/* EndIf */
NPUSHB[ ]	/* 21 values pushed */
23 23 0 0 23 34 23 33 29 27 0 22 0 21 36 35 33 18 9 9 26
CALL[ ]	/* CallFunction */";
};
width = 313;
}
);
note = uni2089;
unicode = 8329;
},
{
glyphname = uni2070;
layers = (
{
layerId = m01;
shapes = (
{
closed = 1;
nodes = (
(232,342,o),
(296,442,o),
(296,524,qs),
(296,605,o),
(232,705,o),
(162,705,qs),
(93,705,o),
(28,604,o),
(28,524,qs),
(28,443,o),
(92,342,o),
(162,342,qs)
);
},
{
closed = 1;
nodes = (
(138,412,o),
(105,461,o),
(105,524,qs),
(105,586,o),
(138,635,o),
(162,635,qs),
(218,635,o),
(218,524,qs),
(218,412,o),
(162,412,qs)
);
}
);
userData = {
assembly = "NPUSHB[ ]	/* 41 values pushed */
0 2 2 0 97 0 0 0 59 77 5 1 3 3 1 97 4 1 1 1 60 1 78 12 12 0 0 12 21 12 20 16 14 0 11 0 10 36 6 10 23
CALL[ ]	/* CallFunction */";
};
width = 324;
}
);
note = uni2070;
unicode = 8304;
},
{
glyphname = uni00B9;
layers = (
{
layerId = m01;
shapes = (
{
closed = 1;
nodes = (
(284,347,l),
(284,415,l),
(204,415,l),
(204,700,l),
(163,700,l),
(43,656,l),
(43,594,l),
(130,614,l),
(130,415,l),
(40,415,l),
(40,347,l)
);
}
);
userData = {
assembly = "NPUSHB[ ]	/* 32 values pushed */
4 3 2 3 0 1 1 76 0 1 1 57 77 2 1 0 0 3 96 0 3 3 58 3 78 17 17 20 16 4 10 26
CALL[ ]	/* CallFunction */";
};
width = 306;
}
);
note = uni00B9;
unicode = 185;
},
{
glyphname = uni00B2;
layers = (
{
layerId = m01;
shapes = (
{
closed = 1;
nodes = (
(30,347,l),
(278,347,l),
(278,415,l),
(138,415,l),
(197,475,ls),
(235,513,o),
(269,564,o),
(269,596,qs),
(269,648,o),
(206,705,o),
(153,705,qs),
(98,705,o),
(32,642,o),
(31,586,q),
(106,586,l),
(106,607,o),
(128,638,o),
(152,638,qs),
(171,638,o),
(194,615,o),
(194,595,qs),
(194,579,o),
(166,543,o),
(135,511,qs),
(30,402,l)
);
}
);
userData = {
assembly = "PUSHB[ ]	/* 6 values pushed */
24 1 4 3 1 76
MPPEM[ ]	/* MeasurePixelPerEm */
PUSHB[ ]	/* 1 value pushed */
24
LT[ ]	/* LessThan */
IF[ ]	/* If */
NPUSHB[ ]	/* 28 values pushed */
0 1 0 3 0 1 114 0 0 0 2 97 0 2 2 59 77 0 3 3 4 95 0 4 4 58 4 78
ELSE[ ]	/* Else */
NPUSHB[ ]	/* 29 values pushed */
0 1 0 3 0 1 3 128 0 0 0 2 97 0 2 2 59 77 0 3 3 4 95 0 4 4 58 4 78
EIF[ ]	/* EndIf */
PUSHB[ ]	/* 8 values pushed */
17 22 34 18 37 5 10 27
CALL[ ]	/* CallFunction */";
};
width = 311;
}
);
note = uni00B2;
unicode = 178;
},
{
glyphname = uni00B3;
layers = (
{
layerId = m01;
shapes = (
{
closed = 1;
nodes = (
(217,342,o),
(286,407,o),
(286,462,qs),
(286,503,o),
(239,561,o),
(199,569,q),
(275,638,l),
(275,700,l),
(40,700,l),
(40,632,l),
(172,632,l),
(79,548,l),
(122,498,l),
(142,510,o),
(159,510,qs),
(182,510,o),
(212,484,o),
(212,461,qs),
(212,436,o),
(184,410,o),
(159,410,qs),
(134,410,o),
(105,437,o),
(105,459,q),
(30,459,l),
(30,403,o),
(101,342,o),
(159,342,qs)
);
}
);
userData = {
assembly = "NPUSHB[ ]	/* 15 values pushed */
20 1 3 4 21 15 2 2 3 14 1 0 2 3 76
MPPEM[ ]	/* MeasurePixelPerEm */
PUSHB[ ]	/* 1 value pushed */
11
LT[ ]	/* LessThan */
IF[ ]	/* If */
NPUSHB[ ]	/* 35 values pushed */
0 2 3 0 3 2 114 0 0 1 1 0 112 0 3 3 4 95 0 4 4 57 77 0 1 1 5 98 6 1 5 5 60 5 78
ELSE[ ]	/* Else */
MPPEM[ ]	/* MeasurePixelPerEm */
PUSHB[ ]	/* 1 value pushed */
26
LT[ ]	/* LessThan */
IF[ ]	/* If */
NPUSHB[ ]	/* 36 values pushed */
0 2 3 0 3 2 0 128 0 0 1 1 0 112 0 3 3 4 95 0 4 4 57 77 0 1 1 5 98 6 1 5 5 60 5 78
ELSE[ ]	/* Else */
NPUSHB[ ]	/* 37 values pushed */
0 2 3 0 3 2 0 128 0 0 1 3 0 1 126 0 3 3 4 95 0 4 4 57 77 0 1 1 5 98 6 1 5 5 60 5 78
EIF[ ]	/* EndIf */
EIF[ ]	/* EndIf */
NPUSHB[ ]	/* 14 values pushed */
0 0 0 27 0 26 17 19 36 34 18 7 10 27
CALL[ ]	/* CallFunction */";
};
width = 316;
}
);
note = uni00B3;
unicode = 179;
},
{
glyphname = uni2074;
layers = (
{
layerId = m01;
shapes = (
{
closed = 1;
nodes = (
(249,347,l),
(249,410,l),
(289,410,l),
(289,478,l),
(249,478,l),
(249,566,l),
(178,566,l),
(178,478,l),
(102,478,l),
(211,700,l),
(135,700,l),
(19,468,l),
(19,410,l),
(174,410,l),
(174,347,l)
);
}
);
userData = {
assembly = "PUSHB[ ]	/* 6 values pushed */
2 1 0 2 1 76
MPPEM[ ]	/* MeasurePixelPerEm */
PUSHB[ ]	/* 1 value pushed */
15
LT[ ]	/* LessThan */
IF[ ]	/* If */
NPUSHB[ ]	/* 28 values pushed */
0 3 1 2 2 3 114 4 1 2 5 1 0 6 2 0 104 0 1 1 57 77 0 6 6 58 6 78
ELSE[ ]	/* Else */
NPUSHB[ ]	/* 29 values pushed */
0 3 1 2 1 3 2 128 4 1 2 5 1 0 6 2 0 104 0 1 1 57 77 0 6 6 58 6 78
EIF[ ]	/* EndIf */
NPUSHB[ ]	/* 10 values pushed */
17 17 17 17 17 18 16 7 10 29
CALL[ ]	/* CallFunction */";
};
width = 304;
}
);
note = uni2074;
unicode = 8308;
},
{
glyphname = uni2075;
layers = (
{
layerId = m01;
shapes = (
{
closed = 1;
nodes = (
(212,342,o),
(284,415,o),
(284,471,qs),
(284,524,o),
(222,594,o),
(167,594,qs),
(133,594,o),
(109,579,q),
(119,631,l),
(261,631,l),
(261,700,l),
(60,700,l),
(29,492,l),
(102,492,l),
(118,529,o),
(157,529,qs),
(180,529,o),
(210,497,o),
(210,471,qs),
(210,444,o),
(179,410,o),
(156,410,qs),
(135,410,o),
(105,433,o),
(101,452,q),
(25,452,l),
(29,400,o),
(99,342,o),
(156,342,qs)
);
}
);
userData = {
assembly = "PUSHB[ ]	/* 6 values pushed */
20 1 2 6 1 76
MPPEM[ ]	/* MeasurePixelPerEm */
PUSHB[ ]	/* 1 value pushed */
9
LT[ ]	/* LessThan */
IF[ ]	/* If */
NPUSHB[ ]	/* 44 values pushed */
0 3 2 0 5 3 114 0 0 1 2 0 1 126 0 6 0 2 3 6 2 105 0 5 5 4 95 0 4 4 57 77 0 1 1 7 97 8 1 7 7 60 7 78
ELSE[ ]	/* Else */
NPUSHB[ ]	/* 45 values pushed */
0 3 2 0 2 3 0 128 0 0 1 2 0 1 126 0 6 0 2 3 6 2 105 0 5 5 4 95 0 4 4 57 77 0 1 1 7 97 8 1 7 7 60 7 78
EIF[ ]	/* EndIf */
NPUSHB[ ]	/* 16 values pushed */
0 0 0 28 0 27 34 17 17 17 36 34 18 9 10 29
CALL[ ]	/* CallFunction */";
};
width = 312;
}
);
note = uni2075;
unicode = 8309;
},
{
glyphname = uni2076;
layers = (
{
layerId = m01;
shapes = (
{
closed = 1;
nodes = (
(218,342,o),
(284,413,o),
(284,463,qs),
(284,518,o),
(218,580,o),
(175,580,qs),
(156,580,o),
(119,565,o),
(105,551,q),
(113,639,o),
(163,639,qs),
(198,639,o),
(206,601,q),
(278,601,l),
(273,648,o),
(212,705,o),
(163,705,qs),
(94,705,o),
(28,591,o),
(28,512,qs),
(28,439,o),
(97,342,o),
(165,342,qs)
);
},
{
closed = 1;
nodes = (
(140,410,o),
(112,439,o),
(112,462,qs),
(112,484,o),
(140,513,o),
(161,513,qs),
(183,513,o),
(210,484,o),
(210,461,qs),
(210,439,o),
(183,410,o),
(162,410,qs)
);
}
);
userData = {
assembly = "PUSHB[ ]	/* 6 values pushed */
13 1 5 3 1 76
MPPEM[ ]	/* MeasurePixelPerEm */
PUSHB[ ]	/* 1 value pushed */
33
LT[ ]	/* LessThan */
IF[ ]	/* If */
NPUSHB[ ]	/* 38 values pushed */
0 1 2 3 2 1 114 0 3 0 5 6 3 5 105 0 2 2 0 97 0 0 0 59 77 8 1 6 6 4 97 7 1 4 4 60 4 78
ELSE[ ]	/* Else */
NPUSHB[ ]	/* 39 values pushed */
0 1 2 3 2 1 3 128 0 3 0 5 6 3 5 105 0 2 2 0 97 0 0 0 59 77 8 1 6 6 4 97 7 1 4 4 60 4 78
EIF[ ]	/* EndIf */
NPUSHB[ ]	/* 21 values pushed */
23 23 0 0 23 34 23 33 29 27 0 22 0 21 35 33 18 36 9 10 26
CALL[ ]	/* CallFunction */";
};
width = 312;
}
);
note = uni2076;
unicode = 8310;
},
{
glyphname = uni2077;
layers = (
{
layerId = m01;
shapes = (
{
closed = 1;
nodes = (
(152,346,l),
(290,646,l),
(290,699,l),
(28,699,l),
(28,631,l),
(205,631,l),
(71,346,l)
);
}
);
userData = {
assembly = "NPUSHB[ ]	/* 28 values pushed */
4 1 0 1 1 76 0 0 0 1 95 0 1 1 57 77 0 2 2 58 2 78 18 17 16 3 10 25
CALL[ ]	/* CallFunction */";
};
width = 318;
}
);
note = uni2077;
unicode = 8311;
},
{
glyphname = uni2078;
layers = (
{
layerId = m01;
shapes = (
{
closed = 1;
nodes = (
(204,342,o),
(277,400,o),
(277,449,qs),
(277,477,o),
(253,524,o),
(230,536,q),
(248,548,o),
(269,586,o),
(269,608,qs),
(269,653,o),
(202,705,o),
(152,705,qs),
(102,705,o),
(35,653,o),
(35,608,qs),
(35,563,o),
(74,536,q),
(52,523,o),
(27,478,o),
(27,449,qs),
(27,402,o),
(97,342,o),
(152,342,qs)
);
},
{
closed = 1;
nodes = (
(129,409,o),
(103,432,o),
(103,454,qs),
(103,476,o),
(129,501,o),
(152,501,qs),
(176,501,o),
(201,477,o),
(201,454,qs),
(201,432,o),
(174,409,o),
(152,409,qs)
);
},
{
closed = 1;
nodes = (
(133,562,o),
(111,583,o),
(111,600,qs),
(111,619,o),
(132,640,o),
(152,640,qs),
(171,640,o),
(193,619,o),
(193,600,qs),
(193,583,o),
(171,562,o),
(152,562,qs)
);
}
);
userData = {
assembly = "NPUSHB[ ]	/* 65 values pushed */
16 5 2 2 5 1 76 8 1 5 0 2 3 5 2 105 0 4 4 0 97 0 0 0 59 77 7 1 3 3 1 97 6 1 1 1 60 1 78 35 35 23 23 0 0 35 46 35 45 41 39 23 34 23 33 29 27 0 22 0 21 41 9 10 23
CALL[ ]	/* CallFunction */";
};
width = 304;
}
);
note = uni2078;
unicode = 8312;
},
{
glyphname = uni2079;
layers = (
{
layerId = m01;
shapes = (
{
closed = 1;
nodes = (
(217,342,o),
(285,455,o),
(285,535,qs),
(285,608,o),
(216,705,o),
(148,705,qs),
(95,705,o),
(28,634,o),
(28,584,qs),
(28,535,o),
(91,467,o),
(138,467,qs),
(157,467,o),
(194,482,o),
(208,496,q),
(200,408,o),
(150,408,qs),
(114,408,o),
(107,448,q),
(35,448,l),
(40,400,o),
(100,342,o),
(150,342,qs)
);
},
{
closed = 1;
nodes = (
(130,534,o),
(103,563,o),
(103,586,qs),
(103,608,o),
(130,637,o),
(151,637,qs),
(173,637,o),
(201,608,o),
(201,585,qs),
(201,563,o),
(173,534,o),
(152,534,qs)
);
}
);
userData = {
assembly = "PUSHB[ ]	/* 6 values pushed */
7 1 2 6 1 76
MPPEM[ ]	/* MeasurePixelPerEm */
PUSHB[ ]	/* 1 value pushed */
31
LT[ ]	/* LessThan */
IF[ ]	/* If */
NPUSHB[ ]	/* 38 values pushed */
0 0 2 1 1 0 114 8 1 6 0 2 0 6 2 105 0 5 5 3 97 0 3 3 59 77 0 1 1 4 98 7 1 4 4 60 4 78
ELSE[ ]	/* Else */
NPUSHB[ ]	/* 39 values pushed */
0 0 2 1 2 0 1 128 8 1 6 0 2 0 6 2 105 0 5 5 3 97 0 3 3 59 77 0 1 1 4 98 7 1 4 4 60 4 78
EIF[ ]	/* EndIf */
NPUSHB[ ]	/* 21 values pushed */
23 23 0 0 23 34 23 33 29 27 0 22 0 21 36 35 33 18 9 10 26
CALL[ ]	/* CallFunction */";
};
width = 313;
}
);
note = uni2079;
unicode = 8313;
},
{
glyphname = period;
kernLeft = period;
kernRight = period;
layers = (
{
layerId = m01;
shapes = (
{
closed = 1;
nodes = (
(148,-12,o),
(196,37,o),
(196,71,qs),
(196,106,o),
(148,154,o),
(113,154,qs),
(78,154,o),
(30,106,o),
(30,71,qs),
(30,36,o),
(78,-12,o),
(113,-12,qs)
);
}
);
userData = {
assembly = "NPUSHB[ ]	/* 22 values pushed */
0 0 0 1 97 2 1 1 1 40 1 78 0 0 0 11 0 10 36 3 8 23
CALL[ ]	/* CallFunction */";
};
width = 226;
}
);
note = period;
unicode = 46;
},
{
glyphname = comma;
kernLeft = comma;
kernRight = comma;
layers = (
{
layerId = m01;
shapes = (
{
closed = 1;
nodes = (
(98,-116,l),
(195,133,l),
(71,133,l),
(14,-116,l)
);
}
);
userData = {
assembly = "NPUSHB[ ]	/* 21 values pushed */
0 0 1 1 0 87 0 0 0 1 95 0 1 0 1 79 17 16 2 8 24
CALL[ ]	/* CallFunction */";
};
width = 230;
}
);
note = comma;
unicode = 44;
},
{
glyphname = colon;
kernLeft = colon;
kernRight = colon;
layers = (
{
layerId = m01;
shapes = (
{
closed = 1;
nodes = (
(155,346,o),
(203,395,o),
(203,429,qs),
(203,464,o),
(155,512,o),
(120,512,qs),
(85,512,o),
(37,464,o),
(37,429,qs),
(37,394,o),
(85,346,o),
(120,346,qs)
);
},
{
closed = 1;
nodes = (
(155,-12,o),
(203,37,o),
(203,71,qs),
(203,106,o),
(155,154,o),
(120,154,qs),
(85,154,o),
(37,106,o),
(37,71,qs),
(37,36,o),
(85,-12,o),
(120,-12,qs)
);
}
);
userData = {
assembly = "NPUSHB[ ]	/* 41 values pushed */
4 1 1 1 0 97 0 0 0 42 77 0 2 2 3 97 5 1 3 3 40 3 78 12 12 0 0 12 23 12 22 18 16 0 11 0 10 36 6 8 23
CALL[ ]	/* CallFunction */";
};
width = 242;
}
);
note = colon;
unicode = 58;
},
{
glyphname = semicolon;
kernLeft = semicolon;
kernRight = semicolon;
layers = (
{
layerId = m01;
shapes = (
{
closed = 1;
nodes = (
(108,-116,l),
(205,133,l),
(81,133,l),
(24,-116,l)
);
},
{
closed = 1;
nodes = (
(179,346,o),
(227,395,o),
(227,429,qs),
(227,464,o),
(179,512,o),
(144,512,qs),
(109,512,o),
(61,464,o),
(61,429,qs),
(61,394,o),
(109,346,o),
(144,346,qs)
);
}
);
userData = {
assembly = "NPUSHB[ ]	/* 31 values pushed */
0 0 0 1 0 1 99 4 1 3 3 2 97 0 2 2 42 3 78 4 4 4 15 4 14 37 17 16 5 8 25
CALL[ ]	/* CallFunction */";
};
width = 266;
}
);
note = semicolon;
unicode = 59;
},
{
glyphname = ellipsis;
kernLeft = period;
kernRight = period;
layers = (
{
layerId = m01;
shapes = (
{
closed = 1;
nodes = (
(600,-12,o),
(648,37,o),
(648,71,qs),
(648,106,o),
(600,154,o),
(565,154,qs),
(530,154,o),
(482,106,o),
(482,71,qs),
(482,36,o),
(530,-12,o),
(565,-12,qs)
);
},
{
closed = 1;
nodes = (
(158,-12,o),
(206,37,o),
(206,71,qs),
(206,106,o),
(158,154,o),
(123,154,qs),
(88,154,o),
(40,106,o),
(40,71,qs),
(40,36,o),
(88,-12,o),
(123,-12,qs)
);
},
{
closed = 1;
nodes = (
(379,-12,o),
(427,37,o),
(427,71,qs),
(427,106,o),
(379,154,o),
(344,154,qs),
(309,154,o),
(261,106,o),
(261,71,qs),
(261,36,o),
(309,-12,o),
(344,-12,qs)
);
}
);
userData = {
assembly = "NPUSHB[ ]	/* 44 values pushed */
4 2 2 0 0 1 97 8 5 7 3 6 5 1 1 40 1 78 24 24 12 12 0 0 24 35 24 34 30 28 12 23 12 22 18 16 0 11 0 10 36 9 8 23
CALL[ ]	/* CallFunction */";
};
width = 687;
}
);
note = ellipsis;
unicode = 8230;
},
{
glyphname = exclam;
layers = (
{
layerId = m01;
shapes = (
{
closed = 1;
nodes = (
(195,221,l),
(210,700,l),
(73,700,l),
(87,221,l)
);
},
{
closed = 1;
nodes = (
(178,-12,o),
(226,37,o),
(226,71,qs),
(226,106,o),
(178,154,o),
(143,154,qs),
(108,154,o),
(60,106,o),
(60,71,qs),
(60,36,o),
(108,-12,o),
(143,-12,qs)
);
}
);
userData = {
assembly = "NPUSHB[ ]	/* 34 values pushed */
0 1 1 0 95 0 0 0 33 77 0 2 2 3 97 4 1 3 3 40 3 78 4 4 4 15 4 14 37 17 16 5 8 25
CALL[ ]	/* CallFunction */";
};
width = 286;
}
);
note = exclam;
unicode = 33;
},
{
glyphname = exclamdown;
kernLeft = exclamdown;
kernRight = exclamdown;
layers = (
{
layerId = m01;
shapes = (
{
closed = 1;
nodes = (
(215,-139,l),
(200,340,l),
(92,340,l),
(78,-139,l)
);
},
{
closed = 1;
nodes = (
(183,407,o),
(231,456,o),
(231,490,qs),
(231,525,o),
(183,573,o),
(148,573,qs),
(113,573,o),
(65,525,o),
(65,490,qs),
(65,455,o),
(113,407,o),
(148,407,qs)
);
}
);
userData = {
assembly = "NPUSHB[ ]	/* 37 values pushed */
0 2 4 1 3 0 2 3 105 0 0 1 1 0 87 0 0 0 1 95 0 1 0 1 79 4 4 4 15 4 14 37 17 16 5 8 25
CALL[ ]	/* CallFunction */";
};
width = 296;
}
);
note = exclamdown;
unicode = 161;
},
{
glyphname = question;
kernLeft = question;
kernRight = question;
layers = (
{
layerId = m01;
shapes = (
{
closed = 1;
nodes = (
(250,218,l),
(253,298,l),
(325,300,o),
(375,321,qs),
(429,343,o),
(488,435,o),
(488,502,qs),
(488,569,o),
(459,616,qs),
(429,662,o),
(326,712,o),
(259,712,qs),
(187,712,o),
(136,685,qs),
(84,658,o),
(30,564,o),
(31,504,q),
(152,504,l),
(152,552,o),
(208,606,o),
(258,606,qs),
(306,606,o),
(364,551,o),
(364,503,qs),
(364,452,o),
(339,427,qs),
(316,402,o),
(235,383,o),
(179,383,qs),
(133,383,l),
(137,218,l)
);
},
{
closed = 1;
nodes = (
(229,-12,o),
(277,37,o),
(277,71,qs),
(277,106,o),
(229,154,o),
(194,154,qs),
(159,154,o),
(111,106,o),
(111,71,qs),
(111,36,o),
(159,-12,o),
(194,-12,qs)
);
}
);
userData = {
assembly = "NPUSHB[ ]	/* 62 values pushed */
0 2 1 0 1 2 0 128 0 4 0 5 0 4 5 128 0 0 0 5 6 0 5 103 0 1 1 3 97 0 3 3 39 77 0 6 6 7 97 8 1 7 7 40 7 78 31 31 31 42 31 41 37 17 24 36 18 38 32 9 8 29
CALL[ ]	/* CallFunction */";
};
width = 527;
}
);
note = question;
unicode = 63;
},
{
glyphname = questiondown;
kernLeft = questiondown;
kernRight = questiondown;
layers = (
{
layerId = m01;
shapes = (
{
closed = 1;
nodes = (
(340,-156,o),
(391,-129,qs),
(443,-102,o),
(497,-8,o),
(496,52,q),
(375,52,l),
(375,4,o),
(319,-50,o),
(269,-50,qs),
(221,-50,o),
(163,5,o),
(163,53,qs),
(163,104,o),
(188,129,qs),
(211,154,o),
(292,173,o),
(348,173,qs),
(394,173,l),
(390,338,l),
(277,338,l),
(274,258,l),
(202,256,o),
(152,235,qs),
(98,213,o),
(39,121,o),
(39,54,qs),
(39,-11,o),
(68,-60,qs),
(98,-106,o),
(201,-156,o),
(268,-156,qs)
);
},
{
closed = 1;
nodes = (
(368,402,o),
(416,450,o),
(416,485,qs),
(416,520,o),
(368,568,o),
(333,568,qs),
(299,568,o),
(250,520,o),
(250,485,qs),
(250,451,o),
(299,402,o),
(333,402,qs)
);
}
);
userData = {
assembly = "NPUSHB[ ]	/* 72 values pushed */
0 0 1 2 1 0 2 128 0 4 2 3 2 4 3 128 0 6 9 1 7 1 6 7 105 0 1 0 2 4 1 2 105 0 3 5 5 3 89 0 3 3 5 98 8 1 5 3 5 82 31 31 0 0 31 42 31 41 37 35 0 30 0 29 18 38 33 17 24 10 8 27
CALL[ ]	/* CallFunction */";
};
width = 527;
}
);
note = questiondown;
unicode = 191;
},
{
glyphname = periodcentered;
layers = (
{
layerId = m01;
shapes = (
{
closed = 1;
nodes = (
(155,255,o),
(203,304,o),
(203,338,qs),
(203,373,o),
(155,421,o),
(120,421,qs),
(85,421,o),
(37,373,o),
(37,338,qs),
(37,303,o),
(85,255,o),
(120,255,qs)
);
}
);
userData = {
assembly = "NPUSHB[ ]	/* 27 values pushed */
0 0 1 1 0 89 0 0 0 1 97 2 1 1 0 1 81 0 0 0 11 0 10 36 3 8 23
CALL[ ]	/* CallFunction */";
};
width = 240;
}
);
note = periodcentered;
unicode = 183;
},
{
glyphname = bullet;
layers = (
{
layerId = m01;
shapes = (
{
closed = 1;
nodes = (
(247,198,o),
(325,276,o),
(325,333,qs),
(325,370,o),
(289,433,o),
(227,469,o),
(189,469,qs),
(153,469,o),
(90,433,o),
(54,370,o),
(54,333,qs),
(54,296,o),
(91,234,o),
(153,198,o),
(189,198,qs)
);
}
);
userData = {
assembly = "NPUSHB[ ]	/* 27 values pushed */
0 0 1 1 0 89 0 0 0 1 97 2 1 1 0 1 81 0 0 0 14 0 13 38 3 8 23
CALL[ ]	/* CallFunction */";
};
width = 380;
}
);
note = bullet;
unicode = 8226;
},
{
glyphname = asterisk;
kernLeft = asterisk;
kernRight = asterisk;
layers = (
{
layerId = m01;
shapes = (
{
closed = 1;
nodes = (
(290,360,l),
(290,480,l),
(394,420,l),
(434,489,l),
(330,549,l),
(434,608,l),
(394,677,l),
(290,617,l),
(290,737,l),
(211,737,l),
(211,617,l),
(107,677,l),
(68,608,l),
(171,549,l),
(68,489,l),
(107,420,l),
(211,480,l),
(211,360,l)
);
}
);
userData = {
assembly = "NPUSHB[ ]	/* 40 values pushed */
15 14 13 12 11 10 9 6 5 4 3 2 1 0 14 1 0 1 76 0 0 1 1 0 87 0 0 0 1 95 0 1 0 1 79 24 23 2 8 24
CALL[ ]	/* CallFunction */";
};
width = 499;
}
);
note = asterisk;
unicode = 42;
},
{
glyphname = numbersign;
layers = (
{
layerId = m01;
shapes = (
{
closed = 1;
nodes = (
(261,0,l),
(298,175,l),
(488,175,l),
(450,0,l),
(571,0,l),
(608,175,l),
(766,175,l),
(766,290,l),
(633,290,l),
(664,436,l),
(819,436,l),
(819,551,l),
(689,551,l),
(725,723,l),
(605,723,l),
(568,551,l),
(378,551,l),
(415,723,l),
(295,723,l),
(258,551,l),
(86,551,l),
(86,436,l),
(233,436,l),
(202,290,l),
(33,290,l),
(33,175,l),
(177,175,l),
(140,0,l)
);
},
{
closed = 1;
nodes = (
(354,436,l),
(544,436,l),
(512,290,l),
(322,290,l)
);
}
);
userData = {
assembly = "MPPEM[ ]	/* MeasurePixelPerEm */
PUSHB[ ]	/* 1 value pushed */
21
LT[ ]	/* LessThan */
IF[ ]	/* If */
NPUSHB[ ]	/* 38 values pushed */
7 5 2 3 14 8 2 2 1 3 2 104 16 15 9 3 1 12 10 2 0 11 1 0 103 6 1 4 4 33 77 13 1 11 11 34 11 78
ELSE[ ]	/* Else */
NPUSHB[ ]	/* 38 values pushed */
6 1 4 3 4 133 7 5 2 3 14 8 2 2 1 3 2 104 16 15 9 3 1 12 10 2 0 11 1 0 103 13 1 11 11 34 11 78
EIF[ ]	/* EndIf */
NPUSHB[ ]	/* 30 values pushed */
28 28 28 31 28 31 30 29 27 26 25 24 23 22 21 20 19 18 17 17 17 17 17 17 17 17 16 17 8 31
CALL[ ]	/* CallFunction */";
};
width = 860;
}
);
note = numbersign;
unicode = 35;
},
{
glyphname = slash;
kernLeft = slash;
kernRight = slash;
layers = (
{
layerId = m01;
shapes = (
{
closed = 1;
nodes = (
(147,-111,l),
(398,777,l),
(273,777,l),
(23,-111,l)
);
}
);
userData = {
assembly = "NPUSHB[ ]	/* 14 values pushed */
0 0 1 0 133 0 1 1 118 17 16 2 8 24
CALL[ ]	/* CallFunction */";
};
width = 421;
}
);
note = slash;
unicode = 47;
},
{
glyphname = backslash;
kernLeft = backslash;
kernRight = backslash;
layers = (
{
layerId = m01;
shapes = (
{
closed = 1;
nodes = (
(398,-111,l),
(148,777,l),
(23,777,l),
(273,-111,l)
);
}
);
userData = {
assembly = "NPUSHB[ ]	/* 14 values pushed */
0 0 1 0 133 0 1 1 118 17 16 2 8 24
CALL[ ]	/* CallFunction */";
};
width = 421;
}
);
note = backslash;
unicode = 92;
},
{
glyphname = periodcentered.loclCAT;
layers = (
{
layerId = m01;
shapes = (
{
closed = 1;
nodes = (
(118,255,o),
(166,304,o),
(166,338,qs),
(166,373,o),
(118,421,o),
(83,421,qs),
(48,421,o),
(0,373,o),
(0,338,qs),
(0,303,o),
(48,255,o),
(83,255,qs)
);
}
);
userData = {
assembly = "NPUSHB[ ]	/* 27 values pushed */
0 0 1 1 0 89 0 0 0 1 97 2 1 1 0 1 81 0 0 0 11 0 10 36 3 8 23
CALL[ ]	/* CallFunction */";
};
width = 166;
}
);
note = periodcentered.loclCAT;
},
{
glyphname = periodcentered.loclCAT.case;
layers = (
{
layerId = m01;
shapes = (
{
closed = 1;
nodes = (
(-103,267,o),
(-54,316,o),
(-54,350,qs),
(-54,385,o),
(-103,433,o),
(-137,433,qs),
(-172,433,o),
(-220,385,o),
(-220,350,qs),
(-220,315,o),
(-172,267,o),
(-137,267,qs)
);
}
);
userData = {
assembly = "NPUSHB[ ]	/* 27 values pushed */
0 0 1 1 0 89 0 0 0 1 97 2 1 1 0 1 81 0 0 0 11 0 10 36 3 8 23
CALL[ ]	/* CallFunction */";
};
width = 0;
}
);
note = periodcentered.loclCAT.case;
},
{
glyphname = hyphen;
kernLeft = hyphen;
kernRight = hyphen;
layers = (
{
layerId = m01;
shapes = (
{
closed = 1;
nodes = (
(379,236,l),
(379,343,l),
(54,343,l),
(54,236,l)
);
}
);
userData = {
assembly = "NPUSHB[ ]	/* 21 values pushed */
0 0 1 1 0 87 0 0 0 1 95 0 1 0 1 79 17 16 2 8 24
CALL[ ]	/* CallFunction */";
};
width = 433;
}
);
note = hyphen;
unicode = 45;
},
{
glyphname = endash;
kernLeft = hyphen;
kernRight = hyphen;
layers = (
{
layerId = m01;
shapes = (
{
closed = 1;
nodes = (
(594,236,l),
(594,343,l),
(54,343,l),
(54,236,l)
);
}
);
userData = {
assembly = "NPUSHB[ ]	/* 21 values pushed */
0 0 1 1 0 87 0 0 0 1 95 0 1 0 1 79 17 16 2 8 24
CALL[ ]	/* CallFunction */";
};
width = 648;
}
);
note = endash;
unicode = 8211;
},
{
glyphname = emdash;
kernLeft = hyphen;
kernRight = hyphen;
layers = (
{
layerId = m01;
shapes = (
{
closed = 1;
nodes = (
(814,236,l),
(814,343,l),
(54,343,l),
(54,236,l)
);
}
);
userData = {
assembly = "NPUSHB[ ]	/* 21 values pushed */
0 0 1 1 0 87 0 0 0 1 95 0 1 0 1 79 17 16 2 8 24
CALL[ ]	/* CallFunction */";
};
width = 868;
}
);
note = emdash;
unicode = 8212;
},
{
glyphname = underscore;
kernLeft = underscore;
kernRight = underscore;
layers = (
{
layerId = m01;
shapes = (
{
closed = 1;
nodes = (
(627,-160,l),
(627,-38,l),
(54,-38,l),
(54,-160,l)
);
}
);
userData = {
assembly = "PUSHB[ ]	/* 2 values pushed */
6 100
WCVTP[ ]	/* WriteCVTInPixels */
NPUSHB[ ]	/* 21 values pushed */
0 0 1 1 0 87 0 0 0 1 95 0 1 0 1 79 17 16 2 8 24
CALL[ ]	/* CallFunction */
PUSHB[ ]	/* 2 values pushed */
6 0
WCVTP[ ]	/* WriteCVTInPixels */";
};
width = 681;
}
);
note = underscore;
unicode = 95;
},
{
glyphname = parenleft;
kernRight = parenleft;
layers = (
{
layerId = m01;
shapes = (
{
closed = 1;
nodes = (
(367,-145,l),
(367,-133,l),
(274,-35,o),
(171,204,o),
(171,333,qs),
(171,462,o),
(274,701,o),
(367,799,q),
(367,811,l),
(239,811,l),
(184,756,o),
(140,682,qs),
(95,606,o),
(45,429,o),
(45,333,qs),
(45,236,o),
(71,146,qs),
(121,-27,o),
(239,-145,q)
);
}
);
userData = {
assembly = "NPUSHB[ ]	/* 28 values pushed */
16 10 2 1 0 1 76 0 0 1 1 0 87 0 0 0 1 95 0 1 0 1 79 24 24 2 8 24
CALL[ ]	/* CallFunction */";
};
width = 399;
}
);
note = parenleft;
unicode = 40;
},
{
glyphname = parenright;
kernLeft = parenright;
layers = (
{
layerId = m01;
shapes = (
{
closed = 1;
nodes = (
(32,-145,l),
(160,-145,l),
(217,-88,o),
(304,60,o),
(329,146,qs),
(354,233,o),
(354,333,qs),
(354,429,o),
(305,606,o),
(260,682,qs),
(218,753,o),
(160,811,q),
(32,811,l),
(32,799,l),
(125,701,o),
(228,462,o),
(228,333,qs),
(228,204,o),
(125,-35,o),
(32,-133,q)
);
}
);
userData = {
assembly = "NPUSHB[ ]	/* 28 values pushed */
19 5 2 1 0 1 76 0 0 1 1 0 87 0 0 0 1 95 0 1 0 1 79 26 22 2 8 24
CALL[ ]	/* CallFunction */";
};
width = 399;
}
);
note = parenright;
unicode = 41;
},
{
glyphname = braceleft;
kernLeft = braceleft;
kernRight = braceleft;
layers = (
{
layerId = m01;
shapes = (
{
closed = 1;
nodes = (
(401,-173,l),
(401,-67,l),
(362,-67,ls),
(290,-67,o),
(290,4,qs),
(290,44,o),
(300,83,qs),
(309,122,o),
(309,178,qs),
(309,233,o),
(255,306,o),
(200,318,q),
(200,320,l),
(255,332,o),
(309,405,o),
(309,460,qs),
(309,516,o),
(300,556,qs),
(290,593,o),
(290,634,qs),
(290,705,o),
(362,705,qs),
(401,705,l),
(401,811,l),
(338,811,ls),
(259,811,o),
(167,725,o),
(167,646,qs),
(167,612,o),
(177,558,qs),
(188,509,o),
(188,465,qs),
(188,383,o),
(89,371,q),
(89,268,l),
(142,262,o),
(188,211,o),
(188,174,qs),
(188,132,o),
(177,79,qs),
(167,25,o),
(167,-7,qs),
(167,-87,o),
(259,-173,o),
(338,-173,qs)
);
}
);
userData = {
assembly = "NPUSHB[ ]	/* 48 values pushed */
31 10 9 3 2 1 1 76 0 0 0 1 2 0 1 105 0 2 3 3 2 89 0 2 2 3 97 4 1 3 2 3 81 0 0 0 44 0 43 42 40 23 21 20 18 5 8 22
CALL[ ]	/* CallFunction */";
};
width = 462;
}
);
note = braceleft;
unicode = 123;
},
{
glyphname = braceright;
kernLeft = braceright;
kernRight = braceright;
layers = (
{
layerId = m01;
shapes = (
{
closed = 1;
nodes = (
(124,-173,ls),
(203,-173,o),
(295,-87,o),
(295,-7,qs),
(295,25,o),
(285,79,qs),
(274,132,o),
(274,174,qs),
(274,211,o),
(320,262,o),
(373,268,q),
(373,371,l),
(274,383,o),
(274,465,qs),
(274,509,o),
(285,558,qs),
(295,612,o),
(295,646,qs),
(295,725,o),
(203,811,o),
(124,811,qs),
(61,811,l),
(61,705,l),
(100,705,ls),
(172,705,o),
(172,634,qs),
(172,595,o),
(163,556,qs),
(153,517,o),
(153,460,qs),
(153,405,o),
(207,332,o),
(262,320,q),
(262,318,l),
(207,306,o),
(153,233,o),
(153,178,qs),
(153,120,o),
(163,83,qs),
(172,43,o),
(172,4,qs),
(172,-67,o),
(100,-67,qs),
(61,-67,l),
(61,-173,l)
);
}
);
userData = {
assembly = "NPUSHB[ ]	/* 42 values pushed */
33 32 10 3 0 1 1 76 0 2 0 1 0 2 1 105 0 0 3 3 0 89 0 0 0 3 97 0 3 0 3 81 44 42 24 22 21 19 32 4 8 23
CALL[ ]	/* CallFunction */";
};
width = 462;
}
);
note = braceright;
unicode = 125;
},
{
glyphname = bracketleft;
layers = (
{
layerId = m01;
shapes = (
{
closed = 1;
nodes = (
(306,-170,l),
(306,-65,l),
(188,-65,l),
(188,707,l),
(306,707,l),
(306,811,l),
(68,811,l),
(68,-170,l)
);
}
);
userData = {
assembly = "NPUSHB[ ]	/* 31 values pushed */
0 0 0 1 2 0 1 103 0 2 3 3 2 87 0 2 2 3 95 0 3 2 3 79 17 17 17 16 4 8 26
CALL[ ]	/* CallFunction */";
};
width = 360;
}
);
note = bracketleft;
unicode = 91;
},
{
glyphname = bracketright;
layers = (
{
layerId = m01;
shapes = (
{
closed = 1;
nodes = (
(292,-170,l),
(292,811,l),
(54,811,l),
(54,707,l),
(172,707,l),
(172,-65,l),
(54,-65,l),
(54,-170,l)
);
}
);
userData = {
assembly = "NPUSHB[ ]	/* 31 values pushed */
0 2 0 1 0 2 1 103 0 0 3 3 0 87 0 0 0 3 95 0 3 0 3 79 17 17 17 16 4 8 26
CALL[ ]	/* CallFunction */";
};
width = 360;
}
);
note = bracketright;
unicode = 93;
},
{
glyphname = quotesinglbase;
layers = (
{
layerId = m01;
shapes = (
{
closed = 1;
nodes = (
(102,-113,l),
(204,133,l),
(69,133,l),
(14,-113,l)
);
}
);
userData = {
assembly = "NPUSHB[ ]	/* 21 values pushed */
0 0 1 1 0 87 0 0 0 1 95 0 1 0 1 79 17 16 2 8 24
CALL[ ]	/* CallFunction */";
};
width = 240;
}
);
note = quotesinglbase;
unicode = 8218;
},
{
glyphname = quotedblbase;
layers = (
{
layerId = m01;
shapes = (
{
closed = 1;
nodes = (
(102,-113,l),
(204,133,l),
(69,133,l),
(14,-113,l)
);
},
{
closed = 1;
nodes = (
(295,-113,l),
(396,133,l),
(262,133,l),
(207,-113,l)
);
}
);
userData = {
assembly = "NPUSHB[ ]	/* 26 values pushed */
2 1 0 1 1 0 87 2 1 0 0 1 95 3 1 1 0 1 79 17 17 17 16 4 8 26
CALL[ ]	/* CallFunction */";
};
width = 432;
}
);
note = quotedblbase;
unicode = 8222;
},
{
glyphname = quotedblleft;
layers = (
{
layerId = m01;
shapes = (
{
closed = 1;
nodes = (
(360,454,l),
(415,700,l),
(328,700,l),
(226,454,l)
);
},
{
closed = 1;
nodes = (
(168,454,l),
(222,700,l),
(135,700,l),
(33,454,l)
);
}
);
userData = {
assembly = "NPUSHB[ ]	/* 20 values pushed */
3 1 1 1 0 95 2 1 0 0 33 1 78 17 17 17 16 4 8 26
CALL[ ]	/* CallFunction */";
};
width = 456;
}
);
note = quotedblleft;
unicode = 8220;
},
{
glyphname = quotedblright;
kernRight = quotedblright;
layers = (
{
layerId = m01;
shapes = (
{
closed = 1;
nodes = (
(321,455,l),
(423,701,l),
(288,701,l),
(233,455,l)
);
},
{
closed = 1;
nodes = (
(129,455,l),
(231,701,l),
(96,701,l),
(41,455,l)
);
}
);
userData = {
assembly = "NPUSHB[ ]	/* 20 values pushed */
3 1 1 1 0 95 2 1 0 0 33 1 78 17 17 17 16 4 8 26
CALL[ ]	/* CallFunction */";
};
width = 456;
}
);
note = quotedblright;
unicode = 8221;
},
